{"glyphs":{"0":{"ha":777,"x_min":56,"x_max":736,"o":"m 472 1007 q 665 924 594 1007 q 736 689 736 840 q 623 203 736 422 q 323 -16 509 -16 q 127 73 199 -16 q 56 321 56 162 q 171 798 56 588 q 472 1007 286 1007 m 335 61 q 529 261 456 61 q 602 715 602 462 q 458 932 602 932 q 264 730 337 932 q 191 281 191 529 q 335 61 191 61 z "},"1":{"ha":777,"x_min":53,"x_max":591,"o":"m 591 997 l 412 153 q 407 114 407 127 q 507 58 407 58 l 582 58 l 570 0 l 53 0 l 64 58 l 138 58 q 233 83 203 58 q 273 158 263 108 l 382 669 q 433 888 406 781 l 428 888 q 298 772 340 802 q 218 743 255 743 q 163 818 163 743 q 390 925 258 841 l 503 997 l 591 997 z "},"2":{"ha":777,"x_min":-24,"x_max":707,"o":"m -24 0 l 5 113 l 332 407 q 513 609 461 524 q 566 796 566 694 q 531 898 566 861 q 437 936 496 936 q 240 726 277 936 q 142 815 142 726 q 225 949 142 892 q 444 1006 309 1006 q 638 953 570 1006 q 707 803 707 900 q 648 632 707 720 q 418 392 589 545 l 106 111 l 428 111 q 506 132 473 111 q 566 215 538 153 l 575 237 l 633 237 l 578 0 l -24 0 z "},"3":{"ha":777,"x_min":-4,"x_max":718,"o":"m 245 478 l 260 549 l 304 549 q 499 621 422 549 q 575 810 575 694 q 457 936 575 936 q 260 729 302 936 q 157 818 157 729 q 243 952 157 899 q 463 1006 330 1006 q 649 952 581 1006 q 718 807 718 899 q 643 623 718 701 q 439 522 568 545 q 593 455 538 512 q 647 313 647 399 q 539 71 647 156 q 265 -14 431 -14 q 64 26 132 -14 q -4 132 -4 66 q 25 207 -4 178 q 102 235 54 235 q 147 111 102 159 q 275 62 193 62 q 438 125 374 62 q 501 297 501 189 q 450 431 501 383 q 306 478 399 478 l 245 478 z "},"4":{"ha":777,"x_min":-20,"x_max":730,"o":"m 178 0 l 189 58 l 250 58 q 346 83 316 58 q 386 158 376 108 l 408 272 l -20 272 l -7 329 l 562 991 l 696 991 l 558 350 l 730 350 l 714 272 l 542 272 l 518 153 q 513 114 513 125 q 612 58 513 58 l 644 58 l 632 0 l 178 0 m 479 610 q 547 879 513 767 q 425 720 490 791 l 110 350 l 425 350 l 479 610 z "},"5":{"ha":777,"x_min":11,"x_max":741,"o":"m 175 486 l 127 496 l 277 991 l 741 991 l 703 782 l 644 782 q 648 847 648 835 q 585 880 648 880 l 315 880 l 224 571 q 357 593 291 593 q 571 525 494 593 q 648 338 648 457 q 540 85 648 183 q 254 -14 432 -14 q 11 125 11 -14 q 115 211 11 211 q 267 62 120 62 q 441 132 378 62 q 504 328 504 202 q 455 467 504 417 q 326 517 407 517 q 175 486 252 517 z "},"6":{"ha":777,"x_min":83,"x_max":771,"o":"m 244 530 q 449 603 347 603 q 621 537 559 603 q 684 359 684 471 q 592 92 684 198 q 345 -14 501 -14 q 155 76 227 -14 q 83 322 83 165 q 218 804 83 602 q 558 1006 353 1006 q 714 970 657 1006 q 771 880 771 934 q 650 777 771 777 q 626 905 650 871 q 555 939 602 939 q 244 530 347 939 m 229 452 q 210 271 210 340 q 353 62 210 62 q 491 144 437 62 q 546 351 546 225 q 421 532 546 532 q 229 452 328 532 z "},"7":{"ha":777,"x_min":125,"x_max":806,"o":"m 150 0 l 664 880 l 298 880 q 203 810 222 880 l 183 741 l 125 741 l 184 991 l 806 991 l 798 951 l 254 0 l 150 0 z "},"8":{"ha":777,"x_min":14,"x_max":741,"o":"m 289 507 q 153 737 153 605 q 238 935 153 864 q 485 1006 324 1006 q 672 950 603 1006 q 741 803 741 894 q 686 649 741 713 q 498 529 631 584 q 675 281 675 427 q 576 63 675 139 q 309 -14 478 -14 q 94 53 174 -14 q 14 225 14 119 q 75 387 14 321 q 289 507 136 452 m 432 562 q 616 793 616 641 q 578 898 616 861 q 473 936 541 936 q 337 886 389 936 q 286 753 286 836 q 432 562 286 641 m 353 471 q 147 222 147 395 q 195 99 147 144 q 326 54 243 54 q 484 106 424 54 q 543 248 543 157 q 497 371 543 319 q 353 471 451 422 z "},"9":{"ha":777,"x_min":49,"x_max":722,"o":"m 549 476 q 336 382 458 382 q 165 445 229 382 q 102 612 102 508 q 209 894 102 782 q 468 1006 315 1006 q 654 934 585 1006 q 722 732 722 862 q 595 225 722 465 q 243 -14 467 -14 q 49 111 49 -14 q 71 169 49 146 q 131 192 92 192 q 166 92 134 129 q 254 54 199 54 q 419 153 351 54 q 549 476 488 252 m 571 576 q 593 741 593 667 q 464 929 593 929 q 306 831 372 929 q 240 608 240 734 q 276 496 240 534 q 371 458 311 458 q 571 576 482 458 z "}," ":{"ha":361,"x_min":0,"x_max":0,"o":""},"!":{"ha":463,"x_min":83,"x_max":439,"o":"m 278 991 l 439 991 l 239 279 l 175 279 l 278 991 m 170 -11 q 83 74 83 -11 q 108 151 83 122 q 175 180 133 180 q 261 96 261 180 q 236 18 261 46 q 170 -11 212 -11 z "},"\"":{"ha":567,"x_min":182,"x_max":618,"o":"m 471 991 l 618 991 l 507 665 l 443 665 l 471 991 m 210 991 l 357 991 l 245 665 l 182 665 l 210 991 z "},"#":{"ha":777,"x_min":46,"x_max":757,"o":"m 704 364 l 694 282 l 519 282 l 437 0 l 354 0 l 436 282 l 243 282 l 161 0 l 78 0 l 160 282 l 46 282 l 56 364 l 184 364 l 265 636 l 100 636 l 109 718 l 289 718 l 368 991 l 453 991 l 372 718 l 566 718 l 646 991 l 729 991 l 648 718 l 757 718 l 749 636 l 625 636 l 546 364 l 704 364 m 269 364 l 463 364 l 542 636 l 349 636 l 269 364 z "},"$":{"ha":777,"x_min":33,"x_max":741,"o":"m 279 52 q 99 111 164 60 q 33 239 33 163 q 67 322 33 291 q 140 353 102 353 q 181 198 140 261 q 293 121 222 136 l 366 461 q 182 699 182 553 q 257 878 182 812 q 471 950 333 943 l 493 1055 l 562 1055 l 541 950 q 741 811 741 932 q 628 715 741 715 q 526 888 628 865 l 456 554 l 471 546 q 630 428 596 477 q 664 318 664 378 q 580 132 664 204 q 347 50 496 59 l 314 -110 l 244 -110 l 279 52 m 393 586 l 457 889 q 311 718 311 865 q 393 586 311 637 m 429 431 l 363 118 q 487 172 441 125 q 532 288 532 218 q 429 431 532 377 z "},"%":{"ha":1244,"x_min":92,"x_max":1182,"o":"m 383 1004 q 568 783 568 1004 q 487 516 568 643 q 271 390 405 390 q 139 447 186 390 q 92 611 92 503 q 172 881 92 758 q 383 1004 252 1004 m 201 590 q 277 447 201 447 q 402 567 352 447 q 453 806 453 688 q 378 949 453 949 q 252 829 302 949 q 201 590 201 709 m 335 0 l 232 0 l 929 991 l 1026 991 l 335 0 m 997 603 q 1182 382 1182 603 q 1100 115 1182 241 q 885 -11 1019 -11 q 705 210 705 -11 q 785 479 705 356 q 997 603 865 603 m 815 189 q 890 46 815 46 q 1016 166 966 46 q 1067 404 1067 286 q 991 547 1067 547 q 866 428 916 547 q 815 189 815 308 z "},"&":{"ha":1031,"x_min":49,"x_max":1044,"o":"m 743 0 l 660 115 q 353 -14 534 -14 q 129 57 210 -14 q 49 245 49 128 q 114 428 49 353 q 340 562 179 503 q 273 766 273 675 q 349 944 273 882 q 570 1006 425 1006 q 743 957 682 1006 q 804 825 804 908 q 753 680 804 735 q 501 551 703 624 l 696 285 q 783 530 755 396 l 794 585 l 1044 585 l 1032 526 l 1019 526 q 919 506 950 526 q 874 466 888 485 q 804 330 860 446 q 743 221 778 275 l 819 117 q 956 58 862 58 l 968 58 l 956 0 l 743 0 m 463 607 q 629 695 580 651 q 677 815 677 740 q 645 904 677 870 q 559 937 613 937 q 407 777 407 937 q 463 607 407 699 m 616 175 l 380 503 q 229 397 272 453 q 186 249 186 341 q 234 116 186 168 q 367 64 283 64 q 616 175 511 64 z "},"'":{"ha":306,"x_min":176,"x_max":351,"o":"m 204 991 l 351 991 l 240 665 l 176 665 l 204 991 z "},"(":{"ha":481,"x_min":58,"x_max":567,"o":"m 318 -114 l 304 -178 q 58 258 58 -70 q 193 764 58 538 q 567 1055 328 990 l 553 993 q 275 642 361 888 q 189 193 189 395 q 318 -114 189 -24 z "},")":{"ha":481,"x_min":-68,"x_max":440,"o":"m 180 981 l 195 1044 q 440 608 440 937 q 304 101 440 327 q -68 -189 169 -125 l -54 -126 q 224 226 138 -22 q 310 673 310 475 q 180 981 310 890 z "},"*":{"ha":694,"x_min":161,"x_max":750,"o":"m 191 918 l 261 1015 l 441 839 l 453 1063 l 571 1038 l 488 831 l 725 914 l 750 798 l 505 779 l 721 664 l 652 570 l 468 741 l 460 518 l 342 543 l 422 750 l 186 665 l 161 782 l 404 802 l 191 918 z "},"+":{"ha":777,"x_min":102,"x_max":697,"o":"m 440 456 l 440 199 l 357 199 l 357 456 l 102 456 l 102 538 l 357 538 l 357 794 l 440 794 l 440 538 l 697 538 l 697 456 l 440 456 z "},",":{"ha":347,"x_min":-39,"x_max":212,"o":"m -39 -203 l -33 -144 q 109 -28 109 -113 q 64 25 109 -3 q 18 96 18 54 q 42 155 18 133 q 104 178 66 178 q 182 147 151 178 q 212 64 212 116 q 148 -108 212 -38 q -39 -203 83 -178 z "},"-":{"ha":431,"x_min":20,"x_max":403,"o":"m 20 326 l 41 431 l 403 431 l 380 326 l 20 326 z "},".":{"ha":397,"x_min":61,"x_max":239,"o":"m 147 -11 q 61 74 61 -11 q 86 151 61 122 q 153 180 111 180 q 239 96 239 180 q 214 18 239 47 q 147 -11 189 -11 z "},"/":{"ha":400,"x_min":-129,"x_max":529,"o":"m -41 -168 l -129 -168 l 441 1055 l 529 1055 l -41 -168 z "},":":{"ha":399,"x_min":45,"x_max":347,"o":"m 256 559 q 170 644 170 559 q 194 722 170 692 q 261 751 219 751 q 347 667 347 751 q 322 588 347 616 q 256 559 298 559 m 131 -11 q 45 74 45 -11 q 70 151 45 122 q 136 180 94 180 q 200 157 177 180 q 222 96 222 134 q 198 18 222 46 q 131 -11 173 -11 z "},";":{"ha":397,"x_min":25,"x_max":350,"o":"m 258 559 q 172 644 172 559 q 197 722 172 692 q 264 751 222 751 q 350 667 350 751 q 325 588 350 616 q 258 559 300 559 m 25 -203 l 31 -144 q 172 -28 172 -113 q 127 25 172 -3 q 82 96 82 54 q 106 155 82 133 q 168 178 130 178 q 246 146 215 178 q 277 64 277 115 q 211 -109 277 -39 q 25 -203 146 -178 z "},"<":{"ha":777,"x_min":102,"x_max":697,"o":"m 102 472 l 102 521 l 697 842 l 697 749 l 231 496 l 697 245 l 697 153 l 102 472 z "},"=":{"ha":777,"x_min":102,"x_max":697,"o":"m 697 673 l 697 591 l 102 591 l 102 673 l 697 673 m 697 400 l 697 318 l 102 318 l 102 400 l 697 400 z "},">":{"ha":777,"x_min":102,"x_max":697,"o":"m 102 153 l 102 245 l 568 496 l 102 749 l 102 842 l 697 521 l 697 472 l 102 153 z "},"?":{"ha":694,"x_min":182,"x_max":725,"o":"m 383 440 l 349 279 l 264 279 l 307 485 q 589 786 589 589 q 552 895 589 854 q 454 936 515 936 q 282 739 311 936 q 182 822 182 739 q 259 952 182 899 q 463 1006 337 1006 q 725 775 725 1006 q 383 440 725 564 m 275 -11 q 189 74 189 -11 q 214 151 189 122 q 281 180 239 180 q 344 157 321 180 q 367 96 367 134 q 342 18 367 46 q 275 -11 317 -11 z "},"@":{"ha":1279,"x_min":90,"x_max":1206,"o":"m 770 233 l 762 233 q 575 107 696 107 q 422 170 481 107 q 364 345 364 233 q 460 613 364 492 q 718 734 555 734 q 848 693 795 734 l 904 722 l 937 722 l 867 368 q 857 275 857 321 q 880 207 857 233 q 942 180 903 180 q 1066 284 1010 180 q 1121 549 1121 387 q 1015 821 1121 722 q 728 921 909 921 q 356 748 512 921 q 200 306 200 574 q 311 -13 200 99 q 614 -125 421 -125 q 966 -9 805 -125 l 999 -60 q 600 -197 812 -197 q 226 -65 361 -197 q 90 302 90 66 q 273 796 90 600 q 736 991 456 991 q 1080 870 954 991 q 1206 545 1206 748 q 1121 232 1206 356 q 933 107 1037 107 q 770 233 812 107 m 802 636 q 724 677 782 677 q 556 564 619 677 q 493 325 493 450 q 523 216 493 252 q 599 180 552 180 q 749 354 715 180 l 802 636 z "},"A":{"ha":979,"x_min":-78,"x_max":913,"o":"m 277 332 l 193 186 q 167 109 167 140 q 244 58 167 58 l 277 58 l 265 0 l -78 0 l -66 58 l -40 58 q 22 78 -3 58 q 89 167 47 97 l 572 991 l 681 991 l 812 132 q 836 74 819 89 q 895 58 853 58 l 913 58 l 901 0 l 524 0 l 534 58 l 567 58 q 667 129 667 58 q 664 176 667 157 l 642 332 l 277 332 m 597 644 q 575 864 576 792 q 467 657 543 789 l 318 401 l 632 401 l 597 644 z "},"B":{"ha":908,"x_min":-29,"x_max":865,"o":"m -18 58 l 0 58 q 136 158 115 58 l 281 839 q 286 878 286 865 q 186 933 286 933 l 168 933 l 180 991 l 541 991 q 865 783 865 991 q 639 525 865 578 l 637 519 q 807 317 807 486 q 705 82 807 164 q 407 0 602 0 l -29 0 l -18 58 m 359 554 l 467 554 q 714 765 714 554 q 522 922 714 922 l 439 922 l 359 554 m 257 69 l 392 69 q 657 326 657 69 q 463 485 657 485 l 346 485 l 257 69 z "},"C":{"ha":871,"x_min":72,"x_max":901,"o":"m 728 203 q 746 157 746 190 q 669 38 746 90 q 456 -14 591 -14 q 173 83 275 -14 q 72 358 72 180 q 236 813 72 621 q 644 1006 400 1006 q 833 964 766 1006 q 901 851 901 922 q 864 772 901 802 q 765 743 827 743 q 627 932 765 932 q 339 745 455 932 q 224 336 224 558 q 471 77 224 77 q 728 203 631 77 z "},"D":{"ha":1007,"x_min":-29,"x_max":964,"o":"m -18 58 l 0 58 q 136 158 115 58 l 281 839 q 286 878 286 865 q 186 933 286 933 l 168 933 l 180 991 l 570 991 q 861 893 759 991 q 964 614 964 795 q 812 174 964 348 q 408 0 661 0 l -29 0 l -18 58 m 378 71 q 695 224 578 71 q 812 629 812 378 q 549 922 812 922 l 439 922 l 257 71 l 378 71 z "},"E":{"ha":865,"x_min":-29,"x_max":880,"o":"m 257 69 l 525 69 q 682 183 642 69 l 704 243 l 777 243 l 715 0 l -29 0 l -18 58 l 0 58 q 98 83 71 58 q 135 151 125 108 l 279 833 q 283 867 283 852 q 264 916 283 899 q 186 933 245 933 l 168 933 l 180 991 l 880 991 l 836 749 l 764 749 l 768 791 q 771 829 771 824 q 672 922 771 922 l 439 922 l 359 553 l 694 553 l 681 485 l 346 485 l 257 69 z "},"F":{"ha":819,"x_min":-29,"x_max":880,"o":"m -18 58 l 0 58 q 94 81 65 58 q 135 151 122 103 l 281 839 q 286 878 286 865 q 186 933 286 933 l 168 933 l 180 991 l 880 991 l 836 749 l 764 749 l 766 773 q 768 798 767 786 q 771 829 771 821 q 667 922 771 922 l 439 922 l 353 521 l 688 521 l 673 453 l 339 453 l 277 158 q 272 123 272 136 q 368 58 272 58 l 414 58 l 403 0 l -29 0 l -18 58 z "},"G":{"ha":991,"x_min":72,"x_max":970,"o":"m 970 458 l 957 400 l 951 400 q 870 375 896 400 q 833 300 844 351 l 781 50 q 467 -14 633 -14 q 174 84 277 -14 q 72 358 72 181 q 241 820 72 634 q 669 1006 411 1006 q 885 964 808 1006 q 962 856 962 922 q 921 775 962 804 q 815 746 880 746 q 770 884 815 836 q 640 932 724 932 q 346 754 469 932 q 224 336 224 577 q 492 65 224 65 q 648 85 570 65 l 694 306 q 700 345 700 332 q 600 400 700 400 l 587 400 l 600 458 l 970 458 z "},"H":{"ha":1101,"x_min":-29,"x_max":1177,"o":"m 562 0 l 574 58 l 591 58 q 688 83 658 58 q 728 158 718 108 l 796 484 l 345 484 l 275 153 q 269 114 269 123 q 370 58 269 58 l 387 58 l 375 0 l -29 0 l -18 58 l 0 58 q 96 84 67 58 q 136 158 125 109 l 281 839 q 286 878 286 865 q 186 933 286 933 l 168 933 l 180 991 l 585 991 l 572 933 l 554 933 q 458 908 488 933 q 419 833 429 883 l 359 553 l 811 553 l 872 839 q 878 878 878 865 q 778 933 878 933 l 760 933 l 772 991 l 1177 991 l 1164 933 l 1146 933 q 1050 908 1080 933 q 1011 833 1021 882 l 867 153 q 861 114 861 127 q 961 58 861 58 l 979 58 l 966 0 l 562 0 z "},"I":{"ha":510,"x_min":-29,"x_max":585,"o":"m 585 991 l 572 933 l 554 933 q 458 908 488 933 q 419 833 429 883 l 275 153 q 269 114 269 123 q 370 58 269 58 l 387 58 l 375 0 l -29 0 l -18 58 l 0 58 q 136 158 115 58 l 281 839 q 286 878 286 865 q 186 933 286 933 l 168 933 l 180 991 l 585 991 z "},"J":{"ha":496,"x_min":-215,"x_max":578,"o":"m 578 991 l 566 933 l 547 933 q 452 908 481 933 q 412 833 422 883 l 232 -11 q 116 -257 195 -181 q -102 -334 36 -334 q -215 -318 -163 -334 l -196 -256 q -106 -268 -161 -268 q 20 -208 -25 -268 q 93 -12 64 -147 l 273 839 q 279 878 279 867 q 179 933 279 933 l 161 933 l 174 991 l 578 991 z "},"K":{"ha":972,"x_min":-29,"x_max":1054,"o":"m -18 58 l 0 58 q 96 84 67 58 q 136 158 125 109 l 281 839 q 286 878 286 865 q 186 933 286 933 l 168 933 l 180 991 l 585 991 l 572 933 l 554 933 q 458 908 488 933 q 419 833 429 883 l 359 553 l 335 450 l 693 779 q 798 904 798 875 q 736 935 798 935 l 747 991 l 1054 991 l 1043 935 q 963 910 1007 935 q 829 804 919 886 l 576 575 l 745 170 q 876 58 791 58 l 880 58 l 868 0 l 848 0 q 685 23 739 0 q 599 129 631 45 l 464 472 l 321 372 l 275 153 q 269 114 269 123 q 370 58 269 58 l 387 58 l 375 0 l -29 0 l -18 58 z "},"L":{"ha":865,"x_min":-28,"x_max":787,"o":"m -16 58 l 3 58 q 96 84 68 58 q 136 158 125 109 l 281 839 q 286 878 286 865 q 186 933 286 933 l 168 933 l 180 991 l 585 991 l 572 933 l 554 933 q 460 910 488 933 q 421 839 431 886 l 257 69 l 530 69 q 679 195 637 69 l 715 298 l 787 298 l 715 0 l -28 0 l -16 58 z "},"M":{"ha":1303,"x_min":-28,"x_max":1378,"o":"m 799 0 l 811 58 l 815 58 q 898 80 874 58 q 933 146 922 102 l 1092 888 l 585 0 l 510 0 l 375 888 l 220 153 q 214 114 214 123 q 314 58 214 58 l 332 58 l 319 0 l -28 0 l -16 58 l 3 58 q 99 83 72 58 q 135 151 125 107 l 281 839 q 286 878 286 865 q 186 933 286 933 l 168 933 l 180 991 l 496 991 l 614 200 l 1068 991 l 1378 991 l 1365 933 l 1348 933 q 1252 908 1281 933 q 1213 833 1223 882 l 1068 153 q 1063 114 1063 127 q 1162 58 1063 58 l 1181 58 l 1168 0 l 799 0 z "},"N":{"ha":1060,"x_min":-28,"x_max":1149,"o":"m 900 839 q 905 878 905 865 q 806 933 905 933 l 787 933 l 800 991 l 1149 991 l 1136 933 l 1118 933 q 1023 908 1052 933 q 983 833 994 882 l 807 0 l 717 0 l 359 814 l 220 153 q 214 114 214 123 q 314 58 214 58 l 332 58 l 319 0 l -28 0 l -16 58 l 3 58 q 96 84 68 58 q 136 158 125 109 l 281 839 q 286 878 286 865 q 186 933 286 933 l 168 933 l 180 991 l 433 991 l 770 225 l 900 839 z "},"O":{"ha":1031,"x_min":72,"x_max":987,"o":"m 628 1007 q 888 907 789 1007 q 987 625 987 806 q 833 186 987 387 q 436 -16 678 -16 q 172 89 271 -16 q 72 370 72 193 q 228 808 72 608 q 628 1007 384 1007 m 444 61 q 726 253 617 61 q 835 663 835 444 q 778 862 835 792 q 616 932 720 932 q 333 740 443 932 q 224 330 224 547 q 283 131 224 200 q 444 61 342 61 z "},"P":{"ha":861,"x_min":-28,"x_max":852,"o":"m -28 0 l -16 58 l 3 58 q 97 83 68 58 q 136 158 126 109 l 281 839 q 286 878 286 865 q 186 933 286 933 l 168 933 l 180 991 l 536 991 q 770 922 687 991 q 852 724 852 852 q 746 476 852 566 q 428 386 640 386 l 325 386 l 275 153 q 269 114 269 124 q 370 58 269 58 l 415 58 l 403 0 l -28 0 m 339 452 l 412 452 q 705 722 705 452 q 503 925 705 925 l 439 925 l 339 452 z "},"Q":{"ha":1031,"x_min":72,"x_max":987,"o":"m 510 -9 q 552 -190 516 -134 q 660 -245 587 -245 q 754 -233 710 -245 l 764 -292 q 627 -314 694 -314 q 359 -8 371 -314 q 148 116 224 15 q 72 370 72 217 q 228 808 72 608 q 628 1007 384 1007 q 888 907 789 1007 q 987 625 987 806 q 858 219 987 414 q 510 -9 728 24 m 444 61 q 726 253 617 61 q 835 663 835 444 q 778 862 835 792 q 616 932 720 932 q 333 740 443 932 q 224 330 224 547 q 283 131 224 200 q 444 61 342 61 z "},"R":{"ha":899,"x_min":-52,"x_max":839,"o":"m 313 437 l 252 153 q 245 114 245 124 q 346 58 245 58 l 392 58 l 379 0 l -52 0 l -39 58 l -21 58 q 75 83 48 58 q 111 151 102 107 l 257 839 q 262 878 262 865 q 163 933 262 933 l 144 933 l 157 991 l 521 991 q 839 755 839 991 q 582 465 839 526 l 682 168 q 732 78 707 97 q 796 58 757 58 l 807 58 l 796 0 l 778 0 q 609 32 659 0 q 530 163 559 63 l 450 437 l 313 437 m 326 503 l 433 503 q 625 566 557 503 q 692 747 692 629 q 651 882 692 840 q 510 925 610 925 l 415 925 l 326 503 z "},"S":{"ha":755,"x_min":9,"x_max":768,"o":"m 117 290 q 173 119 117 184 q 328 54 229 54 q 482 102 425 54 q 539 233 539 151 q 506 345 539 299 q 364 452 473 390 q 210 584 253 516 q 167 737 167 652 q 258 931 167 857 q 504 1006 349 1006 q 696 964 625 1006 q 768 856 768 922 q 646 760 768 760 q 607 888 646 841 q 493 936 568 936 q 357 888 410 936 q 304 761 304 841 q 333 659 304 702 q 476 549 361 616 q 634 422 585 485 q 682 278 682 359 q 586 63 682 140 q 318 -14 490 -14 q 93 42 176 -14 q 9 184 9 98 q 40 261 9 233 q 117 290 70 290 z "},"T":{"ha":851,"x_min":106,"x_max":946,"o":"m 446 153 q 440 114 440 127 q 541 58 440 58 l 572 58 l 559 0 l 127 0 l 140 58 l 172 58 q 269 82 242 58 q 306 151 296 106 l 469 922 l 336 922 q 197 808 237 922 l 178 749 l 106 749 l 164 991 l 946 991 l 901 749 l 829 749 q 836 833 836 803 q 745 922 836 922 l 610 922 l 446 153 z "},"U":{"ha":1014,"x_min":134,"x_max":1105,"o":"m 139 933 l 151 991 l 555 991 l 545 933 l 526 933 q 431 908 461 933 q 390 833 401 884 l 286 343 q 269 214 269 263 q 469 69 269 69 q 648 119 582 69 q 739 286 713 170 l 857 839 q 863 878 863 864 q 762 933 863 933 l 745 933 l 757 991 l 1105 991 l 1095 933 l 1076 933 q 981 908 1011 933 q 940 833 951 884 l 823 283 q 449 -14 760 -14 q 215 49 296 -14 q 134 227 134 111 q 149 350 134 283 l 252 839 q 257 878 257 865 q 157 933 257 933 l 139 933 z "},"V":{"ha":937,"x_min":114,"x_max":1064,"o":"m 433 136 q 546 364 485 256 l 793 806 q 819 884 819 853 q 742 933 819 933 l 710 933 l 721 991 l 1064 991 l 1051 933 l 1025 933 q 955 909 978 933 q 897 825 931 886 l 435 0 l 334 0 l 215 860 q 192 917 210 901 q 132 933 175 933 l 114 933 l 126 991 l 504 991 l 493 933 l 461 933 q 389 915 416 933 q 361 863 361 896 q 364 815 361 839 l 419 364 q 433 136 433 248 z "},"W":{"ha":1451,"x_min":123,"x_max":1564,"o":"m 1299 806 q 1325 884 1325 859 q 1247 933 1325 933 l 1214 933 l 1225 991 l 1564 991 l 1552 933 l 1525 933 q 1455 911 1480 933 q 1397 825 1430 890 l 987 0 l 860 0 l 798 770 l 424 0 l 297 0 l 225 860 q 205 915 222 897 q 142 933 188 933 l 123 933 l 136 991 l 514 991 l 501 933 l 469 933 q 370 863 370 933 q 372 815 370 834 l 406 371 q 415 136 415 244 q 529 386 473 273 l 821 982 l 921 982 l 966 380 q 974 136 977 244 q 1078 364 1035 278 l 1299 806 z "},"X":{"ha":917,"x_min":-68,"x_max":1002,"o":"m 989 933 l 977 933 q 908 913 939 933 q 819 829 878 892 l 557 539 l 724 132 q 819 58 754 58 l 838 58 l 825 0 l 450 0 l 463 58 l 478 58 q 543 72 519 58 q 567 107 567 86 q 541 203 567 136 l 450 424 l 243 193 q 187 96 187 132 q 269 58 187 58 l 273 58 l 261 0 l -68 0 l -56 58 l -50 58 q 31 82 -5 58 q 114 158 66 106 l 421 493 l 272 863 q 164 933 243 933 l 146 933 l 158 991 l 534 991 l 522 933 l 490 933 q 425 895 425 933 q 450 811 425 875 l 529 608 l 703 808 q 755 899 755 869 q 689 933 755 933 l 685 933 l 697 991 l 1002 991 l 989 933 z "},"Y":{"ha":868,"x_min":107,"x_max":999,"o":"m 494 991 l 482 933 l 412 933 q 355 896 355 933 q 374 815 355 869 l 436 629 q 473 463 469 530 q 578 608 487 488 l 710 785 q 761 897 761 852 q 694 933 761 933 l 643 933 l 656 991 l 999 991 l 986 933 l 960 933 q 907 912 933 933 q 833 828 881 890 l 510 404 l 456 153 q 450 114 450 127 q 550 58 450 58 l 582 58 l 570 0 l 138 0 l 150 58 l 182 58 q 279 82 252 58 q 315 151 306 106 l 370 407 l 208 860 q 177 919 193 904 q 125 933 162 933 l 107 933 l 119 991 l 494 991 z "},"Z":{"ha":840,"x_min":-24,"x_max":876,"o":"m 865 935 l 165 69 l 536 69 q 676 183 640 69 l 696 243 l 768 243 l 710 0 l -24 0 l -12 56 l 686 922 l 363 922 q 224 808 260 922 l 204 749 l 132 749 l 191 991 l 876 991 l 865 935 z "},"[":{"ha":498,"x_min":7,"x_max":579,"o":"m 7 -178 l 269 1055 l 579 1055 l 567 997 l 507 997 q 413 972 442 997 q 372 897 383 948 l 175 -25 q 170 -64 170 -50 q 269 -119 170 -119 l 329 -119 l 317 -178 l 7 -178 z "},"\\":{"ha":400,"x_min":157,"x_max":297,"o":"m 157 1055 l 237 1055 l 297 -168 l 215 -168 l 157 1055 z "},"]":{"ha":500,"x_min":-65,"x_max":505,"o":"m -65 -178 l -53 -119 l 7 -119 q 101 -94 72 -119 q 140 -20 130 -69 l 338 903 q 343 942 343 928 q 243 997 343 997 l 183 997 l 196 1055 l 505 1055 l 243 -178 l -65 -178 z "},"^":{"ha":777,"x_min":82,"x_max":715,"o":"m 374 991 l 423 991 l 715 370 l 623 370 l 399 864 l 175 370 l 82 370 l 374 991 z "},"_":{"ha":637,"x_min":-126,"x_max":542,"o":"m 524 -197 l -126 -197 l -109 -115 l 542 -115 l 524 -197 z "},"`":{"ha":802,"x_min":383,"x_max":619,"o":"m 562 842 q 383 1050 458 943 l 387 1064 l 526 1064 q 619 860 567 959 l 615 842 l 562 842 z "},"a":{"ha":804,"x_min":60,"x_max":798,"o":"m 507 210 l 498 210 q 239 -14 399 -14 q 107 53 154 -14 q 60 240 60 120 q 179 595 60 431 q 473 758 298 758 q 636 708 568 758 l 697 743 l 742 743 l 647 298 q 627 144 627 203 q 672 74 627 74 q 772 110 711 74 l 798 69 q 602 -14 698 -14 q 493 102 493 -14 q 507 210 493 146 m 586 646 q 481 696 554 696 q 282 545 362 696 q 201 235 201 394 q 289 74 201 74 q 434 176 358 74 q 534 400 510 279 l 586 646 z "},"b":{"ha":781,"x_min":37,"x_max":721,"o":"m 144 36 l 82 -4 l 37 -4 l 221 859 q 233 932 233 916 q 136 997 233 997 l 125 997 l 138 1055 l 400 1055 l 334 743 q 283 559 319 676 l 290 559 q 545 758 393 758 q 674 694 627 758 q 721 507 721 631 q 602 150 721 314 q 307 -14 482 -14 q 144 36 208 -14 m 193 98 q 301 49 235 49 q 500 203 422 49 q 579 509 579 357 q 492 671 579 671 q 343 565 416 671 q 253 374 271 460 l 193 98 z "},"c":{"ha":676,"x_min":60,"x_max":676,"o":"m 557 174 q 571 139 571 165 q 506 35 571 83 q 330 -14 440 -14 q 134 63 209 -14 q 60 273 60 140 q 177 607 60 455 q 473 758 294 758 q 623 720 569 758 q 676 625 676 682 q 643 555 676 583 q 553 528 609 528 q 524 647 553 602 q 446 692 496 692 q 276 547 349 692 q 204 262 204 401 q 357 74 204 74 q 557 174 478 74 z "},"d":{"ha":804,"x_min":60,"x_max":808,"o":"m 507 210 l 498 210 q 239 -14 399 -14 q 107 53 154 -14 q 60 240 60 120 q 179 595 60 431 q 473 758 298 758 q 610 725 551 758 q 625 803 621 789 l 639 869 q 648 932 648 916 q 551 997 648 997 l 541 997 l 553 1055 l 808 1055 l 647 298 q 627 144 627 203 q 672 74 627 74 q 772 110 711 74 l 798 69 q 602 -14 698 -14 q 493 102 493 -14 q 507 210 493 146 m 586 646 q 481 696 554 696 q 282 545 362 696 q 201 235 201 394 q 289 74 201 74 q 434 176 358 74 q 534 400 510 279 l 586 646 z "},"e":{"ha":685,"x_min":60,"x_max":659,"o":"m 557 174 q 571 139 571 165 q 506 35 571 83 q 330 -14 440 -14 q 134 63 209 -14 q 60 273 60 140 q 177 607 60 455 q 473 758 294 758 q 610 716 562 758 q 659 599 659 674 q 542 403 659 486 q 256 319 425 319 l 232 319 q 207 321 220 319 q 204 262 204 302 q 357 74 204 74 q 557 174 475 74 m 220 385 l 233 385 q 436 444 356 385 q 515 599 515 504 q 435 692 515 692 q 309 607 368 692 q 220 385 251 523 z "},"f":{"ha":441,"x_min":-195,"x_max":676,"o":"m 488 665 l 332 665 l 187 -11 q 82 -256 151 -178 q -114 -334 13 -334 q -195 -322 -153 -334 l -182 -258 q -118 -268 -147 -268 q -12 -210 -51 -268 q 57 -12 26 -153 l 203 665 l 77 665 l 85 715 l 218 745 l 233 821 q 497 1069 282 1069 q 631 1041 586 1069 q 676 966 676 1013 q 561 876 676 876 q 490 1006 561 1006 q 411 964 439 1006 q 367 833 383 922 l 349 745 l 503 745 l 488 665 z "},"g":{"ha":772,"x_min":-49,"x_max":831,"o":"m 611 714 q 761 812 677 812 q 831 749 831 812 q 749 663 831 663 q 710 713 749 713 q 642 681 683 713 q 672 574 672 637 q 585 360 672 457 q 354 262 497 262 q 310 265 322 262 q 211 178 211 225 q 282 136 211 143 l 415 122 q 631 -60 631 99 q 533 -261 631 -189 q 254 -334 435 -334 q -49 -153 -49 -334 q 12 -25 -49 -78 q 178 47 73 27 q 111 143 111 80 q 139 216 111 186 q 243 285 166 245 q 146 449 146 330 q 234 662 146 566 q 468 758 323 758 q 611 714 557 758 m 370 329 q 497 408 449 329 q 546 581 546 487 q 450 694 546 694 q 321 615 369 694 q 273 443 273 535 q 370 329 273 329 m 380 4 l 245 17 q 185 3 235 18 q 100 -50 136 -11 q 64 -144 64 -88 q 260 -265 64 -265 q 446 -220 382 -265 q 510 -98 510 -175 q 380 4 510 -7 z "},"h":{"ha":832,"x_min":61,"x_max":808,"o":"m 319 570 q 576 757 435 757 q 725 603 725 757 q 700 450 725 559 l 664 286 q 646 140 646 203 q 694 74 646 74 q 783 106 734 74 l 808 65 q 639 -14 718 -14 q 547 24 581 -14 q 513 125 513 61 q 539 313 513 189 l 571 456 q 591 586 591 541 q 528 668 591 668 q 369 563 450 668 q 265 355 287 457 l 191 0 l 61 0 l 241 859 q 254 932 254 920 q 157 997 254 997 l 146 997 l 158 1055 l 414 1055 l 359 800 q 304 570 335 686 l 319 570 z "},"i":{"ha":422,"x_min":86,"x_max":403,"o":"m 311 884 q 233 960 233 884 q 256 1030 233 1004 q 317 1057 279 1057 q 395 981 395 1057 q 371 908 395 933 q 311 884 348 884 m 86 686 l 98 745 l 347 745 l 253 298 q 232 144 232 199 q 278 74 232 74 q 378 110 318 74 l 403 69 q 215 -14 307 -14 q 132 24 163 -14 q 100 118 100 61 q 131 336 100 180 l 184 591 q 189 628 189 614 q 104 686 189 686 l 86 686 z "},"j":{"ha":404,"x_min":-195,"x_max":396,"o":"m 313 884 q 235 960 235 884 q 257 1030 235 1004 q 318 1057 280 1057 q 396 981 396 1057 q 373 908 396 933 q 313 884 349 884 m -195 -322 l -182 -258 q -118 -268 -147 -268 q -8 -206 -48 -268 q 58 -11 31 -144 l 186 591 q 191 628 191 614 q 106 686 191 686 l 87 686 l 100 745 l 349 745 l 189 -11 q 84 -255 154 -176 q -114 -334 14 -334 q -195 -322 -153 -334 z "},"k":{"ha":790,"x_min":61,"x_max":831,"o":"m 471 533 q 573 664 573 622 q 511 685 573 685 l 524 743 l 831 743 l 818 685 q 595 555 737 685 l 469 440 l 596 165 q 737 49 650 49 l 725 -9 q 555 17 610 -9 q 464 134 501 44 l 374 355 l 248 275 l 191 0 l 61 0 l 241 859 q 254 932 254 920 q 157 997 254 997 l 146 997 l 158 1055 l 414 1055 l 359 800 q 252 343 285 450 l 471 533 z "},"l":{"ha":422,"x_min":102,"x_max":415,"o":"m 140 997 l 153 1055 l 415 1055 l 254 298 q 233 144 233 199 q 279 74 233 74 q 379 110 319 74 l 404 69 q 216 -14 308 -14 q 134 23 166 -14 q 102 118 102 60 q 132 336 102 184 l 245 869 q 254 932 254 911 q 157 997 254 997 l 140 997 z "},"m":{"ha":1244,"x_min":61,"x_max":1221,"o":"m 624 0 l 492 0 q 509 144 492 31 q 539 313 527 257 l 571 456 q 591 586 591 541 q 528 668 591 668 q 369 563 450 668 q 265 355 287 457 l 191 0 l 61 0 l 178 558 q 186 621 186 597 q 89 686 186 686 l 78 686 l 90 745 l 347 745 l 310 570 l 323 570 q 576 757 436 757 q 725 603 725 757 q 722 570 725 586 l 736 570 q 989 757 849 757 q 1137 603 1137 757 q 1112 450 1137 559 l 1076 286 q 1059 140 1059 205 q 1107 74 1059 74 q 1196 106 1147 74 l 1221 65 q 1051 -14 1133 -14 q 960 24 994 -14 q 925 125 925 61 q 951 313 925 189 l 975 421 q 1004 586 1004 555 q 940 668 1004 668 q 793 577 869 668 q 686 386 717 486 l 664 286 q 640 138 655 248 q 624 0 624 27 z "},"n":{"ha":832,"x_min":61,"x_max":808,"o":"m 191 0 l 61 0 l 178 558 q 186 621 186 597 q 89 686 186 686 l 78 686 l 90 745 l 347 745 l 310 570 l 323 570 q 576 757 436 757 q 725 603 725 757 q 700 450 725 559 l 664 286 q 646 140 646 203 q 694 74 646 74 q 783 106 734 74 l 808 65 q 639 -14 718 -14 q 547 24 581 -14 q 513 125 513 61 q 539 313 513 189 l 571 456 q 591 586 591 541 q 528 668 591 668 q 369 564 450 668 q 265 355 288 459 l 191 0 z "},"o":{"ha":798,"x_min":60,"x_max":737,"o":"m 473 758 q 667 684 596 758 q 737 471 737 610 q 624 136 737 286 q 326 -14 511 -14 q 130 62 201 -14 q 60 273 60 138 q 174 609 60 460 q 473 758 288 758 m 342 54 q 525 190 456 54 q 593 492 593 326 q 457 685 593 685 q 274 549 344 685 q 204 245 204 412 q 342 54 204 54 z "},"p":{"ha":802,"x_min":-9,"x_max":742,"o":"m 264 -275 l 252 -334 l -9 -334 l 175 547 q 187 621 187 606 q 90 686 187 686 l 79 686 l 92 745 l 338 745 l 304 559 l 311 559 q 566 758 412 758 q 696 694 650 758 q 742 507 742 629 q 626 154 742 321 q 328 -14 509 -14 q 192 18 248 -14 q 180 -49 186 -26 l 161 -134 q 149 -211 149 -191 q 245 -275 149 -275 l 264 -275 m 214 98 q 323 49 258 49 q 520 200 439 49 q 600 509 600 352 q 513 671 600 671 q 368 571 441 671 q 271 363 294 471 l 214 98 z "},"q":{"ha":778,"x_min":60,"x_max":746,"o":"m 498 210 q 239 -14 397 -14 q 107 53 155 -14 q 60 240 60 120 q 179 595 60 431 q 473 758 298 758 q 628 721 560 758 l 662 740 q 697 758 694 758 l 746 758 l 554 -147 q 546 -210 546 -186 q 642 -275 546 -275 l 653 -275 l 640 -334 l 387 -334 l 446 -56 q 507 210 451 -29 l 498 210 m 586 646 q 481 696 555 696 q 281 543 361 696 q 201 233 201 389 q 289 74 201 74 q 433 175 357 74 q 534 400 508 275 l 586 646 z "},"r":{"ha":650,"x_min":61,"x_max":657,"o":"m 542 557 q 486 667 542 667 q 350 540 422 667 q 243 253 277 413 l 191 0 l 61 0 l 178 558 q 186 621 186 597 q 75 686 186 686 l 64 686 l 77 745 l 322 745 l 293 545 l 307 545 q 417 713 363 669 q 543 758 471 758 q 657 663 657 758 q 542 557 657 557 z "},"s":{"ha":644,"x_min":35,"x_max":607,"o":"m 503 539 q 470 651 503 609 q 378 693 437 693 q 279 660 315 693 q 243 574 243 626 q 277 495 243 528 q 385 431 312 463 q 551 215 551 356 q 473 50 551 113 q 264 -14 394 -14 q 97 29 159 -14 q 35 143 35 71 q 59 211 35 188 q 122 235 84 235 q 164 101 122 149 q 281 53 205 53 q 431 182 431 53 q 399 266 431 231 q 290 335 367 300 q 156 433 191 382 q 122 550 122 484 q 196 699 122 641 q 390 757 271 757 q 550 719 492 757 q 607 625 607 681 q 503 539 607 539 z "},"t":{"ha":511,"x_min":96,"x_max":517,"o":"m 418 104 l 441 53 q 254 -14 348 -14 q 103 149 103 -14 q 117 265 103 201 l 201 665 l 96 665 l 109 721 q 321 916 244 721 l 385 916 l 349 745 l 517 745 l 500 665 l 332 665 l 248 269 q 231 150 231 189 q 304 74 231 74 q 418 104 361 74 z "},"u":{"ha":832,"x_min":79,"x_max":810,"o":"m 92 745 l 350 745 l 258 329 q 231 161 231 203 q 298 77 231 77 q 452 179 370 77 q 559 399 534 282 l 632 745 l 766 745 l 671 298 q 650 144 650 200 q 696 74 650 74 q 785 104 735 74 l 810 64 q 633 -14 722 -14 q 549 24 581 -14 q 517 118 517 61 q 524 200 517 154 l 513 200 q 378 32 437 76 q 244 -12 319 -12 q 96 142 96 -12 q 121 294 96 186 l 175 538 q 187 621 187 593 q 90 686 187 686 l 79 686 l 92 745 z "},"v":{"ha":747,"x_min":24,"x_max":701,"o":"m 134 612 q 37 686 122 686 l 24 686 l 35 745 l 243 745 l 307 334 q 339 87 332 176 l 343 87 q 523 320 447 187 q 599 534 599 454 q 575 612 599 583 q 513 640 551 640 q 540 721 513 690 q 607 751 567 751 q 701 623 701 751 q 605 327 701 496 q 355 1 509 158 l 231 -12 l 134 612 z "},"w":{"ha":1137,"x_min":52,"x_max":1109,"o":"m 167 -12 l 157 586 q 137 661 156 635 q 65 686 119 686 l 52 686 l 71 745 l 279 745 q 283 111 283 452 l 289 111 q 599 732 470 429 l 714 737 q 743 102 743 372 l 753 102 q 940 377 866 241 q 1014 593 1014 513 q 954 676 1014 656 q 1036 758 966 758 q 1109 654 1109 758 q 761 1 1109 454 l 624 -14 l 603 587 q 310 4 540 437 l 167 -12 z "},"x":{"ha":758,"x_min":-28,"x_max":783,"o":"m -28 0 l -12 58 l 5 58 q 72 76 43 58 q 150 154 100 93 l 328 370 l 237 586 q 194 668 211 650 q 138 686 176 686 l 119 686 l 131 745 l 315 745 l 421 464 l 606 745 l 783 745 l 761 686 l 743 686 q 675 667 703 686 q 599 586 648 647 l 453 399 l 549 158 q 590 77 573 96 q 648 58 608 58 l 667 58 l 656 0 l 469 0 l 357 306 l 149 0 l -28 0 z "},"y":{"ha":733,"x_min":-225,"x_max":690,"o":"m 111 612 q 78 670 99 653 q 16 686 57 686 l 1 686 l 12 745 l 215 745 l 323 370 q 382 118 374 195 l 386 118 q 574 579 574 404 q 505 654 574 654 q 532 729 505 701 q 596 757 559 757 q 690 640 690 757 q 503 169 690 473 q 203 -234 316 -134 q -94 -334 90 -334 q -225 -309 -168 -334 l -204 -239 q -96 -254 -155 -254 q 294 -1 103 -254 l 111 612 z "},"z":{"ha":710,"x_min":-1,"x_max":656,"o":"m 418 79 q 478 100 451 79 q 536 193 506 121 l 550 225 l 608 225 l 554 0 l -1 0 l 9 56 l 482 665 l 306 665 q 232 642 258 665 q 175 553 205 619 l 172 547 l 114 547 l 170 745 l 656 745 l 644 688 l 171 79 l 418 79 z "},"{":{"ha":595,"x_min":94,"x_max":550,"o":"m 458 -178 q 311 -125 364 -178 q 258 22 258 -73 l 258 264 q 94 411 258 406 l 94 469 q 258 615 258 473 l 258 857 q 458 1055 258 1055 l 550 1055 l 550 996 l 509 996 q 395 850 395 996 l 395 612 q 240 441 395 467 l 240 440 q 395 268 395 414 l 395 28 q 509 -118 395 -118 l 550 -118 l 550 -178 l 458 -178 z "},"|":{"ha":777,"x_min":357,"x_max":440,"o":"m 440 -334 l 357 -334 l 357 1055 l 440 1055 l 440 -334 z "},"}":{"ha":595,"x_min":87,"x_max":543,"o":"m 87 -118 l 129 -118 q 243 28 243 -118 l 243 268 q 397 440 243 414 l 397 441 q 243 612 243 467 l 243 850 q 129 996 243 996 l 87 996 l 87 1055 l 179 1055 q 379 857 379 1055 l 379 615 q 543 469 379 473 l 543 411 q 379 264 379 406 l 379 22 q 326 -125 379 -73 q 179 -178 273 -178 l 87 -178 l 87 -118 z "},"~":{"ha":779,"x_min":87,"x_max":713,"o":"m 170 374 l 87 374 q 262 616 106 616 q 431 525 326 616 q 545 456 503 456 q 602 498 583 456 q 629 616 620 540 l 713 616 q 538 374 686 374 q 376 461 472 374 q 257 534 296 534 q 197 495 216 534 q 170 374 177 455 z "}," ":{"ha":361,"x_min":0,"x_max":0,"o":""},"¡":{"ha":463,"x_min":16,"x_max":371,"o":"m 285 754 q 371 669 371 754 q 346 592 371 621 q 279 562 321 562 q 193 647 193 562 q 218 726 193 697 q 285 754 243 754 m 176 -249 l 16 -249 l 215 464 l 279 464 l 176 -249 z "},"¢":{"ha":777,"x_min":117,"x_max":733,"o":"m 336 123 q 174 216 231 141 q 117 407 117 290 q 222 725 117 576 q 497 890 327 873 l 519 991 l 589 991 l 567 889 q 689 845 646 882 q 733 758 733 809 q 700 689 733 716 q 610 661 666 661 q 550 811 610 774 l 422 207 q 614 307 537 211 q 628 272 628 297 q 568 171 628 218 q 404 119 509 123 l 379 0 l 310 0 l 336 123 m 355 216 l 484 822 q 326 665 390 805 q 261 396 261 524 q 355 216 261 251 z "},"£":{"ha":777,"x_min":-1,"x_max":778,"o":"m 359 468 q 364 395 364 438 q 189 131 364 234 l 191 125 q 297 150 248 150 q 418 123 338 150 q 526 97 498 97 q 665 160 604 97 l 703 114 q 467 -14 577 -14 q 338 18 422 -14 q 204 49 254 49 q 43 8 127 49 l 24 -1 l -1 54 l 47 82 q 248 382 248 196 q 237 468 248 416 l 83 468 l 98 538 l 227 538 q 208 677 208 623 q 300 918 208 831 q 547 1006 392 1006 q 715 968 652 1006 q 778 869 778 930 q 663 760 778 760 q 526 936 663 936 q 381 870 432 936 q 330 686 330 805 q 350 538 330 632 l 586 538 l 571 468 l 359 468 z "},"¤":{"ha":777,"x_min":100,"x_max":697,"o":"m 192 646 l 100 737 l 158 796 l 249 704 q 399 753 316 753 q 546 704 477 753 l 639 798 l 697 737 l 606 646 q 654 497 654 578 q 606 349 654 416 l 697 257 l 640 199 l 547 290 q 399 243 477 243 q 250 290 315 243 l 158 199 l 100 257 l 191 349 q 144 497 144 416 q 192 646 144 581 m 399 319 q 524 372 472 319 q 576 497 576 425 q 525 624 576 572 q 399 676 473 676 q 274 624 326 676 q 222 497 222 572 q 274 372 222 425 q 399 319 326 319 z "},"¥":{"ha":749,"x_min":82,"x_max":882,"o":"m 395 153 q 389 114 389 123 q 489 58 389 58 l 521 58 l 509 0 l 82 0 l 94 58 l 126 58 q 224 83 197 58 q 260 151 251 107 l 279 245 l 85 245 l 98 311 l 293 311 l 314 408 l 119 408 l 134 473 l 301 473 l 195 860 q 168 916 184 899 q 111 933 153 933 l 107 933 l 119 991 l 444 991 l 432 933 l 429 933 q 358 924 382 933 q 334 886 334 916 q 350 798 334 857 l 386 648 q 415 479 410 549 q 488 593 430 506 l 603 762 q 665 893 665 854 q 590 933 665 933 l 586 933 l 599 991 l 882 991 l 869 933 l 857 933 q 804 917 826 933 q 729 825 783 901 l 485 473 l 657 473 l 643 408 l 449 408 l 428 311 l 623 311 l 608 245 l 414 245 l 395 153 z "},"¦":{"ha":777,"x_min":357,"x_max":440,"o":"m 440 500 l 357 500 l 357 1055 l 440 1055 l 440 500 m 440 -334 l 357 -334 l 357 222 l 440 222 l 440 -334 z "},"§":{"ha":755,"x_min":28,"x_max":726,"o":"m 115 89 q 161 -42 115 7 q 285 -92 206 -92 q 422 -46 370 -92 q 475 72 475 -1 q 440 157 475 116 q 277 267 405 197 q 122 490 122 351 q 244 679 122 603 q 211 804 211 735 q 294 987 211 918 q 507 1055 378 1055 q 665 1015 604 1055 q 726 917 726 974 q 701 844 726 867 q 614 821 676 821 q 580 944 614 899 q 482 990 547 990 q 366 952 414 990 q 318 848 318 914 q 346 758 318 794 q 501 653 374 722 q 671 437 671 562 q 550 228 671 321 q 578 125 578 176 q 492 -80 578 1 q 264 -160 406 -160 q 93 -117 157 -160 q 28 -3 28 -74 q 53 65 28 41 q 115 89 77 89 m 275 640 q 220 542 220 600 q 254 454 220 490 q 380 366 288 417 q 515 272 463 320 q 567 378 567 328 q 424 539 567 461 q 275 640 326 593 z "},"¨":{"ha":802,"x_min":279,"x_max":688,"o":"m 349 878 q 279 947 279 878 q 354 1035 279 1035 q 424 965 424 1035 q 349 878 424 878 m 612 878 q 543 947 543 878 q 618 1035 543 1035 q 688 965 688 1035 q 612 878 688 878 z "},"©":{"ha":1174,"x_min":87,"x_max":1108,"o":"m 597 1007 q 958 857 807 1007 q 1108 496 1108 707 q 958 136 1108 286 q 597 -14 808 -14 q 237 136 386 -14 q 87 496 87 286 q 237 857 87 707 q 597 1007 387 1007 m 597 62 q 904 190 777 62 q 1032 496 1032 317 q 904 803 1032 675 q 597 930 777 930 q 291 802 418 930 q 164 496 164 674 q 291 190 164 318 q 597 62 418 62 m 793 342 q 812 298 812 328 q 756 221 812 255 q 604 187 699 187 q 399 269 473 187 q 326 497 326 350 q 406 722 326 640 q 624 804 485 804 q 764 777 713 804 q 814 705 814 750 q 787 658 814 676 q 720 640 761 640 q 621 746 720 746 q 440 497 440 746 q 487 312 440 377 q 623 248 534 248 q 793 342 738 248 z "},"ª":{"ha":546,"x_min":83,"x_max":576,"o":"m 389 675 l 383 675 q 205 530 311 530 q 115 571 147 530 q 83 684 83 612 q 164 895 83 796 q 368 994 245 994 q 479 965 435 994 l 522 985 l 553 985 l 488 728 q 473 639 473 671 q 501 597 473 597 q 561 619 525 597 l 576 593 q 456 530 513 530 q 379 600 379 530 q 389 675 379 639 m 427 916 q 366 943 407 943 q 250 858 296 943 q 204 686 204 773 q 252 596 204 596 q 330 654 288 596 q 390 778 372 712 l 427 916 z "},"«":{"ha":714,"x_min":85,"x_max":679,"o":"m 94 397 l 358 639 l 428 639 l 228 368 l 315 111 l 245 111 l 85 353 l 94 397 m 346 397 l 610 639 l 679 639 l 479 368 l 567 111 l 497 111 l 336 353 l 346 397 z "},"¬":{"ha":777,"x_min":102,"x_max":697,"o":"m 697 538 l 697 171 l 614 171 l 614 456 l 102 456 l 102 538 l 697 538 z "},"­":{"ha":431,"x_min":20,"x_max":403,"o":"m 20 326 l 41 431 l 403 431 l 380 326 l 20 326 z "},"®":{"ha":1174,"x_min":87,"x_max":1108,"o":"m 597 1007 q 958 857 807 1007 q 1108 496 1108 707 q 958 136 1108 286 q 597 -14 808 -14 q 237 136 386 -14 q 87 496 87 286 q 237 857 87 707 q 597 1007 387 1007 m 597 62 q 904 190 777 62 q 1032 496 1032 317 q 904 803 1032 675 q 597 930 777 930 q 291 802 418 930 q 164 496 164 674 q 291 190 164 318 q 597 62 418 62 m 335 243 l 353 243 q 421 292 421 243 l 421 699 q 353 747 421 747 l 335 747 l 335 796 l 585 796 q 823 631 823 796 q 697 478 823 519 l 821 279 q 848 250 834 257 q 899 243 862 243 l 899 196 l 751 196 l 599 454 l 525 454 l 525 292 q 593 243 525 243 l 612 243 l 612 196 l 335 196 l 335 243 m 525 507 l 583 507 q 684 534 653 507 q 714 629 714 562 q 683 716 714 691 q 579 742 652 742 l 525 742 l 525 507 z "},"¯":{"ha":637,"x_min":-7,"x_max":644,"o":"m 644 1055 l -7 1055 l -7 1137 l 644 1137 l 644 1055 z "},"°":{"ha":555,"x_min":117,"x_max":538,"o":"m 326 991 q 475 930 413 991 q 538 781 538 868 q 476 633 538 694 q 326 571 414 571 q 178 632 239 571 q 117 781 117 694 q 179 930 117 869 q 326 991 241 991 m 326 653 q 417 690 380 653 q 454 781 454 728 q 417 872 454 835 q 326 909 379 909 q 238 872 275 909 q 200 781 200 836 q 238 690 200 728 q 326 653 275 653 z "},"±":{"ha":777,"x_min":102,"x_max":697,"o":"m 440 456 l 440 199 l 357 199 l 357 456 l 102 456 l 102 538 l 357 538 l 357 794 l 440 794 l 440 538 l 697 538 l 697 456 l 440 456 m 697 0 l 102 0 l 102 82 l 697 82 l 697 0 z "},"²":{"ha":555,"x_min":28,"x_max":522,"o":"m 28 397 l 35 439 l 250 616 q 363 735 326 678 q 400 869 400 793 q 330 950 400 950 q 257 914 288 950 q 218 818 227 878 q 153 837 176 818 q 129 885 129 855 q 186 971 129 937 q 340 1006 243 1006 q 473 969 425 1006 q 522 873 522 932 q 480 751 522 808 q 330 608 437 694 l 164 476 l 355 476 q 429 533 408 476 l 440 562 l 488 562 l 449 397 l 28 397 z "},"³":{"ha":555,"x_min":54,"x_max":545,"o":"m 134 571 q 164 486 134 520 q 245 452 195 452 q 378 575 378 452 q 345 650 378 622 q 252 679 311 679 l 205 679 l 216 736 l 262 736 q 372 778 328 736 q 416 885 416 820 q 353 950 416 950 q 236 829 260 950 q 144 888 144 829 q 202 971 144 937 q 357 1006 259 1006 q 495 971 446 1006 q 545 879 545 937 q 367 715 545 751 l 366 708 q 505 581 505 690 q 432 439 505 490 q 236 389 359 389 q 101 418 148 389 q 54 496 54 447 q 134 571 54 571 z "},"´":{"ha":802,"x_min":340,"x_max":642,"o":"m 345 860 q 493 1064 424 951 l 642 1064 l 637 1050 q 396 842 531 926 l 340 842 l 345 860 z "},"µ":{"ha":839,"x_min":-3,"x_max":782,"o":"m 151 68 q 129 -100 129 -47 q 205 -212 129 -201 q 87 -334 193 -334 q -3 -233 -3 -334 q 39 -23 -3 -172 q 123 313 98 190 l 215 745 l 346 745 l 254 310 q 239 182 239 236 q 340 75 239 75 q 468 136 412 75 q 545 300 524 197 l 639 745 l 770 745 l 659 225 q 642 118 642 146 q 682 74 642 74 q 758 97 712 74 l 782 50 q 621 -14 690 -14 q 517 119 522 -14 l 510 119 q 309 -14 420 -14 q 151 68 194 -14 z "},"¶":{"ha":857,"x_min":66,"x_max":811,"o":"m 595 985 l 463 985 l 463 -154 l 245 -154 l 245 -96 l 264 -96 q 354 -70 331 -96 q 378 4 378 -44 l 378 536 l 279 536 q 66 808 66 536 q 282 1055 66 1055 l 811 1055 l 811 997 l 793 997 q 703 971 726 997 q 679 897 679 946 l 679 4 q 703 -70 679 -45 q 793 -96 726 -96 l 811 -96 l 811 -154 l 595 -154 l 595 985 z "},"·":{"ha":397,"x_min":127,"x_max":305,"o":"m 214 399 q 127 484 127 399 q 152 561 127 532 q 219 590 177 590 q 305 505 305 590 q 280 427 305 456 q 214 399 256 399 z "},"¸":{"ha":463,"x_min":49,"x_max":374,"o":"m 262 -47 q 343 -87 313 -54 q 374 -163 374 -119 q 315 -289 374 -243 q 153 -334 256 -334 q 49 -318 99 -334 l 64 -248 q 157 -258 111 -258 q 260 -174 260 -258 q 171 -96 260 -104 l 224 12 l 289 12 l 262 -47 z "},"¹":{"ha":555,"x_min":92,"x_max":469,"o":"m 92 399 l 102 446 l 165 446 q 233 498 223 446 l 318 899 l 189 899 l 199 946 l 268 946 q 395 999 365 946 l 464 999 l 367 539 q 357 481 357 491 q 406 446 357 446 l 469 446 l 460 399 l 92 399 z "},"º":{"ha":551,"x_min":93,"x_max":567,"o":"m 285 529 q 144 575 195 529 q 93 703 93 622 q 172 904 93 812 q 378 996 252 996 q 516 950 466 996 q 567 825 567 905 q 489 622 567 714 q 285 529 411 529 m 368 940 q 258 859 302 940 q 215 688 215 779 q 285 585 215 585 q 394 665 352 585 q 436 842 436 745 q 368 940 436 940 z "},"»":{"ha":714,"x_min":33,"x_max":628,"o":"m 618 353 l 354 111 l 285 111 l 488 382 l 397 639 l 467 639 l 628 397 l 618 353 m 367 353 l 103 111 l 33 111 l 236 382 l 146 639 l 215 639 l 376 397 l 367 353 z "},"¼":{"ha":1166,"x_min":18,"x_max":1120,"o":"m 18 399 l 28 446 l 92 446 q 160 498 150 446 l 245 899 l 116 899 l 125 946 l 195 946 q 321 999 292 946 l 391 999 l 294 539 q 283 481 283 491 q 332 446 283 446 l 396 446 l 387 399 l 18 399 m 285 0 l 188 0 l 888 991 l 982 991 l 285 0 m 975 177 l 962 120 q 957 83 957 95 q 1005 47 957 47 l 1033 47 l 1023 1 l 718 1 l 728 47 l 766 47 q 834 100 824 47 l 851 177 l 605 177 l 612 224 l 952 601 l 1063 601 l 987 237 l 1120 237 l 1108 177 l 975 177 m 897 388 q 925 496 914 465 l 896 456 l 699 237 l 863 237 l 897 388 z "},"½":{"ha":1166,"x_min":18,"x_max":1120,"o":"m 18 399 l 28 446 l 92 446 q 160 498 150 446 l 245 899 l 116 899 l 125 946 l 195 946 q 321 999 292 946 l 391 999 l 294 539 q 283 481 283 491 q 332 446 283 446 l 396 446 l 387 399 l 18 399 m 271 0 l 174 0 l 873 991 l 968 991 l 271 0 m 625 1 l 632 42 l 848 220 q 960 339 923 281 q 998 473 998 396 q 928 553 998 553 q 855 517 886 553 q 816 421 824 481 q 750 440 774 421 q 726 488 726 458 q 784 575 726 541 q 938 609 841 609 q 1071 572 1022 609 q 1120 477 1120 536 q 1077 354 1120 411 q 928 212 1035 297 l 762 79 l 953 79 q 1027 136 1005 79 l 1038 165 l 1085 165 l 1046 1 l 625 1 z "},"¾":{"ha":1166,"x_min":26,"x_max":1135,"o":"m 105 571 q 136 486 105 520 q 217 452 166 452 q 349 575 349 452 q 316 650 349 622 q 223 679 283 679 l 177 679 l 188 736 l 234 736 q 344 778 300 736 q 388 885 388 820 q 324 950 388 950 q 208 829 232 950 q 116 888 116 829 q 173 971 116 937 q 328 1006 231 1006 q 467 971 417 1006 q 516 879 516 937 q 338 715 516 751 l 337 708 q 477 581 477 690 q 404 439 477 490 q 208 389 331 389 q 73 418 119 389 q 26 496 26 447 q 105 571 26 571 m 322 0 l 225 0 l 925 991 l 1019 991 l 322 0 m 989 177 l 977 120 q 971 83 971 95 q 1019 47 971 47 l 1047 47 l 1038 1 l 732 1 l 742 47 l 781 47 q 848 100 838 47 l 865 177 l 619 177 l 627 224 l 966 601 l 1078 601 l 1002 237 l 1135 237 l 1122 177 l 989 177 m 911 388 q 939 496 928 465 l 910 456 l 713 237 l 878 237 l 911 388 z "},"¿":{"ha":694,"x_min":1,"x_max":545,"o":"m 452 753 q 538 668 538 753 q 513 590 538 620 q 446 561 488 561 q 382 584 405 561 q 359 646 359 608 q 385 725 359 696 q 452 753 410 753 m 343 301 l 378 463 l 463 463 l 419 257 q 138 -45 138 154 q 174 -154 138 -113 q 272 -195 211 -195 q 444 3 416 -195 q 545 -81 545 3 q 467 -211 545 -157 q 264 -264 389 -264 q 1 -33 1 -264 q 343 301 1 178 z "},"À":{"ha":979,"x_min":-78,"x_max":913,"o":"m 277 332 l 193 186 q 167 109 167 140 q 244 58 167 58 l 277 58 l 265 0 l -78 0 l -66 58 l -40 58 q 22 78 -3 58 q 89 167 47 97 l 572 991 l 681 991 l 812 132 q 836 74 819 89 q 895 58 853 58 l 913 58 l 901 0 l 524 0 l 534 58 l 567 58 q 667 129 667 58 q 664 176 667 157 l 642 332 l 277 332 m 597 644 q 575 864 576 792 q 467 657 543 789 l 318 401 l 632 401 l 597 644 m 626 1071 q 447 1279 522 1173 l 451 1293 l 590 1293 q 683 1089 631 1188 l 679 1071 l 626 1071 z "},"Á":{"ha":979,"x_min":-78,"x_max":913,"o":"m 277 332 l 193 186 q 167 109 167 140 q 244 58 167 58 l 277 58 l 265 0 l -78 0 l -66 58 l -40 58 q 22 78 -3 58 q 89 167 47 97 l 572 991 l 681 991 l 812 132 q 836 74 819 89 q 895 58 853 58 l 913 58 l 901 0 l 524 0 l 534 58 l 567 58 q 667 129 667 58 q 664 176 667 157 l 642 332 l 277 332 m 597 644 q 575 864 576 792 q 467 657 543 789 l 318 401 l 632 401 l 597 644 m 568 1089 q 717 1293 648 1181 l 865 1293 l 861 1279 q 620 1071 755 1155 l 564 1071 l 568 1089 z "},"Â":{"ha":979,"x_min":-78,"x_max":913,"o":"m 277 332 l 193 186 q 167 109 167 140 q 244 58 167 58 l 277 58 l 265 0 l -78 0 l -66 58 l -40 58 q 22 78 -3 58 q 89 167 47 97 l 572 991 l 681 991 l 812 132 q 836 74 819 89 q 895 58 853 58 l 913 58 l 901 0 l 524 0 l 534 58 l 567 58 q 667 129 667 58 q 664 176 667 157 l 642 332 l 277 332 m 597 644 q 575 864 576 792 q 467 657 543 789 l 318 401 l 632 401 l 597 644 m 418 1089 q 602 1293 545 1213 l 734 1293 q 828 1089 753 1214 l 824 1071 l 775 1071 q 652 1196 711 1115 q 474 1071 550 1109 l 414 1071 l 418 1089 z "},"Ã":{"ha":979,"x_min":-78,"x_max":913,"o":"m 277 332 l 193 186 q 167 109 167 140 q 244 58 167 58 l 277 58 l 265 0 l -78 0 l -66 58 l -40 58 q 22 78 -3 58 q 89 167 47 97 l 572 991 l 681 991 l 812 132 q 836 74 819 89 q 895 58 853 58 l 913 58 l 901 0 l 524 0 l 534 58 l 567 58 q 667 129 667 58 q 664 176 667 157 l 642 332 l 277 332 m 597 644 q 575 864 576 792 q 467 657 543 789 l 318 401 l 632 401 l 597 644 m 833 1235 l 896 1235 q 715 1071 847 1071 q 601 1115 661 1071 q 515 1158 541 1158 q 432 1085 456 1158 l 370 1085 q 551 1249 418 1249 q 666 1205 607 1249 q 750 1161 725 1161 q 833 1235 810 1161 z "},"Ä":{"ha":979,"x_min":-78,"x_max":913,"o":"m 277 332 l 193 186 q 167 109 167 140 q 244 58 167 58 l 277 58 l 265 0 l -78 0 l -66 58 l -40 58 q 22 78 -3 58 q 89 167 47 97 l 572 991 l 681 991 l 812 132 q 836 74 819 89 q 895 58 853 58 l 913 58 l 901 0 l 524 0 l 534 58 l 567 58 q 667 129 667 58 q 664 176 667 157 l 642 332 l 277 332 m 597 644 q 575 864 576 792 q 467 657 543 789 l 318 401 l 632 401 l 597 644 m 513 1107 q 444 1177 444 1107 q 518 1264 444 1264 q 588 1194 588 1264 q 513 1107 588 1107 m 777 1107 q 707 1177 707 1107 q 782 1264 707 1264 q 852 1194 852 1264 q 777 1107 852 1107 z "},"Å":{"ha":979,"x_min":-78,"x_max":913,"o":"m 277 332 l 193 186 q 167 109 167 140 q 244 58 167 58 l 277 58 l 265 0 l -78 0 l -66 58 l -40 58 q 22 78 -3 58 q 89 167 47 97 l 572 991 l 681 991 l 812 132 q 836 74 819 89 q 895 58 853 58 l 913 58 l 901 0 l 524 0 l 534 58 l 567 58 q 667 129 667 58 q 664 176 667 157 l 642 332 l 277 332 m 597 644 q 575 864 576 792 q 467 657 543 789 l 318 401 l 632 401 l 597 644 m 620 924 q 500 964 547 924 q 453 1075 453 1004 q 500 1186 453 1145 q 620 1226 547 1226 q 740 1186 693 1226 q 787 1075 787 1145 q 740 964 787 1004 q 620 924 692 924 m 620 1158 q 528 1075 528 1158 q 620 991 528 991 q 711 1075 711 991 q 620 1158 711 1158 z "},"Æ":{"ha":1321,"x_min":-86,"x_max":1336,"o":"m -86 0 l -66 58 l -40 58 q 24 77 -3 58 q 103 167 52 96 l 656 925 l 538 933 l 550 991 l 1336 991 l 1292 749 l 1219 749 q 1226 829 1226 796 q 1128 922 1226 922 l 895 922 l 815 553 l 1150 553 l 1136 485 l 802 485 l 713 69 l 981 69 q 1137 183 1097 69 l 1160 243 l 1232 243 l 1171 0 l 427 0 l 437 58 l 456 58 q 553 82 526 58 q 590 151 581 106 l 628 332 l 314 332 l 210 186 q 172 104 172 134 q 243 58 172 58 l 275 58 l 256 0 l -86 0 m 753 922 l 726 922 q 550 657 661 808 l 366 401 l 643 401 l 753 922 z "},"Ç":{"ha":871,"x_min":72,"x_max":901,"o":"m 728 203 q 746 157 746 190 q 669 38 746 90 q 456 -14 591 -14 q 173 83 275 -14 q 72 358 72 180 q 236 813 72 621 q 644 1006 400 1006 q 833 964 766 1006 q 901 851 901 922 q 864 772 901 802 q 765 743 827 743 q 627 932 765 932 q 339 745 455 932 q 224 336 224 558 q 471 77 224 77 q 728 203 631 77 m 440 -47 q 521 -87 490 -54 q 551 -163 551 -119 q 493 -289 551 -243 q 330 -334 434 -334 q 227 -318 277 -334 l 241 -248 q 334 -258 289 -258 q 437 -174 437 -258 q 349 -96 437 -104 l 401 12 l 467 12 l 440 -47 z "},"È":{"ha":865,"x_min":-29,"x_max":880,"o":"m 257 69 l 525 69 q 682 183 642 69 l 704 243 l 777 243 l 715 0 l -29 0 l -18 58 l 0 58 q 98 83 71 58 q 135 151 125 108 l 279 833 q 283 867 283 852 q 264 916 283 899 q 186 933 245 933 l 168 933 l 180 991 l 880 991 l 836 749 l 764 749 l 768 791 q 771 829 771 824 q 672 922 771 922 l 439 922 l 359 553 l 694 553 l 681 485 l 346 485 l 257 69 m 576 1071 q 397 1279 471 1173 l 401 1293 l 540 1293 q 633 1089 581 1188 l 629 1071 l 576 1071 z "},"É":{"ha":865,"x_min":-29,"x_max":880,"o":"m 257 69 l 525 69 q 682 183 642 69 l 704 243 l 777 243 l 715 0 l -29 0 l -18 58 l 0 58 q 98 83 71 58 q 135 151 125 108 l 279 833 q 283 867 283 852 q 264 916 283 899 q 186 933 245 933 l 168 933 l 180 991 l 880 991 l 836 749 l 764 749 l 768 791 q 771 829 771 824 q 672 922 771 922 l 439 922 l 359 553 l 694 553 l 681 485 l 346 485 l 257 69 m 492 1089 q 640 1293 571 1181 l 789 1293 l 785 1279 q 543 1071 678 1155 l 488 1071 l 492 1089 z "},"Ê":{"ha":865,"x_min":-29,"x_max":880,"o":"m 257 69 l 525 69 q 682 183 642 69 l 704 243 l 777 243 l 715 0 l -29 0 l -18 58 l 0 58 q 98 83 71 58 q 135 151 125 108 l 279 833 q 283 867 283 852 q 264 916 283 899 q 186 933 245 933 l 168 933 l 180 991 l 880 991 l 836 749 l 764 749 l 768 791 q 771 829 771 824 q 672 922 771 922 l 439 922 l 359 553 l 694 553 l 681 485 l 346 485 l 257 69 m 374 1089 q 557 1293 500 1213 l 689 1293 q 783 1089 709 1214 l 779 1071 l 730 1071 q 607 1196 666 1115 q 429 1071 505 1109 l 370 1071 l 374 1089 z "},"Ë":{"ha":865,"x_min":-29,"x_max":880,"o":"m 257 69 l 525 69 q 682 183 642 69 l 704 243 l 777 243 l 715 0 l -29 0 l -18 58 l 0 58 q 98 83 71 58 q 135 151 125 108 l 279 833 q 283 867 283 852 q 264 916 283 899 q 186 933 245 933 l 168 933 l 180 991 l 880 991 l 836 749 l 764 749 l 768 791 q 771 829 771 824 q 672 922 771 922 l 439 922 l 359 553 l 694 553 l 681 485 l 346 485 l 257 69 m 436 1107 q 367 1177 367 1107 q 441 1264 367 1264 q 511 1194 511 1264 q 436 1107 511 1107 m 700 1107 q 631 1177 631 1107 q 705 1264 631 1264 q 775 1194 775 1264 q 700 1107 775 1107 z "},"Ì":{"ha":510,"x_min":-29,"x_max":585,"o":"m 585 991 l 572 933 l 554 933 q 458 908 488 933 q 419 833 429 883 l 275 153 q 269 114 269 123 q 370 58 269 58 l 387 58 l 375 0 l -29 0 l -18 58 l 0 58 q 136 158 115 58 l 281 839 q 286 878 286 865 q 186 933 286 933 l 168 933 l 180 991 l 585 991 m 412 1071 q 233 1279 307 1173 l 237 1293 l 376 1293 q 469 1089 416 1188 l 465 1071 l 412 1071 z "},"Í":{"ha":510,"x_min":-29,"x_max":620,"o":"m 585 991 l 572 933 l 554 933 q 458 908 488 933 q 419 833 429 883 l 275 153 q 269 114 269 123 q 370 58 269 58 l 387 58 l 375 0 l -29 0 l -18 58 l 0 58 q 136 158 115 58 l 281 839 q 286 878 286 865 q 186 933 286 933 l 168 933 l 180 991 l 585 991 m 323 1089 q 471 1293 402 1181 l 620 1293 l 616 1279 q 374 1071 509 1155 l 319 1071 l 323 1089 z "},"Î":{"ha":510,"x_min":-29,"x_max":600,"o":"m 585 991 l 572 933 l 554 933 q 458 908 488 933 q 419 833 429 883 l 275 153 q 269 114 269 123 q 370 58 269 58 l 387 58 l 375 0 l -29 0 l -18 58 l 0 58 q 136 158 115 58 l 281 839 q 286 878 286 865 q 186 933 286 933 l 168 933 l 180 991 l 585 991 m 190 1089 q 373 1293 316 1213 l 505 1293 q 600 1089 525 1214 l 595 1071 l 547 1071 q 423 1196 482 1115 q 245 1071 321 1109 l 186 1071 l 190 1089 z "},"Ï":{"ha":510,"x_min":-29,"x_max":613,"o":"m 585 991 l 572 933 l 554 933 q 458 908 488 933 q 419 833 429 883 l 275 153 q 269 114 269 123 q 370 58 269 58 l 387 58 l 375 0 l -29 0 l -18 58 l 0 58 q 136 158 115 58 l 281 839 q 286 878 286 865 q 186 933 286 933 l 168 933 l 180 991 l 585 991 m 274 1107 q 205 1177 205 1107 q 279 1264 205 1264 q 349 1194 349 1264 q 274 1107 349 1107 m 538 1107 q 469 1177 469 1107 q 543 1264 469 1264 q 613 1194 613 1264 q 538 1107 613 1107 z "},"Ð":{"ha":1038,"x_min":-29,"x_max":991,"o":"m -18 58 l 0 58 q 136 158 115 58 l 205 485 l 71 485 l 86 553 l 220 553 l 281 839 q 286 878 286 865 q 186 933 286 933 l 168 933 l 180 991 l 597 991 q 889 893 787 991 q 991 614 991 795 q 840 174 991 348 q 436 0 689 0 l -29 0 l -18 58 m 406 71 q 723 224 605 71 q 840 629 840 377 q 576 922 840 922 l 439 922 l 359 553 l 623 553 l 607 485 l 345 485 l 257 71 l 406 71 z "},"Ñ":{"ha":1060,"x_min":-28,"x_max":1149,"o":"m 900 839 q 905 878 905 865 q 806 933 905 933 l 787 933 l 800 991 l 1149 991 l 1136 933 l 1118 933 q 1023 908 1052 933 q 983 833 994 882 l 807 0 l 717 0 l 359 814 l 220 153 q 214 114 214 123 q 314 58 214 58 l 332 58 l 319 0 l -28 0 l -16 58 l 3 58 q 96 84 68 58 q 136 158 125 109 l 281 839 q 286 878 286 865 q 186 933 286 933 l 168 933 l 180 991 l 433 991 l 770 225 l 900 839 m 913 1235 l 976 1235 q 795 1071 927 1071 q 681 1115 741 1071 q 595 1158 621 1158 q 512 1085 536 1158 l 450 1085 q 631 1249 498 1249 q 746 1205 687 1249 q 830 1161 805 1161 q 913 1235 890 1161 z "},"Ò":{"ha":1031,"x_min":72,"x_max":987,"o":"m 628 1007 q 888 907 789 1007 q 987 625 987 806 q 833 186 987 387 q 436 -16 678 -16 q 172 89 271 -16 q 72 370 72 193 q 228 808 72 608 q 628 1007 384 1007 m 444 61 q 726 253 617 61 q 835 663 835 444 q 778 862 835 792 q 616 932 720 932 q 333 740 443 932 q 224 330 224 547 q 283 131 224 200 q 444 61 342 61 m 693 1071 q 514 1279 589 1173 l 518 1293 l 657 1293 q 750 1089 698 1188 l 746 1071 l 693 1071 z "},"Ó":{"ha":1031,"x_min":72,"x_max":987,"o":"m 628 1007 q 888 907 789 1007 q 987 625 987 806 q 833 186 987 387 q 436 -16 678 -16 q 172 89 271 -16 q 72 370 72 193 q 228 808 72 608 q 628 1007 384 1007 m 444 61 q 726 253 617 61 q 835 663 835 444 q 778 862 835 792 q 616 932 720 932 q 333 740 443 932 q 224 330 224 547 q 283 131 224 200 q 444 61 342 61 m 561 1089 q 709 1293 640 1181 l 858 1293 l 854 1279 q 612 1071 747 1155 l 557 1071 l 561 1089 z "},"Ô":{"ha":1031,"x_min":72,"x_max":987,"o":"m 628 1007 q 888 907 789 1007 q 987 625 987 806 q 833 186 987 387 q 436 -16 678 -16 q 172 89 271 -16 q 72 370 72 193 q 228 808 72 608 q 628 1007 384 1007 m 444 61 q 726 253 617 61 q 835 663 835 444 q 778 862 835 792 q 616 932 720 932 q 333 740 443 932 q 224 330 224 547 q 283 131 224 200 q 444 61 342 61 m 433 1089 q 616 1293 559 1213 l 749 1293 q 843 1089 768 1214 l 839 1071 l 790 1071 q 667 1196 726 1115 q 489 1071 565 1109 l 429 1071 l 433 1089 z "},"Õ":{"ha":1031,"x_min":72,"x_max":987,"o":"m 628 1007 q 888 907 789 1007 q 987 625 987 806 q 833 186 987 387 q 436 -16 678 -16 q 172 89 271 -16 q 72 370 72 193 q 228 808 72 608 q 628 1007 384 1007 m 444 61 q 726 253 617 61 q 835 663 835 444 q 778 862 835 792 q 616 932 720 932 q 333 740 443 932 q 224 330 224 547 q 283 131 224 200 q 444 61 342 61 m 863 1235 l 925 1235 q 745 1071 876 1071 q 630 1115 690 1071 q 545 1158 570 1158 q 461 1085 485 1158 l 399 1085 q 581 1249 448 1249 q 695 1205 636 1249 q 779 1161 754 1161 q 863 1235 840 1161 z "},"Ö":{"ha":1031,"x_min":72,"x_max":987,"o":"m 628 1007 q 888 907 789 1007 q 987 625 987 806 q 833 186 987 387 q 436 -16 678 -16 q 172 89 271 -16 q 72 370 72 193 q 228 808 72 608 q 628 1007 384 1007 m 444 61 q 726 253 617 61 q 835 663 835 444 q 778 862 835 792 q 616 932 720 932 q 333 740 443 932 q 224 330 224 547 q 283 131 224 200 q 444 61 342 61 m 529 1107 q 460 1177 460 1107 q 534 1264 460 1264 q 604 1194 604 1264 q 529 1107 604 1107 m 793 1107 q 724 1177 724 1107 q 798 1264 724 1264 q 868 1194 868 1264 q 793 1107 868 1107 z "},"×":{"ha":777,"x_min":98,"x_max":676,"o":"m 387 439 l 157 208 l 98 268 l 329 498 l 98 728 l 157 786 l 387 555 l 618 787 l 676 728 l 446 497 l 676 267 l 618 208 l 387 439 z "},"Ø":{"ha":1031,"x_min":72,"x_max":987,"o":"m 825 956 l 897 1048 l 978 1048 l 876 917 q 987 625 987 814 q 833 186 987 387 q 436 -16 678 -16 q 240 35 324 -16 l 175 -56 l 93 -56 l 186 74 q 72 370 72 180 q 228 808 72 608 q 628 1007 384 1007 q 825 956 740 1007 m 257 170 l 766 873 q 616 932 709 932 q 333 740 443 932 q 224 330 224 547 q 257 170 224 236 m 806 817 l 297 114 q 444 61 355 61 q 726 253 617 61 q 835 663 835 444 q 806 817 835 750 z "},"Ù":{"ha":1014,"x_min":134,"x_max":1105,"o":"m 139 933 l 151 991 l 555 991 l 545 933 l 526 933 q 431 908 461 933 q 390 833 401 884 l 286 343 q 269 214 269 263 q 469 69 269 69 q 648 119 582 69 q 739 286 713 170 l 857 839 q 863 878 863 864 q 762 933 863 933 l 745 933 l 757 991 l 1105 991 l 1095 933 l 1076 933 q 981 908 1011 933 q 940 833 951 884 l 823 283 q 449 -14 760 -14 q 215 49 296 -14 q 134 227 134 111 q 149 350 134 283 l 252 839 q 257 878 257 865 q 157 933 257 933 l 139 933 m 665 1071 q 486 1279 561 1173 l 490 1293 l 629 1293 q 722 1089 670 1188 l 718 1071 l 665 1071 z "},"Ú":{"ha":1014,"x_min":134,"x_max":1105,"o":"m 139 933 l 151 991 l 555 991 l 545 933 l 526 933 q 431 908 461 933 q 390 833 401 884 l 286 343 q 269 214 269 263 q 469 69 269 69 q 648 119 582 69 q 739 286 713 170 l 857 839 q 863 878 863 864 q 762 933 863 933 l 745 933 l 757 991 l 1105 991 l 1095 933 l 1076 933 q 981 908 1011 933 q 940 833 951 884 l 823 283 q 449 -14 760 -14 q 215 49 296 -14 q 134 227 134 111 q 149 350 134 283 l 252 839 q 257 878 257 865 q 157 933 257 933 l 139 933 m 586 1089 q 734 1293 665 1181 l 883 1293 l 879 1279 q 637 1071 772 1155 l 582 1071 l 586 1089 z "},"Û":{"ha":1014,"x_min":134,"x_max":1105,"o":"m 139 933 l 151 991 l 555 991 l 545 933 l 526 933 q 431 908 461 933 q 390 833 401 884 l 286 343 q 269 214 269 263 q 469 69 269 69 q 648 119 582 69 q 739 286 713 170 l 857 839 q 863 878 863 864 q 762 933 863 933 l 745 933 l 757 991 l 1105 991 l 1095 933 l 1076 933 q 981 908 1011 933 q 940 833 951 884 l 823 283 q 449 -14 760 -14 q 215 49 296 -14 q 134 227 134 111 q 149 350 134 283 l 252 839 q 257 878 257 865 q 157 933 257 933 l 139 933 m 461 1089 q 644 1293 587 1213 l 777 1293 q 871 1089 796 1214 l 867 1071 l 818 1071 q 694 1196 753 1115 q 517 1071 593 1109 l 457 1071 l 461 1089 z "},"Ü":{"ha":1014,"x_min":134,"x_max":1105,"o":"m 139 933 l 151 991 l 555 991 l 545 933 l 526 933 q 431 908 461 933 q 390 833 401 884 l 286 343 q 269 214 269 263 q 469 69 269 69 q 648 119 582 69 q 739 286 713 170 l 857 839 q 863 878 863 864 q 762 933 863 933 l 745 933 l 757 991 l 1105 991 l 1095 933 l 1076 933 q 981 908 1011 933 q 940 833 951 884 l 823 283 q 449 -14 760 -14 q 215 49 296 -14 q 134 227 134 111 q 149 350 134 283 l 252 839 q 257 878 257 865 q 157 933 257 933 l 139 933 m 525 1107 q 456 1177 456 1107 q 530 1264 456 1264 q 600 1194 600 1264 q 525 1107 600 1107 m 789 1107 q 720 1177 720 1107 q 794 1264 720 1264 q 864 1194 864 1264 q 789 1107 864 1107 z "},"Ý":{"ha":868,"x_min":107,"x_max":999,"o":"m 494 991 l 482 933 l 412 933 q 355 896 355 933 q 374 815 355 869 l 436 629 q 473 463 469 530 q 578 608 487 488 l 710 785 q 761 897 761 852 q 694 933 761 933 l 643 933 l 656 991 l 999 991 l 986 933 l 960 933 q 907 912 933 933 q 833 828 881 890 l 510 404 l 456 153 q 450 114 450 127 q 550 58 450 58 l 582 58 l 570 0 l 138 0 l 150 58 l 182 58 q 279 82 252 58 q 315 151 306 106 l 370 407 l 208 860 q 177 919 193 904 q 125 933 162 933 l 107 933 l 119 991 l 494 991 m 522 1089 q 671 1293 602 1181 l 819 1293 l 815 1279 q 574 1071 709 1155 l 518 1071 l 522 1089 z "},"Þ":{"ha":839,"x_min":-28,"x_max":815,"o":"m -28 0 l -16 58 l 3 58 q 97 83 68 58 q 136 158 126 109 l 281 839 q 286 878 286 865 q 186 933 286 933 l 168 933 l 180 991 l 599 991 l 586 933 l 554 933 q 456 907 484 933 q 419 833 429 881 l 416 819 l 498 819 q 732 749 649 819 q 815 551 815 680 q 708 303 815 393 q 390 214 602 214 l 288 214 l 275 153 q 269 114 269 122 q 370 58 269 58 l 401 58 l 389 0 l -28 0 m 301 279 l 375 279 q 668 550 668 279 q 465 753 668 753 l 401 753 l 301 279 z "},"ß":{"ha":871,"x_min":-189,"x_max":833,"o":"m -189 -322 l -176 -258 q -113 -268 -142 -268 q -5 -209 -43 -268 q 62 -12 34 -149 l 210 679 l 97 679 l 111 745 l 224 745 l 233 786 q 581 1063 297 1063 q 833 850 833 1063 q 814 682 833 776 l 694 682 q 542 568 542 682 q 572 489 542 521 q 657 425 602 457 q 787 216 787 349 q 719 46 787 106 q 519 -14 650 -14 q 365 24 421 -14 q 309 127 309 62 q 338 193 309 168 q 412 218 368 218 q 529 53 412 53 q 628 89 591 53 q 665 184 665 124 q 559 340 665 278 q 421 539 421 426 q 697 747 421 747 q 713 863 713 817 q 576 1000 713 1000 q 368 806 412 1000 l 193 -11 q 87 -257 157 -180 q -109 -334 18 -334 q -189 -322 -148 -334 z "},"à":{"ha":804,"x_min":60,"x_max":798,"o":"m 507 210 l 498 210 q 239 -14 399 -14 q 107 53 154 -14 q 60 240 60 120 q 179 595 60 431 q 473 758 298 758 q 636 708 568 758 l 697 743 l 742 743 l 647 298 q 627 144 627 203 q 672 74 627 74 q 772 110 711 74 l 798 69 q 602 -14 698 -14 q 493 102 493 -14 q 507 210 493 146 m 586 646 q 481 696 554 696 q 282 545 362 696 q 201 235 201 394 q 289 74 201 74 q 434 176 358 74 q 534 400 510 279 l 586 646 m 478 842 q 299 1050 374 943 l 303 1064 l 442 1064 q 535 860 483 959 l 531 842 l 478 842 z "},"á":{"ha":804,"x_min":60,"x_max":798,"o":"m 507 210 l 498 210 q 239 -14 399 -14 q 107 53 154 -14 q 60 240 60 120 q 179 595 60 431 q 473 758 298 758 q 636 708 568 758 l 697 743 l 742 743 l 647 298 q 627 144 627 203 q 672 74 627 74 q 772 110 711 74 l 798 69 q 602 -14 698 -14 q 493 102 493 -14 q 507 210 493 146 m 586 646 q 481 696 554 696 q 282 545 362 696 q 201 235 201 394 q 289 74 201 74 q 434 176 358 74 q 534 400 510 279 l 586 646 m 432 860 q 581 1064 511 951 l 729 1064 l 725 1050 q 484 842 618 926 l 428 842 l 432 860 z "},"â":{"ha":804,"x_min":60,"x_max":798,"o":"m 507 210 l 498 210 q 239 -14 399 -14 q 107 53 154 -14 q 60 240 60 120 q 179 595 60 431 q 473 758 298 758 q 636 708 568 758 l 697 743 l 742 743 l 647 298 q 627 144 627 203 q 672 74 627 74 q 772 110 711 74 l 798 69 q 602 -14 698 -14 q 493 102 493 -14 q 507 210 493 146 m 586 646 q 481 696 554 696 q 282 545 362 696 q 201 235 201 394 q 289 74 201 74 q 434 176 358 74 q 534 400 510 279 l 586 646 m 278 860 q 461 1064 404 984 l 593 1064 q 688 860 613 985 l 684 842 l 635 842 q 511 966 570 886 q 334 842 410 880 l 274 842 l 278 860 z "},"ã":{"ha":804,"x_min":60,"x_max":798,"o":"m 507 210 l 498 210 q 239 -14 399 -14 q 107 53 154 -14 q 60 240 60 120 q 179 595 60 431 q 473 758 298 758 q 636 708 568 758 l 697 743 l 742 743 l 647 298 q 627 144 627 203 q 672 74 627 74 q 772 110 711 74 l 798 69 q 602 -14 698 -14 q 493 102 493 -14 q 507 210 493 146 m 586 646 q 481 696 554 696 q 282 545 362 696 q 201 235 201 394 q 289 74 201 74 q 434 176 358 74 q 534 400 510 279 l 586 646 m 695 1006 l 758 1006 q 577 842 709 842 q 463 886 522 842 q 377 929 402 929 q 294 856 317 929 l 231 856 q 413 1019 280 1019 q 528 976 469 1019 q 612 932 587 932 q 695 1006 672 932 z "},"ä":{"ha":804,"x_min":60,"x_max":798,"o":"m 507 210 l 498 210 q 239 -14 399 -14 q 107 53 154 -14 q 60 240 60 120 q 179 595 60 431 q 473 758 298 758 q 636 708 568 758 l 697 743 l 742 743 l 647 298 q 627 144 627 203 q 672 74 627 74 q 772 110 711 74 l 798 69 q 602 -14 698 -14 q 493 102 493 -14 q 507 210 493 146 m 586 646 q 481 696 554 696 q 282 545 362 696 q 201 235 201 394 q 289 74 201 74 q 434 176 358 74 q 534 400 510 279 l 586 646 m 342 878 q 273 947 273 878 q 348 1035 273 1035 q 418 965 418 1035 q 342 878 418 878 m 606 878 q 537 947 537 878 q 612 1035 537 1035 q 682 965 682 1035 q 606 878 682 878 z "},"å":{"ha":804,"x_min":60,"x_max":798,"o":"m 507 210 l 498 210 q 239 -14 399 -14 q 107 53 154 -14 q 60 240 60 120 q 179 595 60 431 q 473 758 298 758 q 636 708 568 758 l 697 743 l 742 743 l 647 298 q 627 144 627 203 q 672 74 627 74 q 772 110 711 74 l 798 69 q 602 -14 698 -14 q 493 102 493 -14 q 507 210 493 146 m 586 646 q 481 696 554 696 q 282 545 362 696 q 201 235 201 394 q 289 74 201 74 q 434 176 358 74 q 534 400 510 279 l 586 646 m 500 828 q 380 868 427 828 q 333 979 333 908 q 380 1090 333 1050 q 500 1131 427 1131 q 620 1090 573 1131 q 667 979 667 1050 q 620 868 667 908 q 500 828 572 828 m 500 1063 q 408 979 408 1063 q 500 896 408 896 q 591 979 591 896 q 500 1063 591 1063 z "},"æ":{"ha":1129,"x_min":60,"x_max":1103,"o":"m 1002 174 q 1015 139 1015 164 q 950 34 1015 82 q 775 -14 884 -14 q 610 37 680 -14 q 518 186 541 88 q 269 -14 439 -14 q 117 60 174 -14 q 60 262 60 133 q 171 605 60 451 q 465 758 283 758 q 677 672 574 758 q 918 758 781 758 q 1055 716 1006 758 q 1103 599 1103 674 q 986 403 1103 486 q 700 319 869 319 l 676 319 q 652 321 664 319 q 648 262 648 304 q 802 74 648 74 q 1002 174 918 74 m 614 606 q 472 696 548 696 q 278 549 355 696 q 201 248 201 401 q 232 119 201 165 q 318 74 263 74 q 438 141 387 74 q 509 322 489 208 q 614 606 534 480 m 664 385 l 677 385 q 880 444 800 385 q 960 599 960 504 q 879 692 960 692 q 752 605 811 692 q 664 385 694 519 z "},"ç":{"ha":676,"x_min":60,"x_max":676,"o":"m 557 174 q 571 139 571 165 q 506 35 571 83 q 330 -14 440 -14 q 134 63 209 -14 q 60 273 60 140 q 177 607 60 455 q 473 758 294 758 q 623 720 569 758 q 676 625 676 682 q 643 555 676 583 q 553 528 609 528 q 524 647 553 602 q 446 692 496 692 q 276 547 349 692 q 204 262 204 401 q 357 74 204 74 q 557 174 478 74 m 330 -47 q 411 -87 380 -54 q 441 -163 441 -119 q 383 -289 441 -243 q 220 -334 324 -334 q 117 -318 167 -334 l 132 -248 q 224 -258 179 -258 q 328 -174 328 -258 q 239 -96 328 -104 l 292 12 l 357 12 l 330 -47 z "},"è":{"ha":685,"x_min":60,"x_max":659,"o":"m 557 174 q 571 139 571 165 q 506 35 571 83 q 330 -14 440 -14 q 134 63 209 -14 q 60 273 60 140 q 177 607 60 455 q 473 758 294 758 q 610 716 562 758 q 659 599 659 674 q 542 403 659 486 q 256 319 425 319 l 232 319 q 207 321 220 319 q 204 262 204 302 q 357 74 204 74 q 557 174 475 74 m 220 385 l 233 385 q 436 444 356 385 q 515 599 515 504 q 435 692 515 692 q 309 607 368 692 q 220 385 251 523 m 489 842 q 310 1050 385 943 l 314 1064 l 453 1064 q 546 860 494 959 l 542 842 l 489 842 z "},"é":{"ha":685,"x_min":60,"x_max":713,"o":"m 557 174 q 571 139 571 165 q 506 35 571 83 q 330 -14 440 -14 q 134 63 209 -14 q 60 273 60 140 q 177 607 60 455 q 473 758 294 758 q 610 716 562 758 q 659 599 659 674 q 542 403 659 486 q 256 319 425 319 l 232 319 q 207 321 220 319 q 204 262 204 302 q 357 74 204 74 q 557 174 475 74 m 220 385 l 233 385 q 436 444 356 385 q 515 599 515 504 q 435 692 515 692 q 309 607 368 692 q 220 385 251 523 m 416 860 q 565 1064 496 951 l 713 1064 l 709 1050 q 468 842 603 926 l 412 842 l 416 860 z "},"ê":{"ha":685,"x_min":60,"x_max":672,"o":"m 557 174 q 571 139 571 165 q 506 35 571 83 q 330 -14 440 -14 q 134 63 209 -14 q 60 273 60 140 q 177 607 60 455 q 473 758 294 758 q 610 716 562 758 q 659 599 659 674 q 542 403 659 486 q 256 319 425 319 l 232 319 q 207 321 220 319 q 204 262 204 302 q 357 74 204 74 q 557 174 475 74 m 220 385 l 233 385 q 436 444 356 385 q 515 599 515 504 q 435 692 515 692 q 309 607 368 692 q 220 385 251 523 m 262 860 q 446 1064 389 984 l 578 1064 q 672 860 597 985 l 668 842 l 619 842 q 496 966 555 886 q 318 842 394 880 l 258 842 l 262 860 z "},"ë":{"ha":685,"x_min":60,"x_max":684,"o":"m 557 174 q 571 139 571 165 q 506 35 571 83 q 330 -14 440 -14 q 134 63 209 -14 q 60 273 60 140 q 177 607 60 455 q 473 758 294 758 q 610 716 562 758 q 659 599 659 674 q 542 403 659 486 q 256 319 425 319 l 232 319 q 207 321 220 319 q 204 262 204 302 q 357 74 204 74 q 557 174 475 74 m 220 385 l 233 385 q 436 444 356 385 q 515 599 515 504 q 435 692 515 692 q 309 607 368 692 q 220 385 251 523 m 345 878 q 276 947 276 878 q 351 1035 276 1035 q 420 965 420 1035 q 345 878 420 878 m 609 878 q 540 947 540 878 q 614 1035 540 1035 q 684 965 684 1035 q 609 878 684 878 z "},"ì":{"ha":422,"x_min":86,"x_max":403,"o":"m 86 686 l 98 745 l 347 745 l 253 298 q 232 144 232 199 q 278 74 232 74 q 378 110 318 74 l 403 69 q 215 -14 307 -14 q 132 24 163 -14 q 100 118 100 61 q 131 336 100 180 l 184 591 q 189 628 189 614 q 104 686 189 686 l 86 686 m 309 842 q 130 1050 204 943 l 134 1064 l 273 1064 q 366 860 313 959 l 361 842 l 309 842 z "},"í":{"ha":422,"x_min":86,"x_max":523,"o":"m 86 686 l 98 745 l 347 745 l 253 298 q 232 144 232 199 q 278 74 232 74 q 378 110 318 74 l 403 69 q 215 -14 307 -14 q 132 24 163 -14 q 100 118 100 61 q 131 336 100 180 l 184 591 q 189 628 189 614 q 104 686 189 686 l 86 686 m 226 860 q 374 1064 305 951 l 523 1064 l 519 1050 q 277 842 412 926 l 222 842 l 226 860 z "},"î":{"ha":422,"x_min":50,"x_max":463,"o":"m 86 686 l 98 745 l 347 745 l 253 298 q 232 144 232 199 q 278 74 232 74 q 378 110 318 74 l 403 69 q 215 -14 307 -14 q 132 24 163 -14 q 100 118 100 61 q 131 336 100 180 l 184 591 q 189 628 189 614 q 104 686 189 686 l 86 686 m 54 860 q 237 1064 180 984 l 369 1064 q 463 860 389 985 l 459 842 l 410 842 q 287 966 346 886 q 109 842 185 880 l 50 842 l 54 860 z "},"ï":{"ha":422,"x_min":72,"x_max":480,"o":"m 86 686 l 98 745 l 347 745 l 253 298 q 232 144 232 199 q 278 74 232 74 q 378 110 318 74 l 403 69 q 215 -14 307 -14 q 132 24 163 -14 q 100 118 100 61 q 131 336 100 180 l 184 591 q 189 628 189 614 q 104 686 189 686 l 86 686 m 141 878 q 72 947 72 878 q 146 1035 72 1035 q 216 965 216 1035 q 141 878 216 878 m 405 878 q 336 947 336 878 q 410 1035 336 1035 q 480 965 480 1035 q 405 878 480 878 z "},"ð":{"ha":802,"x_min":60,"x_max":742,"o":"m 595 667 q 497 864 564 792 l 298 762 l 315 840 l 450 909 q 297 987 390 956 l 321 1057 q 541 954 446 1025 l 742 1059 l 724 979 l 587 909 q 697 732 656 841 q 737 503 737 623 q 628 122 737 267 q 326 -22 518 -22 q 132 50 204 -22 q 60 250 60 122 q 174 563 60 422 q 473 704 288 704 q 595 667 547 704 m 342 46 q 525 173 456 46 q 593 450 593 299 q 457 632 593 632 q 274 506 343 632 q 204 228 204 379 q 342 46 204 46 z "},"ñ":{"ha":832,"x_min":61,"x_max":808,"o":"m 191 0 l 61 0 l 178 558 q 186 621 186 597 q 89 686 186 686 l 78 686 l 90 745 l 347 745 l 310 570 l 323 570 q 576 757 436 757 q 725 603 725 757 q 700 450 725 559 l 664 286 q 646 140 646 203 q 694 74 646 74 q 783 106 734 74 l 808 65 q 639 -14 718 -14 q 547 24 581 -14 q 513 125 513 61 q 539 313 513 189 l 571 456 q 591 586 591 541 q 528 668 591 668 q 369 564 450 668 q 265 355 288 459 l 191 0 m 709 1006 l 772 1006 q 591 842 723 842 q 477 886 536 842 q 391 929 416 929 q 308 856 332 929 l 245 856 q 427 1019 294 1019 q 542 976 483 1019 q 626 932 601 932 q 709 1006 686 932 z "},"ò":{"ha":798,"x_min":60,"x_max":737,"o":"m 473 758 q 667 684 596 758 q 737 471 737 610 q 624 136 737 286 q 326 -14 511 -14 q 130 62 201 -14 q 60 273 60 138 q 174 609 60 460 q 473 758 288 758 m 342 54 q 525 190 456 54 q 593 492 593 326 q 457 685 593 685 q 274 549 344 685 q 204 245 204 412 q 342 54 204 54 m 498 842 q 319 1050 393 943 l 323 1064 l 462 1064 q 555 860 503 959 l 551 842 l 498 842 z "},"ó":{"ha":798,"x_min":60,"x_max":737,"o":"m 473 758 q 667 684 596 758 q 737 471 737 610 q 624 136 737 286 q 326 -14 511 -14 q 130 62 201 -14 q 60 273 60 138 q 174 609 60 460 q 473 758 288 758 m 342 54 q 525 190 456 54 q 593 492 593 326 q 457 685 593 685 q 274 549 344 685 q 204 245 204 412 q 342 54 204 54 m 427 860 q 575 1064 506 951 l 724 1064 l 720 1050 q 478 842 613 926 l 422 842 l 427 860 z "},"ô":{"ha":798,"x_min":60,"x_max":737,"o":"m 473 758 q 667 684 596 758 q 737 471 737 610 q 624 136 737 286 q 326 -14 511 -14 q 130 62 201 -14 q 60 273 60 138 q 174 609 60 460 q 473 758 288 758 m 342 54 q 525 190 456 54 q 593 492 593 326 q 457 685 593 685 q 274 549 344 685 q 204 245 204 412 q 342 54 204 54 m 271 860 q 454 1064 397 984 l 586 1064 q 680 860 606 985 l 676 842 l 627 842 q 504 966 563 886 q 326 842 402 880 l 267 842 l 271 860 z "},"õ":{"ha":798,"x_min":60,"x_max":756,"o":"m 473 758 q 667 684 596 758 q 737 471 737 610 q 624 136 737 286 q 326 -14 511 -14 q 130 62 201 -14 q 60 273 60 138 q 174 609 60 460 q 473 758 288 758 m 342 54 q 525 190 456 54 q 593 492 593 326 q 457 685 593 685 q 274 549 344 685 q 204 245 204 412 q 342 54 204 54 m 694 1006 l 756 1006 q 576 842 707 842 q 461 886 521 842 q 376 929 401 929 q 292 856 316 929 l 230 856 q 412 1019 279 1019 q 526 976 467 1019 q 610 932 585 932 q 694 1006 671 932 z "},"ö":{"ha":798,"x_min":60,"x_max":737,"o":"m 473 758 q 667 684 596 758 q 737 471 737 610 q 624 136 737 286 q 326 -14 511 -14 q 130 62 201 -14 q 60 273 60 138 q 174 609 60 460 q 473 758 288 758 m 342 54 q 525 190 456 54 q 593 492 593 326 q 457 685 593 685 q 274 549 344 685 q 204 245 204 412 q 342 54 204 54 m 351 878 q 282 947 282 878 q 357 1035 282 1035 q 427 965 427 1035 q 351 878 427 878 m 615 878 q 546 947 546 878 q 621 1035 546 1035 q 690 965 690 1035 q 615 878 690 878 z "},"÷":{"ha":777,"x_min":102,"x_max":697,"o":"m 400 836 q 471 760 471 836 q 400 684 471 684 q 329 760 329 684 q 400 836 329 836 m 697 456 l 102 456 l 102 538 l 697 538 l 697 456 m 400 310 q 471 233 471 310 q 400 157 471 157 q 329 233 329 157 q 400 310 329 310 z "},"ø":{"ha":802,"x_min":7,"x_max":798,"o":"m 639 708 l 717 800 l 798 800 l 685 663 q 737 471 737 591 q 624 134 737 284 q 326 -17 511 -17 q 161 32 231 -17 l 89 -56 l 7 -56 l 117 77 q 60 273 60 151 q 174 609 60 460 q 473 758 288 758 q 639 708 574 758 m 207 186 l 568 623 q 457 685 535 685 q 274 549 344 685 q 204 245 204 412 q 207 186 204 201 m 589 549 l 229 114 q 342 52 260 52 q 524 188 456 52 q 593 492 593 325 q 589 549 593 522 z "},"ù":{"ha":832,"x_min":79,"x_max":810,"o":"m 92 745 l 350 745 l 258 329 q 231 161 231 203 q 298 77 231 77 q 452 179 370 77 q 559 399 534 282 l 632 745 l 766 745 l 671 298 q 650 144 650 200 q 696 74 650 74 q 785 104 735 74 l 810 64 q 633 -14 722 -14 q 549 24 581 -14 q 517 118 517 61 q 524 200 517 154 l 513 200 q 378 32 437 76 q 244 -12 319 -12 q 96 142 96 -12 q 121 294 96 186 l 175 538 q 187 621 187 593 q 90 686 187 686 l 79 686 l 92 745 m 509 842 q 330 1050 404 943 l 334 1064 l 473 1064 q 566 860 513 959 l 562 842 l 509 842 z "},"ú":{"ha":832,"x_min":79,"x_max":810,"o":"m 92 745 l 350 745 l 258 329 q 231 161 231 203 q 298 77 231 77 q 452 179 370 77 q 559 399 534 282 l 632 745 l 766 745 l 671 298 q 650 144 650 200 q 696 74 650 74 q 785 104 735 74 l 810 64 q 633 -14 722 -14 q 549 24 581 -14 q 517 118 517 61 q 524 200 517 154 l 513 200 q 378 32 437 76 q 244 -12 319 -12 q 96 142 96 -12 q 121 294 96 186 l 175 538 q 187 621 187 593 q 90 686 187 686 l 79 686 l 92 745 m 439 860 q 587 1064 518 951 l 736 1064 l 732 1050 q 490 842 625 926 l 435 842 l 439 860 z "},"û":{"ha":832,"x_min":79,"x_max":810,"o":"m 92 745 l 350 745 l 258 329 q 231 161 231 203 q 298 77 231 77 q 452 179 370 77 q 559 399 534 282 l 632 745 l 766 745 l 671 298 q 650 144 650 200 q 696 74 650 74 q 785 104 735 74 l 810 64 q 633 -14 722 -14 q 549 24 581 -14 q 517 118 517 61 q 524 200 517 154 l 513 200 q 378 32 437 76 q 244 -12 319 -12 q 96 142 96 -12 q 121 294 96 186 l 175 538 q 187 621 187 593 q 90 686 187 686 l 79 686 l 92 745 m 294 860 q 477 1064 420 984 l 610 1064 q 704 860 629 985 l 700 842 l 651 842 q 528 966 587 886 q 350 842 426 880 l 290 842 l 294 860 z "},"ü":{"ha":832,"x_min":79,"x_max":810,"o":"m 92 745 l 350 745 l 258 329 q 231 161 231 203 q 298 77 231 77 q 452 179 370 77 q 559 399 534 282 l 632 745 l 766 745 l 671 298 q 650 144 650 200 q 696 74 650 74 q 785 104 735 74 l 810 64 q 633 -14 722 -14 q 549 24 581 -14 q 517 118 517 61 q 524 200 517 154 l 513 200 q 378 32 437 76 q 244 -12 319 -12 q 96 142 96 -12 q 121 294 96 186 l 175 538 q 187 621 187 593 q 90 686 187 686 l 79 686 l 92 745 m 387 878 q 318 947 318 878 q 393 1035 318 1035 q 463 965 463 1035 q 387 878 463 878 m 651 878 q 582 947 582 878 q 656 1035 582 1035 q 726 965 726 1035 q 651 878 726 878 z "},"ý":{"ha":733,"x_min":-225,"x_max":690,"o":"m 111 612 q 78 670 99 653 q 16 686 57 686 l 1 686 l 12 745 l 215 745 l 323 370 q 382 118 374 195 l 386 118 q 574 579 574 404 q 505 654 574 654 q 532 729 505 701 q 596 757 559 757 q 690 640 690 757 q 503 169 690 473 q 203 -234 316 -134 q -94 -334 90 -334 q -225 -309 -168 -334 l -204 -239 q -96 -254 -155 -254 q 294 -1 103 -254 l 111 612 m 363 860 q 511 1064 442 951 l 660 1064 l 656 1050 q 414 842 549 926 l 359 842 l 363 860 z "},"þ":{"ha":781,"x_min":-33,"x_max":721,"o":"m 168 18 q 158 -49 162 -35 l 137 -151 q 127 -215 127 -191 q 225 -275 127 -275 l 243 -275 l 231 -334 l -33 -334 l 220 859 q 232 932 232 916 q 135 997 232 997 l 123 997 l 136 1055 l 392 1055 l 321 722 q 279 559 309 669 l 288 559 q 542 758 388 758 q 674 694 627 758 q 721 507 721 629 q 604 154 721 321 q 306 -14 486 -14 q 168 18 224 -14 m 191 98 q 301 49 235 49 q 498 200 417 49 q 579 509 579 351 q 555 628 579 585 q 489 671 531 671 q 342 569 416 671 q 248 363 269 467 l 191 98 z "},"ÿ":{"ha":733,"x_min":-225,"x_max":690,"o":"m 111 612 q 78 670 99 653 q 16 686 57 686 l 1 686 l 12 745 l 215 745 l 323 370 q 382 118 374 195 l 386 118 q 574 579 574 404 q 505 654 574 654 q 532 729 505 701 q 596 757 559 757 q 690 640 690 757 q 503 169 690 473 q 203 -234 316 -134 q -94 -334 90 -334 q -225 -309 -168 -334 l -204 -239 q -96 -254 -155 -254 q 294 -1 103 -254 l 111 612 m 280 878 q 211 947 211 878 q 286 1035 211 1035 q 355 965 355 1035 q 280 878 355 878 m 544 878 q 475 947 475 878 q 549 1035 475 1035 q 619 965 619 1035 q 544 878 619 878 z "},"Ā":{"ha":979,"x_min":-78,"x_max":913,"o":"m 277 332 l 193 186 q 167 109 167 140 q 244 58 167 58 l 277 58 l 265 0 l -78 0 l -66 58 l -40 58 q 22 78 -3 58 q 89 167 47 97 l 572 991 l 681 991 l 812 132 q 836 74 819 89 q 895 58 853 58 l 913 58 l 901 0 l 524 0 l 534 58 l 567 58 q 667 129 667 58 q 664 176 667 157 l 642 332 l 277 332 m 597 644 q 575 864 576 792 q 467 657 543 789 l 318 401 l 632 401 l 597 644 m 834 1071 l 432 1071 l 450 1153 l 852 1153 l 834 1071 z "},"ā":{"ha":804,"x_min":60,"x_max":798,"o":"m 507 210 l 498 210 q 239 -14 399 -14 q 107 53 154 -14 q 60 240 60 120 q 179 595 60 431 q 473 758 298 758 q 636 708 568 758 l 697 743 l 742 743 l 647 298 q 627 144 627 203 q 672 74 627 74 q 772 110 711 74 l 798 69 q 602 -14 698 -14 q 493 102 493 -14 q 507 210 493 146 m 586 646 q 481 696 554 696 q 282 545 362 696 q 201 235 201 394 q 289 74 201 74 q 434 176 358 74 q 534 400 510 279 l 586 646 m 694 842 l 292 842 l 310 924 l 713 924 l 694 842 z "},"Ă":{"ha":979,"x_min":-78,"x_max":913,"o":"m 277 332 l 193 186 q 167 109 167 140 q 244 58 167 58 l 277 58 l 265 0 l -78 0 l -66 58 l -40 58 q 22 78 -3 58 q 89 167 47 97 l 572 991 l 681 991 l 812 132 q 836 74 819 89 q 895 58 853 58 l 913 58 l 901 0 l 524 0 l 534 58 l 567 58 q 667 129 667 58 q 664 176 667 157 l 642 332 l 277 332 m 597 644 q 575 864 576 792 q 467 657 543 789 l 318 401 l 632 401 l 597 644 m 459 1261 l 524 1261 q 644 1166 534 1166 q 794 1261 755 1166 l 858 1261 q 775 1121 836 1172 q 634 1071 715 1071 q 459 1261 471 1071 z "},"ă":{"ha":804,"x_min":60,"x_max":798,"o":"m 507 210 l 498 210 q 239 -14 399 -14 q 107 53 154 -14 q 60 240 60 120 q 179 595 60 431 q 473 758 298 758 q 636 708 568 758 l 697 743 l 742 743 l 647 298 q 627 144 627 203 q 672 74 627 74 q 772 110 711 74 l 798 69 q 602 -14 698 -14 q 493 102 493 -14 q 507 210 493 146 m 586 646 q 481 696 554 696 q 282 545 362 696 q 201 235 201 394 q 289 74 201 74 q 434 176 358 74 q 534 400 510 279 l 586 646 m 329 1032 l 393 1032 q 514 937 404 937 q 664 1032 625 937 l 728 1032 q 645 892 705 943 q 504 842 585 842 q 329 1032 340 842 z "},"Ą":{"ha":979,"x_min":-78,"x_max":913,"o":"m 277 332 l 193 186 q 167 109 167 140 q 244 58 167 58 l 277 58 l 265 0 l -78 0 l -66 58 l -40 58 q 22 78 -3 58 q 89 167 47 97 l 572 991 l 681 991 l 812 132 q 836 74 819 89 q 895 58 853 58 l 913 58 l 901 0 l 524 0 l 534 58 l 567 58 q 667 129 667 58 q 664 176 667 157 l 642 332 l 277 332 m 597 644 q 575 864 576 792 q 467 657 543 789 l 318 401 l 632 401 l 597 644 m 852 0 q 732 -71 778 -24 q 686 -172 686 -117 q 708 -227 686 -207 q 766 -248 730 -248 q 856 -236 801 -248 l 839 -311 q 728 -334 786 -334 q 566 -192 566 -334 q 620 -73 566 -123 q 772 0 673 -22 l 852 0 z "},"ą":{"ha":804,"x_min":60,"x_max":798,"o":"m 507 210 l 498 210 q 239 -14 399 -14 q 107 53 154 -14 q 60 240 60 120 q 179 595 60 431 q 473 758 298 758 q 636 708 568 758 l 697 743 l 742 743 l 647 298 q 627 144 627 203 q 672 74 627 74 q 772 110 711 74 l 798 69 q 602 -14 698 -14 q 493 102 493 -14 q 507 210 493 146 m 586 646 q 481 696 554 696 q 282 545 362 696 q 201 235 201 394 q 289 74 201 74 q 434 176 358 74 q 534 400 510 279 l 586 646 m 665 0 q 546 -71 591 -24 q 500 -172 500 -117 q 522 -227 500 -207 q 579 -248 543 -248 q 669 -236 614 -248 l 652 -311 q 542 -334 600 -334 q 379 -192 379 -334 q 433 -73 379 -123 q 586 0 487 -22 l 665 0 z "},"Ć":{"ha":871,"x_min":72,"x_max":908,"o":"m 728 203 q 746 157 746 190 q 669 38 746 90 q 456 -14 591 -14 q 173 83 275 -14 q 72 358 72 180 q 236 813 72 621 q 644 1006 400 1006 q 833 964 766 1006 q 901 851 901 922 q 864 772 901 802 q 765 743 827 743 q 627 932 765 932 q 339 745 455 932 q 224 336 224 558 q 471 77 224 77 q 728 203 631 77 m 611 1089 q 760 1293 690 1181 l 908 1293 l 904 1279 q 663 1071 798 1155 l 607 1071 l 611 1089 z "},"ć":{"ha":676,"x_min":60,"x_max":729,"o":"m 557 174 q 571 139 571 165 q 506 35 571 83 q 330 -14 440 -14 q 134 63 209 -14 q 60 273 60 140 q 177 607 60 455 q 473 758 294 758 q 623 720 569 758 q 676 625 676 682 q 643 555 676 583 q 553 528 609 528 q 524 647 553 602 q 446 692 496 692 q 276 547 349 692 q 204 262 204 401 q 357 74 204 74 q 557 174 478 74 m 432 860 q 581 1064 511 951 l 729 1064 l 725 1050 q 484 842 618 926 l 428 842 l 432 860 z "},"Ĉ":{"ha":871,"x_min":72,"x_max":901,"o":"m 728 203 q 746 157 746 190 q 669 38 746 90 q 456 -14 591 -14 q 173 83 275 -14 q 72 358 72 180 q 236 813 72 621 q 644 1006 400 1006 q 833 964 766 1006 q 901 851 901 922 q 864 772 901 802 q 765 743 827 743 q 627 932 765 932 q 339 745 455 932 q 224 336 224 558 q 471 77 224 77 q 728 203 631 77 m 454 1089 q 637 1293 581 1213 l 770 1293 q 864 1089 789 1214 l 860 1071 l 811 1071 q 688 1196 747 1115 q 510 1071 586 1109 l 450 1071 l 454 1089 z "},"ĉ":{"ha":676,"x_min":60,"x_max":703,"o":"m 557 174 q 571 139 571 165 q 506 35 571 83 q 330 -14 440 -14 q 134 63 209 -14 q 60 273 60 140 q 177 607 60 455 q 473 758 294 758 q 623 720 569 758 q 676 625 676 682 q 643 555 676 583 q 553 528 609 528 q 524 647 553 602 q 446 692 496 692 q 276 547 349 692 q 204 262 204 401 q 357 74 204 74 q 557 174 478 74 m 293 860 q 476 1064 419 984 l 608 1064 q 703 860 628 985 l 699 842 l 650 842 q 526 966 585 886 q 349 842 425 880 l 289 842 l 293 860 z "},"Ċ":{"ha":871,"x_min":72,"x_max":901,"o":"m 728 203 q 746 157 746 190 q 669 38 746 90 q 456 -14 591 -14 q 173 83 275 -14 q 72 358 72 180 q 236 813 72 621 q 644 1006 400 1006 q 833 964 766 1006 q 901 851 901 922 q 864 772 901 802 q 765 743 827 743 q 627 932 765 932 q 339 745 455 932 q 224 336 224 558 q 471 77 224 77 q 728 203 631 77 m 699 1113 q 621 1189 621 1113 q 643 1260 621 1233 q 704 1286 666 1286 q 782 1210 782 1286 q 759 1138 782 1162 q 699 1113 735 1113 z "},"ċ":{"ha":676,"x_min":60,"x_max":676,"o":"m 557 174 q 571 139 571 165 q 506 35 571 83 q 330 -14 440 -14 q 134 63 209 -14 q 60 273 60 140 q 177 607 60 455 q 473 758 294 758 q 623 720 569 758 q 676 625 676 682 q 643 555 676 583 q 553 528 609 528 q 524 647 553 602 q 446 692 496 692 q 276 547 349 692 q 204 262 204 401 q 357 74 204 74 q 557 174 478 74 m 517 884 q 439 960 439 884 q 461 1030 439 1004 q 522 1057 484 1057 q 600 981 600 1057 q 577 908 600 933 q 517 884 553 884 z "},"Č":{"ha":871,"x_min":72,"x_max":928,"o":"m 728 203 q 746 157 746 190 q 669 38 746 90 q 456 -14 591 -14 q 173 83 275 -14 q 72 358 72 180 q 236 813 72 621 q 644 1006 400 1006 q 833 964 766 1006 q 901 851 901 922 q 864 772 901 802 q 765 743 827 743 q 627 932 765 932 q 339 745 455 932 q 224 336 224 558 q 471 77 224 77 q 728 203 631 77 m 923 1275 q 740 1071 819 1173 l 608 1071 q 513 1275 574 1174 l 517 1293 l 568 1293 q 686 1166 632 1242 q 869 1293 773 1241 l 928 1293 l 923 1275 z "},"č":{"ha":676,"x_min":60,"x_max":730,"o":"m 557 174 q 571 139 571 165 q 506 35 571 83 q 330 -14 440 -14 q 134 63 209 -14 q 60 273 60 140 q 177 607 60 455 q 473 758 294 758 q 623 720 569 758 q 676 625 676 682 q 643 555 676 583 q 553 528 609 528 q 524 647 553 602 q 446 692 496 692 q 276 547 349 692 q 204 262 204 401 q 357 74 204 74 q 557 174 478 74 m 726 1046 q 543 842 622 944 l 411 842 q 316 1046 377 945 l 320 1064 l 370 1064 q 488 937 435 1013 q 672 1064 576 1012 l 730 1064 l 726 1046 z "},"Ď":{"ha":1007,"x_min":-29,"x_max":964,"o":"m -18 58 l 0 58 q 136 158 115 58 l 281 839 q 286 878 286 865 q 186 933 286 933 l 168 933 l 180 991 l 570 991 q 861 893 759 991 q 964 614 964 795 q 812 174 964 348 q 408 0 661 0 l -29 0 l -18 58 m 378 71 q 695 224 578 71 q 812 629 812 378 q 549 922 812 922 l 439 922 l 257 71 l 378 71 m 825 1275 q 642 1071 721 1173 l 510 1071 q 415 1275 476 1174 l 419 1293 l 469 1293 q 587 1166 534 1242 q 771 1293 675 1241 l 829 1293 l 825 1275 z "},"ď":{"ha":804,"x_min":60,"x_max":1029,"o":"m 507 210 l 498 210 q 239 -14 399 -14 q 107 53 154 -14 q 60 240 60 120 q 179 595 60 431 q 473 758 298 758 q 610 725 551 758 q 625 803 621 789 l 639 869 q 648 932 648 916 q 551 997 648 997 l 541 997 l 553 1055 l 808 1055 l 647 298 q 627 144 627 203 q 672 74 627 74 q 772 110 711 74 l 798 69 q 602 -14 698 -14 q 493 102 493 -14 q 507 210 493 146 m 586 646 q 481 696 554 696 q 282 545 362 696 q 201 235 201 394 q 289 74 201 74 q 434 176 358 74 q 534 400 510 279 l 586 646 m 827 851 l 909 1055 l 1029 1055 l 1027 1042 q 871 833 964 943 l 824 833 l 827 851 z "},"Đ":{"ha":1038,"x_min":-29,"x_max":991,"o":"m -18 58 l 0 58 q 136 158 115 58 l 205 485 l 71 485 l 86 553 l 220 553 l 281 839 q 286 878 286 865 q 186 933 286 933 l 168 933 l 180 991 l 597 991 q 889 893 787 991 q 991 614 991 795 q 840 174 991 348 q 436 0 689 0 l -29 0 l -18 58 m 406 71 q 723 224 605 71 q 840 629 840 377 q 576 922 840 922 l 439 922 l 359 553 l 623 553 l 607 485 l 345 485 l 257 71 l 406 71 z "},"đ":{"ha":802,"x_min":60,"x_max":885,"o":"m 490 129 l 484 129 q 382 14 430 41 q 269 -14 335 -14 q 116 58 173 -14 q 60 253 60 130 q 170 582 60 433 q 458 730 279 730 q 589 699 528 730 q 594 724 591 710 l 600 751 q 610 798 604 771 l 615 823 l 378 823 l 390 889 l 629 889 l 632 903 q 635 932 635 919 q 538 997 635 997 l 526 997 l 539 1055 l 794 1055 l 758 889 l 885 889 l 872 823 l 745 823 l 633 298 q 612 144 612 199 q 659 74 612 74 q 758 110 703 74 l 783 69 q 596 -14 687 -14 q 490 129 497 -14 m 571 624 q 465 668 532 668 q 276 525 351 668 q 201 239 201 382 q 318 74 201 74 q 435 133 387 74 q 501 282 483 191 l 571 624 z "},"Ē":{"ha":865,"x_min":-29,"x_max":880,"o":"m 257 69 l 525 69 q 682 183 642 69 l 704 243 l 777 243 l 715 0 l -29 0 l -18 58 l 0 58 q 98 83 71 58 q 135 151 125 108 l 279 833 q 283 867 283 852 q 264 916 283 899 q 186 933 245 933 l 168 933 l 180 991 l 880 991 l 836 749 l 764 749 l 768 791 q 771 829 771 824 q 672 922 771 922 l 439 922 l 359 553 l 694 553 l 681 485 l 346 485 l 257 69 m 768 1071 l 366 1071 l 383 1153 l 786 1153 l 768 1071 z "},"ē":{"ha":685,"x_min":60,"x_max":700,"o":"m 557 174 q 571 139 571 165 q 506 35 571 83 q 330 -14 440 -14 q 134 63 209 -14 q 60 273 60 140 q 177 607 60 455 q 473 758 294 758 q 610 716 562 758 q 659 599 659 674 q 542 403 659 486 q 256 319 425 319 l 232 319 q 207 321 220 319 q 204 262 204 302 q 357 74 204 74 q 557 174 475 74 m 220 385 l 233 385 q 436 444 356 385 q 515 599 515 504 q 435 692 515 692 q 309 607 368 692 q 220 385 251 523 m 682 842 l 279 842 l 297 924 l 700 924 l 682 842 z "},"Ĕ":{"ha":865,"x_min":-29,"x_max":880,"o":"m 257 69 l 525 69 q 682 183 642 69 l 704 243 l 777 243 l 715 0 l -29 0 l -18 58 l 0 58 q 98 83 71 58 q 135 151 125 108 l 279 833 q 283 867 283 852 q 264 916 283 899 q 186 933 245 933 l 168 933 l 180 991 l 880 991 l 836 749 l 764 749 l 768 791 q 771 829 771 824 q 672 922 771 922 l 439 922 l 359 553 l 694 553 l 681 485 l 346 485 l 257 69 m 383 1261 l 448 1261 q 568 1166 458 1166 q 718 1261 679 1166 l 782 1261 q 700 1121 760 1172 q 558 1071 640 1071 q 383 1261 395 1071 z "},"ĕ":{"ha":685,"x_min":60,"x_max":693,"o":"m 557 174 q 571 139 571 165 q 506 35 571 83 q 330 -14 440 -14 q 134 63 209 -14 q 60 273 60 140 q 177 607 60 455 q 473 758 294 758 q 610 716 562 758 q 659 599 659 674 q 542 403 659 486 q 256 319 425 319 l 232 319 q 207 321 220 319 q 204 262 204 302 q 357 74 204 74 q 557 174 475 74 m 220 385 l 233 385 q 436 444 356 385 q 515 599 515 504 q 435 692 515 692 q 309 607 368 692 q 220 385 251 523 m 294 1032 l 359 1032 q 479 937 370 937 q 629 1032 590 937 l 693 1032 q 611 892 671 943 q 469 842 551 842 q 294 1032 306 842 z "},"Ė":{"ha":865,"x_min":-29,"x_max":880,"o":"m 257 69 l 525 69 q 682 183 642 69 l 704 243 l 777 243 l 715 0 l -29 0 l -18 58 l 0 58 q 98 83 71 58 q 135 151 125 108 l 279 833 q 283 867 283 852 q 264 916 283 899 q 186 933 245 933 l 168 933 l 180 991 l 880 991 l 836 749 l 764 749 l 768 791 q 771 829 771 824 q 672 922 771 922 l 439 922 l 359 553 l 694 553 l 681 485 l 346 485 l 257 69 m 571 1093 q 493 1169 493 1093 q 516 1240 493 1213 q 576 1267 538 1267 q 654 1190 654 1267 q 631 1118 654 1143 q 571 1093 608 1093 z "},"ė":{"ha":685,"x_min":60,"x_max":659,"o":"m 557 174 q 571 139 571 165 q 506 35 571 83 q 330 -14 440 -14 q 134 63 209 -14 q 60 273 60 140 q 177 607 60 455 q 473 758 294 758 q 610 716 562 758 q 659 599 659 674 q 542 403 659 486 q 256 319 425 319 l 232 319 q 207 321 220 319 q 204 262 204 302 q 357 74 204 74 q 557 174 475 74 m 220 385 l 233 385 q 436 444 356 385 q 515 599 515 504 q 435 692 515 692 q 309 607 368 692 q 220 385 251 523 m 490 884 q 412 960 412 884 q 435 1030 412 1004 q 496 1057 458 1057 q 574 981 574 1057 q 550 908 574 933 q 490 884 527 884 z "},"Ę":{"ha":865,"x_min":-29,"x_max":880,"o":"m 257 69 l 525 69 q 682 183 642 69 l 704 243 l 777 243 l 715 0 l -29 0 l -18 58 l 0 58 q 98 83 71 58 q 135 151 125 108 l 279 833 q 283 867 283 852 q 264 916 283 899 q 186 933 245 933 l 168 933 l 180 991 l 880 991 l 836 749 l 764 749 l 768 791 q 771 829 771 824 q 672 922 771 922 l 439 922 l 359 553 l 694 553 l 681 485 l 346 485 l 257 69 m 646 0 q 526 -71 572 -24 q 480 -172 480 -117 q 502 -227 480 -207 q 559 -248 524 -248 q 650 -236 595 -248 l 633 -311 q 522 -334 580 -334 q 359 -192 359 -334 q 413 -73 359 -123 q 566 0 467 -22 l 646 0 z "},"ę":{"ha":685,"x_min":60,"x_max":659,"o":"m 557 174 q 571 139 571 165 q 506 35 571 83 q 330 -14 440 -14 q 134 63 209 -14 q 60 273 60 140 q 177 607 60 455 q 473 758 294 758 q 610 716 562 758 q 659 599 659 674 q 542 403 659 486 q 256 319 425 319 l 232 319 q 207 321 220 319 q 204 262 204 302 q 357 74 204 74 q 557 174 475 74 m 220 385 l 233 385 q 436 444 356 385 q 515 599 515 504 q 435 692 515 692 q 309 607 368 692 q 220 385 251 523 m 483 21 q 363 -50 409 -3 q 317 -151 317 -96 q 339 -206 317 -186 q 397 -227 361 -227 q 487 -215 432 -227 l 470 -290 q 359 -313 417 -313 q 197 -171 197 -313 q 251 -52 197 -102 q 404 21 304 -1 l 483 21 z "},"Ě":{"ha":865,"x_min":-29,"x_max":880,"o":"m 257 69 l 525 69 q 682 183 642 69 l 704 243 l 777 243 l 715 0 l -29 0 l -18 58 l 0 58 q 98 83 71 58 q 135 151 125 108 l 279 833 q 283 867 283 852 q 264 916 283 899 q 186 933 245 933 l 168 933 l 180 991 l 880 991 l 836 749 l 764 749 l 768 791 q 771 829 771 824 q 672 922 771 922 l 439 922 l 359 553 l 694 553 l 681 485 l 346 485 l 257 69 m 797 1275 q 614 1071 693 1173 l 482 1071 q 387 1275 448 1174 l 391 1293 l 441 1293 q 559 1166 506 1242 q 743 1293 647 1241 l 802 1293 l 797 1275 z "},"ě":{"ha":685,"x_min":60,"x_max":736,"o":"m 557 174 q 571 139 571 165 q 506 35 571 83 q 330 -14 440 -14 q 134 63 209 -14 q 60 273 60 140 q 177 607 60 455 q 473 758 294 758 q 610 716 562 758 q 659 599 659 674 q 542 403 659 486 q 256 319 425 319 l 232 319 q 207 321 220 319 q 204 262 204 302 q 357 74 204 74 q 557 174 475 74 m 220 385 l 233 385 q 436 444 356 385 q 515 599 515 504 q 435 692 515 692 q 309 607 368 692 q 220 385 251 523 m 731 1046 q 548 842 627 944 l 416 842 q 321 1046 382 945 l 326 1064 l 376 1064 q 494 937 440 1013 q 677 1064 581 1012 l 736 1064 l 731 1046 z "},"Ĝ":{"ha":991,"x_min":72,"x_max":970,"o":"m 970 458 l 957 400 l 951 400 q 870 375 896 400 q 833 300 844 351 l 781 50 q 467 -14 633 -14 q 174 84 277 -14 q 72 358 72 181 q 241 820 72 634 q 669 1006 411 1006 q 885 964 808 1006 q 962 856 962 922 q 921 775 962 804 q 815 746 880 746 q 770 884 815 836 q 640 932 724 932 q 346 754 469 932 q 224 336 224 577 q 492 65 224 65 q 648 85 570 65 l 694 306 q 700 345 700 332 q 600 400 700 400 l 587 400 l 600 458 l 970 458 m 454 1089 q 637 1293 581 1213 l 770 1293 q 864 1089 789 1214 l 860 1071 l 811 1071 q 688 1196 747 1115 q 510 1071 586 1109 l 450 1071 l 454 1089 z "},"ĝ":{"ha":772,"x_min":-49,"x_max":831,"o":"m 611 714 q 761 812 677 812 q 831 749 831 812 q 749 663 831 663 q 710 713 749 713 q 642 681 683 713 q 672 574 672 637 q 585 360 672 457 q 354 262 497 262 q 310 265 322 262 q 211 178 211 225 q 282 136 211 143 l 415 122 q 631 -60 631 99 q 533 -261 631 -189 q 254 -334 435 -334 q -49 -153 -49 -334 q 12 -25 -49 -78 q 178 47 73 27 q 111 143 111 80 q 139 216 111 186 q 243 285 166 245 q 146 449 146 330 q 234 662 146 566 q 468 758 323 758 q 611 714 557 758 m 370 329 q 497 408 449 329 q 546 581 546 487 q 450 694 546 694 q 321 615 369 694 q 273 443 273 535 q 370 329 273 329 m 380 4 l 245 17 q 185 3 235 18 q 100 -50 136 -11 q 64 -144 64 -88 q 260 -265 64 -265 q 446 -220 382 -265 q 510 -98 510 -175 q 380 4 510 -7 m 261 860 q 444 1064 387 984 l 576 1064 q 671 860 596 985 l 667 842 l 618 842 q 494 966 553 886 q 317 842 393 880 l 257 842 l 261 860 z "},"Ğ":{"ha":991,"x_min":72,"x_max":970,"o":"m 970 458 l 957 400 l 951 400 q 870 375 896 400 q 833 300 844 351 l 781 50 q 467 -14 633 -14 q 174 84 277 -14 q 72 358 72 181 q 241 820 72 634 q 669 1006 411 1006 q 885 964 808 1006 q 962 856 962 922 q 921 775 962 804 q 815 746 880 746 q 770 884 815 836 q 640 932 724 932 q 346 754 469 932 q 224 336 224 577 q 492 65 224 65 q 648 85 570 65 l 694 306 q 700 345 700 332 q 600 400 700 400 l 587 400 l 600 458 l 970 458 m 476 1261 l 541 1261 q 661 1166 551 1166 q 811 1261 772 1166 l 875 1261 q 792 1121 852 1172 q 651 1071 732 1071 q 476 1261 488 1071 z "},"ğ":{"ha":772,"x_min":-49,"x_max":831,"o":"m 611 714 q 761 812 677 812 q 831 749 831 812 q 749 663 831 663 q 710 713 749 713 q 642 681 683 713 q 672 574 672 637 q 585 360 672 457 q 354 262 497 262 q 310 265 322 262 q 211 178 211 225 q 282 136 211 143 l 415 122 q 631 -60 631 99 q 533 -261 631 -189 q 254 -334 435 -334 q -49 -153 -49 -334 q 12 -25 -49 -78 q 178 47 73 27 q 111 143 111 80 q 139 216 111 186 q 243 285 166 245 q 146 449 146 330 q 234 662 146 566 q 468 758 323 758 q 611 714 557 758 m 370 329 q 497 408 449 329 q 546 581 546 487 q 450 694 546 694 q 321 615 369 694 q 273 443 273 535 q 370 329 273 329 m 380 4 l 245 17 q 185 3 235 18 q 100 -50 136 -11 q 64 -144 64 -88 q 260 -265 64 -265 q 446 -220 382 -265 q 510 -98 510 -175 q 380 4 510 -7 m 305 1032 l 370 1032 q 490 937 380 937 q 640 1032 601 937 l 704 1032 q 622 892 682 943 q 480 842 562 842 q 305 1032 317 842 z "},"Ġ":{"ha":991,"x_min":72,"x_max":970,"o":"m 970 458 l 957 400 l 951 400 q 870 375 896 400 q 833 300 844 351 l 781 50 q 467 -14 633 -14 q 174 84 277 -14 q 72 358 72 181 q 241 820 72 634 q 669 1006 411 1006 q 885 964 808 1006 q 962 856 962 922 q 921 775 962 804 q 815 746 880 746 q 770 884 815 836 q 640 932 724 932 q 346 754 469 932 q 224 336 224 577 q 492 65 224 65 q 648 85 570 65 l 694 306 q 700 345 700 332 q 600 400 700 400 l 587 400 l 600 458 l 970 458 m 696 1113 q 618 1189 618 1113 q 641 1260 618 1233 q 701 1286 663 1286 q 779 1210 779 1286 q 756 1138 779 1162 q 696 1113 732 1113 z "},"ġ":{"ha":772,"x_min":-49,"x_max":831,"o":"m 611 714 q 761 812 677 812 q 831 749 831 812 q 749 663 831 663 q 710 713 749 713 q 642 681 683 713 q 672 574 672 637 q 585 360 672 457 q 354 262 497 262 q 310 265 322 262 q 211 178 211 225 q 282 136 211 143 l 415 122 q 631 -60 631 99 q 533 -261 631 -189 q 254 -334 435 -334 q -49 -153 -49 -334 q 12 -25 -49 -78 q 178 47 73 27 q 111 143 111 80 q 139 216 111 186 q 243 285 166 245 q 146 449 146 330 q 234 662 146 566 q 468 758 323 758 q 611 714 557 758 m 370 329 q 497 408 449 329 q 546 581 546 487 q 450 694 546 694 q 321 615 369 694 q 273 443 273 535 q 370 329 273 329 m 380 4 l 245 17 q 185 3 235 18 q 100 -50 136 -11 q 64 -144 64 -88 q 260 -265 64 -265 q 446 -220 382 -265 q 510 -98 510 -175 q 380 4 510 -7 m 507 884 q 429 960 429 884 q 452 1030 429 1004 q 513 1057 475 1057 q 591 981 591 1057 q 567 908 591 933 q 507 884 544 884 z "},"Ģ":{"ha":991,"x_min":72,"x_max":970,"o":"m 970 458 l 957 400 l 951 400 q 870 375 896 400 q 833 300 844 351 l 781 50 q 467 -14 633 -14 q 174 84 277 -14 q 72 358 72 181 q 241 820 72 634 q 669 1006 411 1006 q 885 964 808 1006 q 962 856 962 922 q 921 775 962 804 q 815 746 880 746 q 770 884 815 836 q 640 932 724 932 q 346 754 469 932 q 224 336 224 577 q 492 65 224 65 q 648 85 570 65 l 694 306 q 700 345 700 332 q 600 400 700 400 l 587 400 l 600 458 l 970 458 m 323 -289 l 352 -223 q 406 -85 380 -155 l 526 -85 l 524 -98 q 368 -307 452 -211 l 321 -307 l 323 -289 z "},"ģ":{"ha":772,"x_min":-49,"x_max":831,"o":"m 611 714 q 761 812 677 812 q 831 749 831 812 q 749 663 831 663 q 710 713 749 713 q 642 681 683 713 q 672 574 672 637 q 585 360 672 457 q 354 262 497 262 q 310 265 322 262 q 211 178 211 225 q 282 136 211 143 l 415 122 q 631 -60 631 99 q 533 -261 631 -189 q 254 -334 435 -334 q -49 -153 -49 -334 q 12 -25 -49 -78 q 178 47 73 27 q 111 143 111 80 q 139 216 111 186 q 243 285 166 245 q 146 449 146 330 q 234 662 146 566 q 468 758 323 758 q 611 714 557 758 m 370 329 q 497 408 449 329 q 546 581 546 487 q 450 694 546 694 q 321 615 369 694 q 273 443 273 535 q 370 329 273 329 m 380 4 l 245 17 q 185 3 235 18 q 100 -50 136 -11 q 64 -144 64 -88 q 260 -265 64 -265 q 446 -220 382 -265 q 510 -98 510 -175 q 380 4 510 -7 m 626 1046 l 597 980 q 544 842 569 912 l 423 842 l 426 856 q 582 1064 488 955 l 629 1064 l 626 1046 z "},"Ĥ":{"ha":1101,"x_min":-29,"x_max":1177,"o":"m 562 0 l 574 58 l 591 58 q 688 83 658 58 q 728 158 718 108 l 796 484 l 345 484 l 275 153 q 269 114 269 123 q 370 58 269 58 l 387 58 l 375 0 l -29 0 l -18 58 l 0 58 q 96 84 67 58 q 136 158 125 109 l 281 839 q 286 878 286 865 q 186 933 286 933 l 168 933 l 180 991 l 585 991 l 572 933 l 554 933 q 458 908 488 933 q 419 833 429 883 l 359 553 l 811 553 l 872 839 q 878 878 878 865 q 778 933 878 933 l 760 933 l 772 991 l 1177 991 l 1164 933 l 1146 933 q 1050 908 1080 933 q 1011 833 1021 882 l 867 153 q 861 114 861 127 q 961 58 861 58 l 979 58 l 966 0 l 562 0 m 501 1089 q 684 1293 627 1213 l 817 1293 q 911 1089 836 1214 l 907 1071 l 858 1071 q 734 1196 793 1115 q 557 1071 633 1109 l 497 1071 l 501 1089 z "},"ĥ":{"ha":832,"x_min":61,"x_max":808,"o":"m 319 570 q 576 757 435 757 q 725 603 725 757 q 700 450 725 559 l 664 286 q 646 140 646 203 q 694 74 646 74 q 783 106 734 74 l 808 65 q 639 -14 718 -14 q 547 24 581 -14 q 513 125 513 61 q 539 313 513 189 l 571 456 q 591 586 591 541 q 528 668 591 668 q 369 563 450 668 q 265 355 287 457 l 191 0 l 61 0 l 241 859 q 254 932 254 920 q 157 997 254 997 l 146 997 l 158 1055 l 414 1055 l 359 800 q 304 570 335 686 l 319 570 m 349 1126 q 532 1331 475 1251 l 664 1331 q 758 1126 684 1251 l 754 1108 l 705 1108 q 582 1233 641 1152 q 404 1108 480 1147 l 345 1108 l 349 1126 z "},"Ħ":{"ha":1101,"x_min":-29,"x_max":1177,"o":"m 562 0 l 574 58 l 591 58 q 687 83 657 58 q 728 158 716 107 l 796 484 l 345 484 l 275 153 q 269 114 269 123 q 370 58 269 58 l 387 58 l 375 0 l -29 0 l -18 58 l 0 58 q 96 84 67 58 q 136 158 125 109 l 249 693 l 118 693 l 131 761 l 264 761 l 281 839 q 286 878 286 864 q 186 933 286 933 l 168 933 l 180 991 l 585 991 l 572 933 l 554 933 q 458 908 488 933 q 419 833 429 883 l 404 761 l 856 761 l 872 839 q 878 878 878 865 q 778 933 878 933 l 760 933 l 772 991 l 1177 991 l 1164 933 l 1146 933 q 1050 908 1080 933 q 1011 833 1021 882 l 996 761 l 1126 761 l 1114 693 l 981 693 l 867 153 q 861 114 861 127 q 961 58 861 58 l 979 58 l 966 0 l 562 0 m 811 553 l 840 693 l 389 693 l 359 553 l 811 553 z "},"ħ":{"ha":832,"x_min":61,"x_max":808,"o":"m 314 542 q 571 729 426 729 q 720 575 720 729 q 703 460 720 537 q 694 422 698 440 l 664 286 q 646 140 646 204 q 694 74 646 74 q 783 106 734 74 l 808 65 q 639 -14 718 -14 q 547 24 581 -14 q 513 125 513 61 q 539 313 513 189 l 566 429 q 586 558 586 513 q 522 640 586 640 q 363 535 445 640 q 260 328 281 429 l 191 0 l 61 0 l 233 823 l 109 823 l 121 889 l 248 889 q 254 932 254 920 q 157 997 254 997 l 146 997 l 158 1055 l 414 1055 l 378 889 l 615 889 l 603 823 l 364 823 l 359 800 q 298 542 325 632 l 314 542 z "},"Ĩ":{"ha":510,"x_min":-29,"x_max":677,"o":"m 585 991 l 572 933 l 554 933 q 458 908 488 933 q 419 833 429 883 l 275 153 q 269 114 269 123 q 370 58 269 58 l 387 58 l 375 0 l -29 0 l -18 58 l 0 58 q 136 158 115 58 l 281 839 q 286 878 286 865 q 186 933 286 933 l 168 933 l 180 991 l 585 991 m 614 1235 l 677 1235 q 496 1071 628 1071 q 382 1115 441 1071 q 296 1158 321 1158 q 213 1085 237 1158 l 151 1085 q 332 1249 199 1249 q 447 1205 388 1249 q 531 1161 506 1161 q 614 1235 591 1161 z "},"ĩ":{"ha":422,"x_min":23,"x_max":549,"o":"m 86 686 l 98 745 l 347 745 l 253 298 q 232 144 232 199 q 278 74 232 74 q 378 110 318 74 l 403 69 q 215 -14 307 -14 q 132 24 163 -14 q 100 118 100 61 q 131 336 100 180 l 184 591 q 189 628 189 614 q 104 686 189 686 l 86 686 m 487 1006 l 549 1006 q 369 842 500 842 q 254 886 314 842 q 169 929 194 929 q 85 856 109 929 l 23 856 q 205 1019 72 1019 q 319 976 260 1019 q 404 932 378 932 q 487 1006 464 932 z "},"Ī":{"ha":510,"x_min":-29,"x_max":614,"o":"m 585 991 l 572 933 l 554 933 q 458 908 488 933 q 419 833 429 883 l 275 153 q 269 114 269 123 q 370 58 269 58 l 387 58 l 375 0 l -29 0 l -18 58 l 0 58 q 136 158 115 58 l 281 839 q 286 878 286 865 q 186 933 286 933 l 168 933 l 180 991 l 585 991 m 596 1071 l 194 1071 l 212 1153 l 614 1153 l 596 1071 z "},"ī":{"ha":422,"x_min":77,"x_max":498,"o":"m 86 686 l 98 745 l 347 745 l 253 298 q 232 144 232 199 q 278 74 232 74 q 378 110 318 74 l 403 69 q 215 -14 307 -14 q 132 24 163 -14 q 100 118 100 61 q 131 336 100 180 l 184 591 q 189 628 189 614 q 104 686 189 686 l 86 686 m 479 842 l 77 842 l 95 924 l 498 924 l 479 842 z "},"Ĭ":{"ha":510,"x_min":-29,"x_max":615,"o":"m 585 991 l 572 933 l 554 933 q 458 908 488 933 q 419 833 429 883 l 275 153 q 269 114 269 123 q 370 58 269 58 l 387 58 l 375 0 l -29 0 l -18 58 l 0 58 q 136 158 115 58 l 281 839 q 286 878 286 865 q 186 933 286 933 l 168 933 l 180 991 l 585 991 m 216 1261 l 281 1261 q 401 1166 292 1166 q 551 1261 512 1166 l 615 1261 q 533 1121 593 1172 q 391 1071 473 1071 q 216 1261 228 1071 z "},"ĭ":{"ha":422,"x_min":86,"x_max":498,"o":"m 86 686 l 98 745 l 347 745 l 253 298 q 232 144 232 199 q 278 74 232 74 q 378 110 318 74 l 403 69 q 215 -14 307 -14 q 132 24 163 -14 q 100 118 100 61 q 131 336 100 180 l 184 591 q 189 628 189 614 q 104 686 189 686 l 86 686 m 99 1032 l 163 1032 q 284 937 174 937 q 434 1032 395 937 l 498 1032 q 415 892 475 943 q 274 842 355 842 q 99 1032 111 842 z "},"Į":{"ha":510,"x_min":-29,"x_max":585,"o":"m 585 991 l 572 933 l 554 933 q 458 908 488 933 q 419 833 429 883 l 275 153 q 269 114 269 123 q 370 58 269 58 l 387 58 l 375 0 l -29 0 l -18 58 l 0 58 q 136 158 115 58 l 281 839 q 286 878 286 865 q 186 933 286 933 l 168 933 l 180 991 l 585 991 m 319 0 q 199 -71 245 -24 q 153 -172 153 -117 q 175 -227 153 -207 q 233 -248 197 -248 q 323 -236 268 -248 l 306 -311 q 195 -334 253 -334 q 33 -192 33 -334 q 86 -73 33 -123 q 239 0 140 -22 l 319 0 z "},"į":{"ha":422,"x_min":1,"x_max":403,"o":"m 311 884 q 233 960 233 884 q 256 1030 233 1004 q 317 1057 279 1057 q 395 981 395 1057 q 371 908 395 933 q 311 884 348 884 m 86 686 l 98 745 l 347 745 l 253 298 q 232 144 232 199 q 278 74 232 74 q 378 110 318 74 l 403 69 q 215 -14 307 -14 q 132 24 163 -14 q 100 118 100 61 q 131 336 100 180 l 184 591 q 189 628 189 614 q 104 686 189 686 l 86 686 m 287 0 q 167 -71 213 -24 q 121 -172 121 -117 q 143 -227 121 -207 q 201 -248 165 -248 q 291 -236 236 -248 l 274 -311 q 163 -334 221 -334 q 1 -192 1 -334 q 55 -73 1 -123 q 208 0 109 -22 l 287 0 z "},"İ":{"ha":510,"x_min":-29,"x_max":585,"o":"m 585 991 l 572 933 l 554 933 q 458 908 488 933 q 419 833 429 883 l 275 153 q 269 114 269 123 q 370 58 269 58 l 387 58 l 375 0 l -29 0 l -18 58 l 0 58 q 136 158 115 58 l 281 839 q 286 878 286 865 q 186 933 286 933 l 168 933 l 180 991 l 585 991 m 420 1113 q 342 1189 342 1113 q 365 1260 342 1233 q 425 1286 387 1286 q 503 1210 503 1286 q 480 1138 503 1162 q 420 1113 456 1113 z "},"ı":{"ha":422,"x_min":86,"x_max":403,"o":"m 86 686 l 98 745 l 347 745 l 253 298 q 232 144 232 199 q 278 74 232 74 q 378 110 318 74 l 403 69 q 215 -14 307 -14 q 132 24 163 -14 q 100 118 100 61 q 131 336 100 180 l 184 591 q 189 628 189 614 q 104 686 189 686 l 86 686 z "},"Ĳ":{"ha":966,"x_min":-29,"x_max":1048,"o":"m 585 991 l 572 933 l 554 933 q 458 908 488 933 q 419 833 429 883 l 275 153 q 269 114 269 123 q 370 58 269 58 l 387 58 l 375 0 l -29 0 l -18 58 l 0 58 q 136 158 115 58 l 281 839 q 286 878 286 865 q 186 933 286 933 l 168 933 l 180 991 l 585 991 m 1048 991 l 1036 933 l 1018 933 q 922 908 951 933 q 883 833 893 883 l 703 -11 q 586 -257 666 -181 q 369 -334 507 -334 q 256 -318 307 -334 l 275 -256 q 365 -268 309 -268 q 490 -208 446 -268 q 564 -12 535 -147 l 744 839 q 750 878 750 867 q 650 933 750 933 l 632 933 l 644 991 l 1048 991 z "},"ĳ":{"ha":827,"x_min":86,"x_max":819,"o":"m 311 884 q 233 960 233 884 q 256 1030 233 1004 q 317 1057 279 1057 q 395 981 395 1057 q 371 908 395 933 q 311 884 348 884 m 86 686 l 98 745 l 347 745 l 253 298 q 232 144 232 199 q 278 74 232 74 q 378 110 318 74 l 403 69 q 215 -14 307 -14 q 132 24 163 -14 q 100 118 100 61 q 131 336 100 180 l 184 591 q 189 628 189 614 q 104 686 189 686 l 86 686 m 735 884 q 657 960 657 884 q 680 1030 657 1004 q 741 1057 703 1057 q 819 981 819 1057 q 795 908 819 933 q 735 884 772 884 m 228 -322 l 241 -258 q 304 -268 275 -268 q 414 -206 374 -268 q 481 -11 454 -144 l 608 591 q 613 628 613 614 q 528 686 613 686 l 510 686 l 522 745 l 771 745 l 612 -11 q 506 -255 576 -176 q 309 -334 436 -334 q 228 -322 269 -334 z "},"Ĵ":{"ha":496,"x_min":-215,"x_max":595,"o":"m 578 991 l 566 933 l 547 933 q 452 908 481 933 q 412 833 422 883 l 232 -11 q 116 -257 195 -181 q -102 -334 36 -334 q -215 -318 -163 -334 l -196 -256 q -106 -268 -161 -268 q 20 -208 -25 -268 q 93 -12 64 -147 l 273 839 q 279 878 279 867 q 179 933 279 933 l 161 933 l 174 991 l 578 991 m 185 1089 q 368 1293 311 1213 l 500 1293 q 595 1089 520 1214 l 591 1071 l 542 1071 q 418 1196 477 1115 q 241 1071 317 1109 l 181 1071 l 185 1089 z "},"ĵ":{"ha":404,"x_min":-195,"x_max":460,"o":"m -195 -322 l -182 -258 q -118 -268 -147 -268 q -8 -206 -48 -268 q 58 -11 31 -144 l 186 591 q 191 628 191 614 q 106 686 191 686 l 87 686 l 100 745 l 349 745 l 189 -11 q 84 -255 154 -176 q -114 -334 14 -334 q -195 -322 -153 -334 m 51 860 q 234 1064 177 984 l 366 1064 q 460 860 386 985 l 456 842 l 408 842 q 284 966 343 886 q 106 842 182 880 l 47 842 l 51 860 z "},"Ķ":{"ha":972,"x_min":-29,"x_max":1054,"o":"m -18 58 l 0 58 q 96 84 67 58 q 136 158 125 109 l 281 839 q 286 878 286 865 q 186 933 286 933 l 168 933 l 180 991 l 585 991 l 572 933 l 554 933 q 458 908 488 933 q 419 833 429 883 l 359 553 l 335 450 l 693 779 q 798 904 798 875 q 736 935 798 935 l 747 991 l 1054 991 l 1043 935 q 963 910 1007 935 q 829 804 919 886 l 576 575 l 745 170 q 876 58 791 58 l 880 58 l 868 0 l 848 0 q 685 23 739 0 q 599 129 631 45 l 464 472 l 321 372 l 275 153 q 269 114 269 123 q 370 58 269 58 l 387 58 l 375 0 l -29 0 l -18 58 m 333 -289 l 361 -223 q 415 -85 390 -155 l 536 -85 l 533 -98 q 378 -307 461 -211 l 330 -307 l 333 -289 z "},"ķ":{"ha":790,"x_min":61,"x_max":831,"o":"m 471 533 q 573 664 573 622 q 511 685 573 685 l 524 743 l 831 743 l 818 685 q 595 555 737 685 l 469 440 l 596 165 q 737 49 650 49 l 725 -9 q 555 17 610 -9 q 464 134 501 44 l 374 355 l 248 275 l 191 0 l 61 0 l 241 859 q 254 932 254 920 q 157 997 254 997 l 146 997 l 158 1055 l 414 1055 l 359 800 q 252 343 285 450 l 471 533 m 242 -289 l 271 -223 q 324 -85 299 -155 l 445 -85 l 442 -98 q 287 -307 370 -211 l 239 -307 l 242 -289 z "},"ĸ":{"ha":790,"x_min":61,"x_max":831,"o":"m 471 533 q 573 664 573 622 q 511 685 573 685 l 524 743 l 831 743 l 818 685 q 595 555 737 685 l 469 440 l 596 165 q 737 49 650 49 l 725 -9 q 551 20 604 -9 q 464 134 498 49 l 374 355 l 248 275 l 191 0 l 61 0 l 176 547 q 189 621 189 608 q 92 686 189 686 l 81 686 l 93 745 l 349 745 l 311 572 q 252 343 285 449 l 471 533 z "},"Ĺ":{"ha":865,"x_min":-28,"x_max":787,"o":"m -16 58 l 3 58 q 96 84 68 58 q 136 158 125 109 l 281 839 q 286 878 286 865 q 186 933 286 933 l 168 933 l 180 991 l 585 991 l 572 933 l 554 933 q 460 910 488 933 q 421 839 431 886 l 257 69 l 530 69 q 679 195 637 69 l 715 298 l 787 298 l 715 0 l -28 0 l -16 58 m 396 1089 q 545 1293 475 1181 l 693 1293 l 689 1279 q 448 1071 583 1155 l 392 1071 l 396 1089 z "},"ĺ":{"ha":422,"x_min":102,"x_max":620,"o":"m 140 997 l 153 1055 l 415 1055 l 254 298 q 233 144 233 199 q 279 74 233 74 q 379 110 319 74 l 404 69 q 216 -14 308 -14 q 134 23 166 -14 q 102 118 102 60 q 132 336 102 184 l 245 869 q 254 932 254 911 q 157 997 254 997 l 140 997 m 323 1128 q 471 1332 402 1219 l 620 1332 l 616 1318 q 374 1109 509 1194 l 319 1109 l 323 1128 z "},"Ļ":{"ha":865,"x_min":-28,"x_max":787,"o":"m -16 58 l 3 58 q 96 84 68 58 q 136 158 125 109 l 281 839 q 286 878 286 865 q 186 933 286 933 l 168 933 l 180 991 l 585 991 l 572 933 l 554 933 q 460 910 488 933 q 421 839 431 886 l 257 69 l 530 69 q 679 195 637 69 l 715 298 l 787 298 l 715 0 l -28 0 l -16 58 m 258 -289 l 286 -223 q 340 -85 315 -155 l 460 -85 l 458 -98 q 302 -307 386 -211 l 255 -307 l 258 -289 z "},"ļ":{"ha":422,"x_min":95,"x_max":415,"o":"m 140 997 l 153 1055 l 415 1055 l 254 298 q 233 144 233 199 q 279 74 233 74 q 379 110 319 74 l 404 69 q 216 -14 308 -14 q 134 23 166 -14 q 102 118 102 60 q 132 336 102 184 l 245 869 q 254 932 254 911 q 157 997 254 997 l 140 997 m 98 -289 l 126 -223 q 180 -85 155 -155 l 300 -85 l 298 -98 q 142 -307 226 -211 l 95 -307 l 98 -289 z "},"Ľ":{"ha":865,"x_min":-28,"x_max":825,"o":"m -16 58 l 3 58 q 96 84 68 58 q 136 158 125 109 l 281 839 q 286 878 286 865 q 186 933 286 933 l 168 933 l 180 991 l 585 991 l 572 933 l 554 933 q 460 910 488 933 q 421 839 431 886 l 257 69 l 530 69 q 679 195 637 69 l 715 298 l 787 298 l 715 0 l -28 0 l -16 58 m 623 788 l 705 992 l 825 992 l 823 979 q 667 770 760 880 l 620 770 l 623 788 z "},"ľ":{"ha":422,"x_min":102,"x_max":652,"o":"m 140 997 l 153 1055 l 415 1055 l 254 298 q 233 144 233 199 q 279 74 233 74 q 379 110 319 74 l 404 69 q 216 -14 308 -14 q 134 23 166 -14 q 102 118 102 60 q 132 336 102 184 l 245 869 q 254 932 254 911 q 157 997 254 997 l 140 997 m 449 851 l 531 1055 l 652 1055 l 649 1042 q 493 833 587 943 l 446 833 l 449 851 z "},"Ŀ":{"ha":865,"x_min":-28,"x_max":787,"o":"m -16 58 l 3 58 q 96 84 68 58 q 136 158 125 109 l 281 839 q 286 878 286 865 q 186 933 286 933 l 168 933 l 180 991 l 585 991 l 572 933 l 554 933 q 460 910 488 933 q 421 839 431 886 l 257 69 l 530 69 q 679 195 637 69 l 715 298 l 787 298 l 715 0 l -28 0 l -16 58 m 611 447 q 533 523 533 447 q 556 594 533 567 q 616 621 578 621 q 694 544 694 621 q 671 472 694 496 q 611 447 648 447 z "},"ŀ":{"ha":549,"x_min":102,"x_max":581,"o":"m 140 997 l 153 1055 l 415 1055 l 254 298 q 233 144 233 199 q 279 74 233 74 q 379 110 319 74 l 404 69 q 216 -14 308 -14 q 134 23 166 -14 q 102 118 102 60 q 132 336 102 184 l 245 869 q 254 932 254 911 q 157 997 254 997 l 140 997 m 497 401 q 419 477 419 401 q 442 548 419 521 q 503 574 465 574 q 581 498 581 574 q 557 426 581 450 q 497 401 534 401 z "},"Ł":{"ha":865,"x_min":-28,"x_max":787,"o":"m -16 58 l 3 58 q 96 84 68 58 q 136 158 125 109 l 186 395 l 36 318 l 53 396 l 203 472 l 281 839 q 286 878 286 865 q 186 933 286 933 l 168 933 l 180 991 l 585 991 l 572 933 l 554 933 q 460 908 488 933 q 421 839 432 884 l 359 553 l 602 679 l 585 599 l 343 473 l 257 69 l 530 69 q 679 195 637 69 l 715 298 l 787 298 l 715 0 l -28 0 l -16 58 z "},"ł":{"ha":450,"x_min":11,"x_max":453,"o":"m 142 383 l 11 318 l 28 396 l 158 464 l 253 903 q 257 933 257 920 q 158 997 257 997 l 140 997 l 153 1055 l 415 1055 l 304 538 l 453 614 l 436 533 l 288 458 l 254 298 q 233 144 233 197 q 279 74 233 74 q 379 110 319 74 l 404 69 q 216 -14 308 -14 q 134 23 166 -14 q 102 118 102 60 q 132 336 102 184 l 142 383 z "},"Ń":{"ha":1060,"x_min":-28,"x_max":1149,"o":"m 900 839 q 905 878 905 865 q 806 933 905 933 l 787 933 l 800 991 l 1149 991 l 1136 933 l 1118 933 q 1023 908 1052 933 q 983 833 994 882 l 807 0 l 717 0 l 359 814 l 220 153 q 214 114 214 123 q 314 58 214 58 l 332 58 l 319 0 l -28 0 l -16 58 l 3 58 q 96 84 68 58 q 136 158 125 109 l 281 839 q 286 878 286 865 q 186 933 286 933 l 168 933 l 180 991 l 433 991 l 770 225 l 900 839 m 637 1089 q 786 1293 717 1181 l 935 1293 l 930 1279 q 689 1071 824 1155 l 633 1071 l 637 1089 z "},"ń":{"ha":832,"x_min":61,"x_max":808,"o":"m 191 0 l 61 0 l 178 558 q 186 621 186 597 q 89 686 186 686 l 78 686 l 90 745 l 347 745 l 310 570 l 323 570 q 576 757 436 757 q 725 603 725 757 q 700 450 725 559 l 664 286 q 646 140 646 203 q 694 74 646 74 q 783 106 734 74 l 808 65 q 639 -14 718 -14 q 547 24 581 -14 q 513 125 513 61 q 539 313 513 189 l 571 456 q 591 586 591 541 q 528 668 591 668 q 369 564 450 668 q 265 355 288 459 l 191 0 m 465 860 q 614 1064 545 951 l 762 1064 l 758 1050 q 517 842 652 926 l 461 842 l 465 860 z "},"Ņ":{"ha":1060,"x_min":-28,"x_max":1149,"o":"m 900 839 q 905 878 905 865 q 806 933 905 933 l 787 933 l 800 991 l 1149 991 l 1136 933 l 1118 933 q 1023 908 1052 933 q 983 833 994 882 l 807 0 l 717 0 l 359 814 l 220 153 q 214 114 214 123 q 314 58 214 58 l 332 58 l 319 0 l -28 0 l -16 58 l 3 58 q 96 84 68 58 q 136 158 125 109 l 281 839 q 286 878 286 865 q 186 933 286 933 l 168 933 l 180 991 l 433 991 l 770 225 l 900 839 m 333 -289 l 361 -223 q 415 -85 390 -155 l 536 -85 l 533 -98 q 378 -307 461 -211 l 330 -307 l 333 -289 z "},"ņ":{"ha":832,"x_min":61,"x_max":808,"o":"m 191 0 l 61 0 l 178 558 q 186 621 186 597 q 89 686 186 686 l 78 686 l 90 745 l 347 745 l 310 570 l 323 570 q 576 757 436 757 q 725 603 725 757 q 700 450 725 559 l 664 286 q 646 140 646 203 q 694 74 646 74 q 783 106 734 74 l 808 65 q 639 -14 718 -14 q 547 24 581 -14 q 513 125 513 61 q 539 313 513 189 l 571 456 q 591 586 591 541 q 528 668 591 668 q 369 564 450 668 q 265 355 288 459 l 191 0 m 241 -289 l 269 -223 q 323 -85 298 -155 l 444 -85 l 441 -98 q 286 -307 369 -211 l 238 -307 l 241 -289 z "},"Ň":{"ha":1060,"x_min":-28,"x_max":1149,"o":"m 900 839 q 905 878 905 865 q 806 933 905 933 l 787 933 l 800 991 l 1149 991 l 1136 933 l 1118 933 q 1023 908 1052 933 q 983 833 994 882 l 807 0 l 717 0 l 359 814 l 220 153 q 214 114 214 123 q 314 58 214 58 l 332 58 l 319 0 l -28 0 l -16 58 l 3 58 q 96 84 68 58 q 136 158 125 109 l 281 839 q 286 878 286 865 q 186 933 286 933 l 168 933 l 180 991 l 433 991 l 770 225 l 900 839 m 930 1275 q 747 1071 827 1173 l 616 1071 q 521 1275 582 1174 l 525 1293 l 575 1293 q 693 1166 640 1242 q 877 1293 781 1241 l 935 1293 l 930 1275 z "},"ň":{"ha":832,"x_min":61,"x_max":808,"o":"m 191 0 l 61 0 l 178 558 q 186 621 186 597 q 89 686 186 686 l 78 686 l 90 745 l 347 745 l 310 570 l 323 570 q 576 757 436 757 q 725 603 725 757 q 700 450 725 559 l 664 286 q 646 140 646 203 q 694 74 646 74 q 783 106 734 74 l 808 65 q 639 -14 718 -14 q 547 24 581 -14 q 513 125 513 61 q 539 313 513 189 l 571 456 q 591 586 591 541 q 528 668 591 668 q 369 564 450 668 q 265 355 288 459 l 191 0 m 734 1046 q 551 842 630 944 l 419 842 q 324 1046 385 945 l 328 1064 l 378 1064 q 496 937 443 1013 q 680 1064 584 1012 l 739 1064 l 734 1046 z "},"ŉ":{"ha":1019,"x_min":10,"x_max":996,"o":"m 378 0 l 248 0 l 365 558 q 373 621 373 597 q 276 686 373 686 l 265 686 l 277 745 l 534 745 l 497 570 l 511 570 q 764 757 623 757 q 912 603 912 757 q 887 450 912 559 l 851 286 q 833 140 833 203 q 882 74 833 74 q 970 106 922 74 l 996 65 q 826 -14 905 -14 q 734 24 768 -14 q 700 125 700 61 q 726 313 700 189 l 758 456 q 779 586 779 541 q 715 668 779 668 q 556 564 637 668 q 452 355 475 459 l 378 0 m 10 611 l 16 669 q 157 786 157 701 q 113 839 157 810 q 67 909 67 867 q 91 969 67 947 q 153 991 115 991 q 231 960 200 991 q 262 878 262 928 q 196 705 262 775 q 10 611 131 635 z "},"Ŋ":{"ha":1101,"x_min":-28,"x_max":1190,"o":"m 942 839 q 947 878 947 865 q 847 933 947 933 l 829 933 l 842 991 l 1190 991 l 1178 933 l 1160 933 q 1064 908 1093 933 q 1025 833 1035 883 l 846 -11 q 735 -259 809 -184 q 532 -334 661 -334 q 433 -318 478 -334 l 450 -256 q 526 -268 485 -268 q 672 -201 609 -268 q 762 -8 735 -135 l 359 814 l 220 153 q 214 114 214 123 q 314 58 214 58 l 332 58 l 319 0 l -28 0 l -16 58 l 3 58 q 96 84 68 58 q 136 158 125 109 l 281 839 q 286 878 286 865 q 186 933 286 933 l 168 933 l 180 991 l 425 991 l 808 210 l 942 839 z "},"ŋ":{"ha":781,"x_min":61,"x_max":725,"o":"m 218 -322 l 231 -258 q 294 -268 265 -268 q 404 -206 364 -268 q 471 -11 444 -144 l 562 416 q 591 586 591 553 q 528 668 591 668 q 369 564 450 668 q 265 355 288 459 l 191 0 l 61 0 l 178 558 q 186 621 186 597 q 89 686 186 686 l 78 686 l 90 745 l 347 745 l 310 570 l 323 570 q 576 757 437 757 q 725 603 725 757 q 700 446 725 554 l 602 -11 q 495 -257 565 -180 q 298 -334 425 -334 q 218 -322 260 -334 z "},"Ō":{"ha":1031,"x_min":72,"x_max":987,"o":"m 628 1007 q 888 907 789 1007 q 987 625 987 806 q 833 186 987 387 q 436 -16 678 -16 q 172 89 271 -16 q 72 370 72 193 q 228 808 72 608 q 628 1007 384 1007 m 444 61 q 726 253 617 61 q 835 663 835 444 q 778 862 835 792 q 616 932 720 932 q 333 740 443 932 q 224 330 224 547 q 283 131 224 200 q 444 61 342 61 m 847 1071 l 445 1071 l 463 1153 l 865 1153 l 847 1071 z "},"ō":{"ha":798,"x_min":60,"x_max":737,"o":"m 473 758 q 667 684 596 758 q 737 471 737 610 q 624 136 737 286 q 326 -14 511 -14 q 130 62 201 -14 q 60 273 60 138 q 174 609 60 460 q 473 758 288 758 m 342 54 q 525 190 456 54 q 593 492 593 326 q 457 685 593 685 q 274 549 344 685 q 204 245 204 412 q 342 54 204 54 m 692 842 l 290 842 l 308 924 l 711 924 l 692 842 z "},"Ŏ":{"ha":1031,"x_min":72,"x_max":987,"o":"m 628 1007 q 888 907 789 1007 q 987 625 987 806 q 833 186 987 387 q 436 -16 678 -16 q 172 89 271 -16 q 72 370 72 193 q 228 808 72 608 q 628 1007 384 1007 m 444 61 q 726 253 617 61 q 835 663 835 444 q 778 862 835 792 q 616 932 720 932 q 333 740 443 932 q 224 330 224 547 q 283 131 224 200 q 444 61 342 61 m 473 1261 l 538 1261 q 659 1166 549 1166 q 808 1261 769 1166 l 872 1261 q 790 1121 850 1172 q 648 1071 730 1071 q 473 1261 485 1071 z "},"ŏ":{"ha":798,"x_min":60,"x_max":737,"o":"m 473 758 q 667 684 596 758 q 737 471 737 610 q 624 136 737 286 q 326 -14 511 -14 q 130 62 201 -14 q 60 273 60 138 q 174 609 60 460 q 473 758 288 758 m 342 54 q 525 190 456 54 q 593 492 593 326 q 457 685 593 685 q 274 549 344 685 q 204 245 204 412 q 342 54 204 54 m 318 1032 l 382 1032 q 503 937 393 937 q 653 1032 614 937 l 717 1032 q 634 892 694 943 q 493 842 574 842 q 318 1032 330 842 z "},"Ő":{"ha":1031,"x_min":72,"x_max":1032,"o":"m 628 1007 q 888 907 789 1007 q 987 625 987 806 q 833 186 987 387 q 436 -16 678 -16 q 172 89 271 -16 q 72 370 72 193 q 228 808 72 608 q 628 1007 384 1007 m 444 61 q 726 253 617 61 q 835 663 835 444 q 778 862 835 792 q 616 932 720 932 q 333 740 443 932 q 224 330 224 547 q 283 131 224 200 q 444 61 342 61 m 481 1071 l 485 1089 q 633 1293 561 1179 l 782 1293 l 778 1279 q 542 1071 683 1171 l 481 1071 m 730 1071 l 734 1089 q 883 1293 806 1171 l 1032 1293 l 1027 1279 q 946 1197 1025 1270 q 791 1071 868 1124 l 730 1071 z "},"ő":{"ha":798,"x_min":60,"x_max":840,"o":"m 473 758 q 667 684 596 758 q 737 471 737 610 q 624 136 737 286 q 326 -14 511 -14 q 130 62 201 -14 q 60 273 60 138 q 174 609 60 460 q 473 758 288 758 m 342 54 q 525 190 456 54 q 593 492 593 326 q 457 685 593 685 q 274 549 344 685 q 204 245 204 412 q 342 54 204 54 m 289 842 l 293 860 q 441 1064 369 950 l 590 1064 l 586 1050 q 350 842 491 942 l 289 842 m 538 842 l 543 860 q 691 1064 614 942 l 840 1064 l 836 1050 q 754 968 833 1041 q 600 842 676 895 l 538 842 z "},"Œ":{"ha":1336,"x_min":72,"x_max":1352,"o":"m 728 69 l 996 69 q 1153 183 1113 69 l 1175 243 l 1247 243 l 1186 0 l 589 0 l 542 -8 q 436 -16 488 -16 q 172 89 271 -16 q 72 370 72 193 q 228 808 72 608 q 628 1007 384 1007 q 775 991 697 1007 l 1352 991 l 1307 749 l 1235 749 q 1242 829 1242 796 q 1143 922 1242 920 l 909 922 l 831 553 l 1165 553 l 1152 485 l 817 485 l 728 69 m 591 85 l 765 904 q 616 932 688 932 q 333 740 443 932 q 224 330 224 547 q 283 131 224 200 q 444 61 342 61 q 591 85 536 61 z "},"œ":{"ha":1198,"x_min":60,"x_max":1173,"o":"m 1071 174 q 1084 139 1084 164 q 1019 34 1084 82 q 844 -14 954 -14 q 611 113 682 -14 q 326 -22 496 -22 q 131 57 203 -22 q 60 273 60 136 q 174 613 60 461 q 473 765 288 765 q 707 627 642 765 q 987 758 824 758 q 1124 716 1076 758 q 1173 599 1173 674 q 1131 476 1173 536 q 1016 377 1090 416 q 884 330 941 339 q 721 321 827 321 q 717 262 717 290 q 871 74 717 74 q 1071 174 989 74 m 342 46 q 524 185 456 46 q 593 492 593 324 q 457 692 593 692 q 274 552 344 692 q 204 245 204 413 q 342 46 204 46 m 733 385 l 747 385 q 950 445 870 385 q 1029 599 1029 505 q 949 692 1029 692 q 822 606 881 692 q 733 385 764 520 z "},"Ŕ":{"ha":899,"x_min":-52,"x_max":839,"o":"m 313 437 l 252 153 q 245 114 245 124 q 346 58 245 58 l 392 58 l 379 0 l -52 0 l -39 58 l -21 58 q 75 83 48 58 q 111 151 102 107 l 257 839 q 262 878 262 865 q 163 933 262 933 l 144 933 l 157 991 l 521 991 q 839 755 839 991 q 582 465 839 526 l 682 168 q 732 78 707 97 q 796 58 757 58 l 807 58 l 796 0 l 778 0 q 609 32 659 0 q 530 163 559 63 l 450 437 l 313 437 m 326 503 l 433 503 q 625 566 557 503 q 692 747 692 629 q 651 882 692 840 q 510 925 610 925 l 415 925 l 326 503 m 494 1089 q 643 1293 574 1181 l 791 1293 l 787 1279 q 546 1071 681 1155 l 490 1071 l 494 1089 z "},"ŕ":{"ha":650,"x_min":61,"x_max":664,"o":"m 542 557 q 486 667 542 667 q 350 540 422 667 q 243 253 277 413 l 191 0 l 61 0 l 178 558 q 186 621 186 597 q 75 686 186 686 l 64 686 l 77 745 l 322 745 l 293 545 l 307 545 q 417 713 363 669 q 543 758 471 758 q 657 663 657 758 q 542 557 657 557 m 367 860 q 515 1064 446 951 l 664 1064 l 660 1050 q 418 842 553 926 l 363 842 l 367 860 z "},"Ŗ":{"ha":899,"x_min":-52,"x_max":839,"o":"m 313 437 l 252 153 q 245 114 245 124 q 346 58 245 58 l 392 58 l 379 0 l -52 0 l -39 58 l -21 58 q 75 83 48 58 q 111 151 102 107 l 257 839 q 262 878 262 865 q 163 933 262 933 l 144 933 l 157 991 l 521 991 q 839 755 839 991 q 582 465 839 526 l 682 168 q 732 78 707 97 q 796 58 757 58 l 807 58 l 796 0 l 778 0 q 609 32 659 0 q 530 163 559 63 l 450 437 l 313 437 m 326 503 l 433 503 q 625 566 557 503 q 692 747 692 629 q 651 882 692 840 q 510 925 610 925 l 415 925 l 326 503 m 300 -289 l 328 -223 q 382 -85 357 -155 l 503 -85 l 500 -98 q 345 -307 428 -211 l 297 -307 l 300 -289 z "},"ŗ":{"ha":650,"x_min":-15,"x_max":657,"o":"m 542 557 q 486 667 542 667 q 350 540 422 667 q 243 253 277 413 l 191 0 l 61 0 l 178 558 q 186 621 186 597 q 75 686 186 686 l 64 686 l 77 745 l 322 745 l 293 545 l 307 545 q 417 713 363 669 q 543 758 471 758 q 657 663 657 758 q 542 557 657 557 m -12 -289 l 16 -223 q 70 -85 45 -155 l 191 -85 l 188 -98 q 33 -307 116 -211 l -15 -307 l -12 -289 z "},"Ř":{"ha":899,"x_min":-52,"x_max":839,"o":"m 313 437 l 252 153 q 245 114 245 124 q 346 58 245 58 l 392 58 l 379 0 l -52 0 l -39 58 l -21 58 q 75 83 48 58 q 111 151 102 107 l 257 839 q 262 878 262 865 q 163 933 262 933 l 144 933 l 157 991 l 521 991 q 839 755 839 991 q 582 465 839 526 l 682 168 q 732 78 707 97 q 796 58 757 58 l 807 58 l 796 0 l 778 0 q 609 32 659 0 q 530 163 559 63 l 450 437 l 313 437 m 326 503 l 433 503 q 625 566 557 503 q 692 747 692 629 q 651 882 692 840 q 510 925 610 925 l 415 925 l 326 503 m 781 1275 q 597 1071 677 1173 l 466 1071 q 371 1275 432 1174 l 375 1293 l 425 1293 q 543 1166 490 1242 q 727 1293 631 1241 l 785 1293 l 781 1275 z "},"ř":{"ha":650,"x_min":61,"x_max":657,"o":"m 542 557 q 486 667 542 667 q 350 540 422 667 q 243 253 277 413 l 191 0 l 61 0 l 178 558 q 186 621 186 597 q 75 686 186 686 l 64 686 l 77 745 l 322 745 l 293 545 l 307 545 q 417 713 363 669 q 543 758 471 758 q 657 663 657 758 q 542 557 657 557 m 645 1046 q 462 842 541 944 l 330 842 q 235 1046 296 945 l 239 1064 l 290 1064 q 408 937 354 1013 q 591 1064 495 1012 l 650 1064 l 645 1046 z "},"Ś":{"ha":755,"x_min":9,"x_max":779,"o":"m 117 290 q 173 119 117 184 q 328 54 229 54 q 482 102 425 54 q 539 233 539 151 q 506 345 539 299 q 364 452 473 390 q 210 584 253 516 q 167 737 167 652 q 258 931 167 857 q 504 1006 349 1006 q 696 964 625 1006 q 768 856 768 922 q 646 760 768 760 q 607 888 646 841 q 493 936 568 936 q 357 888 410 936 q 304 761 304 841 q 333 659 304 702 q 476 549 361 616 q 634 422 585 485 q 682 278 682 359 q 586 63 682 140 q 318 -14 490 -14 q 93 42 176 -14 q 9 184 9 98 q 40 261 9 233 q 117 290 70 290 m 482 1089 q 631 1293 562 1181 l 779 1293 l 775 1279 q 534 1071 669 1155 l 478 1071 l 482 1089 z "},"ś":{"ha":644,"x_min":35,"x_max":679,"o":"m 503 539 q 470 651 503 609 q 378 693 437 693 q 279 660 315 693 q 243 574 243 626 q 277 495 243 528 q 385 431 312 463 q 551 215 551 356 q 473 50 551 113 q 264 -14 394 -14 q 97 29 159 -14 q 35 143 35 71 q 59 211 35 188 q 122 235 84 235 q 164 101 122 149 q 281 53 205 53 q 431 182 431 53 q 399 266 431 231 q 290 335 367 300 q 156 433 191 382 q 122 550 122 484 q 196 699 122 641 q 390 757 271 757 q 550 719 492 757 q 607 625 607 681 q 503 539 607 539 m 382 860 q 530 1064 461 951 l 679 1064 l 675 1050 q 433 842 568 926 l 378 842 l 382 860 z "},"Ŝ":{"ha":755,"x_min":9,"x_max":768,"o":"m 117 290 q 173 119 117 184 q 328 54 229 54 q 482 102 425 54 q 539 233 539 151 q 506 345 539 299 q 364 452 473 390 q 210 584 253 516 q 167 737 167 652 q 258 931 167 857 q 504 1006 349 1006 q 696 964 625 1006 q 768 856 768 922 q 646 760 768 760 q 607 888 646 841 q 493 936 568 936 q 357 888 410 936 q 304 761 304 841 q 333 659 304 702 q 476 549 361 616 q 634 422 585 485 q 682 278 682 359 q 586 63 682 140 q 318 -14 490 -14 q 93 42 176 -14 q 9 184 9 98 q 40 261 9 233 q 117 290 70 290 m 328 1089 q 511 1293 454 1213 l 643 1293 q 737 1089 663 1214 l 733 1071 l 684 1071 q 561 1196 620 1115 q 383 1071 459 1109 l 323 1071 l 328 1089 z "},"ŝ":{"ha":644,"x_min":35,"x_max":641,"o":"m 503 539 q 470 651 503 609 q 378 693 437 693 q 279 660 315 693 q 243 574 243 626 q 277 495 243 528 q 385 431 312 463 q 551 215 551 356 q 473 50 551 113 q 264 -14 394 -14 q 97 29 159 -14 q 35 143 35 71 q 59 211 35 188 q 122 235 84 235 q 164 101 122 149 q 281 53 205 53 q 431 182 431 53 q 399 266 431 231 q 290 335 367 300 q 156 433 191 382 q 122 550 122 484 q 196 699 122 641 q 390 757 271 757 q 550 719 492 757 q 607 625 607 681 q 503 539 607 539 m 231 860 q 414 1064 357 984 l 547 1064 q 641 860 566 985 l 637 842 l 588 842 q 465 966 524 886 q 287 842 363 880 l 227 842 l 231 860 z "},"Ş":{"ha":755,"x_min":9,"x_max":768,"o":"m 117 290 q 173 119 117 184 q 328 54 229 54 q 482 102 425 54 q 539 233 539 151 q 506 345 539 299 q 364 452 473 390 q 210 584 253 516 q 167 737 167 652 q 258 931 167 857 q 504 1006 349 1006 q 696 964 625 1006 q 768 856 768 922 q 646 760 768 760 q 607 888 646 841 q 493 936 568 936 q 357 888 410 936 q 304 761 304 841 q 333 659 304 702 q 476 549 361 616 q 634 422 585 485 q 682 278 682 359 q 586 63 682 140 q 318 -14 490 -14 q 93 42 176 -14 q 9 184 9 98 q 40 261 9 233 q 117 290 70 290 m 325 -47 q 406 -87 375 -54 q 436 -163 436 -119 q 377 -289 436 -243 q 215 -334 319 -334 q 111 -318 161 -334 l 126 -248 q 219 -258 174 -258 q 322 -174 322 -258 q 233 -96 322 -104 l 286 12 l 351 12 l 325 -47 z "},"ş":{"ha":644,"x_min":35,"x_max":607,"o":"m 503 539 q 470 651 503 609 q 378 693 437 693 q 279 660 315 693 q 243 574 243 626 q 277 495 243 528 q 385 431 312 463 q 551 215 551 356 q 473 50 551 113 q 264 -14 394 -14 q 97 29 159 -14 q 35 143 35 71 q 59 211 35 188 q 122 235 84 235 q 164 101 122 149 q 281 53 205 53 q 431 182 431 53 q 399 266 431 231 q 290 335 367 300 q 156 433 191 382 q 122 550 122 484 q 196 699 122 641 q 390 757 271 757 q 550 719 492 757 q 607 625 607 681 q 503 539 607 539 m 276 -47 q 357 -87 326 -54 q 387 -163 387 -119 q 329 -289 387 -243 q 166 -334 270 -334 q 62 -318 113 -334 l 77 -248 q 170 -258 125 -258 q 273 -174 273 -258 q 184 -96 273 -104 l 237 12 l 302 12 l 276 -47 z "},"Š":{"ha":755,"x_min":9,"x_max":783,"o":"m 117 290 q 173 119 117 184 q 328 54 229 54 q 482 102 425 54 q 539 233 539 151 q 506 345 539 299 q 364 452 473 390 q 210 584 253 516 q 167 737 167 652 q 258 931 167 857 q 504 1006 349 1006 q 696 964 625 1006 q 768 856 768 922 q 646 760 768 760 q 607 888 646 841 q 493 936 568 936 q 357 888 410 936 q 304 761 304 841 q 333 659 304 702 q 476 549 361 616 q 634 422 585 485 q 682 278 682 359 q 586 63 682 140 q 318 -14 490 -14 q 93 42 176 -14 q 9 184 9 98 q 40 261 9 233 q 117 290 70 290 m 779 1275 q 595 1071 675 1173 l 464 1071 q 369 1275 430 1174 l 373 1293 l 423 1293 q 541 1166 488 1242 q 725 1293 629 1241 l 783 1293 l 779 1275 z "},"š":{"ha":644,"x_min":35,"x_max":658,"o":"m 503 539 q 470 651 503 609 q 378 693 437 693 q 279 660 315 693 q 243 574 243 626 q 277 495 243 528 q 385 431 312 463 q 551 215 551 356 q 473 50 551 113 q 264 -14 394 -14 q 97 29 159 -14 q 35 143 35 71 q 59 211 35 188 q 122 235 84 235 q 164 101 122 149 q 281 53 205 53 q 431 182 431 53 q 399 266 431 231 q 290 335 367 300 q 156 433 191 382 q 122 550 122 484 q 196 699 122 641 q 390 757 271 757 q 550 719 492 757 q 607 625 607 681 q 503 539 607 539 m 653 1046 q 470 842 549 944 l 338 842 q 243 1046 304 945 l 248 1064 l 298 1064 q 416 937 362 1013 q 600 1064 503 1012 l 658 1064 l 653 1046 z "},"Ț":{"ha":851,"x_min":106,"x_max":946,"o":"m 446 153 q 440 114 440 127 q 541 58 440 58 l 572 58 l 559 0 l 127 0 l 140 58 l 172 58 q 269 82 242 58 q 306 151 296 106 l 469 922 l 336 922 q 197 808 237 922 l 178 749 l 106 749 l 164 991 l 946 991 l 901 749 l 829 749 q 836 833 836 803 q 745 922 836 922 l 610 922 l 446 153 m 206 -289 l 235 -223 q 288 -85 263 -155 l 409 -85 l 406 -98 q 251 -307 334 -211 l 203 -307 l 206 -289 z "},"ț":{"ha":511,"x_min":96,"x_max":517,"o":"m 418 104 l 441 53 q 254 -14 348 -14 q 103 149 103 -14 q 117 265 103 201 l 201 665 l 96 665 l 109 721 q 321 916 244 721 l 385 916 l 349 745 l 517 745 l 500 665 l 332 665 l 248 269 q 231 150 231 189 q 304 74 231 74 q 418 104 361 74 m 107 -289 l 136 -223 q 189 -85 164 -155 l 310 -85 l 307 -98 q 152 -307 235 -211 l 104 -307 l 107 -289 z "},"Ť":{"ha":851,"x_min":106,"x_max":946,"o":"m 446 153 q 440 114 440 127 q 541 58 440 58 l 572 58 l 559 0 l 127 0 l 140 58 l 172 58 q 269 82 242 58 q 306 151 296 106 l 469 922 l 336 922 q 197 808 237 922 l 178 749 l 106 749 l 164 991 l 946 991 l 901 749 l 829 749 q 836 833 836 803 q 745 922 836 922 l 610 922 l 446 153 m 801 1275 q 618 1071 697 1173 l 486 1071 q 391 1275 452 1174 l 395 1293 l 446 1293 q 564 1166 510 1242 q 747 1293 651 1241 l 806 1293 l 801 1275 z "},"ť":{"ha":511,"x_min":96,"x_max":684,"o":"m 418 104 l 441 53 q 254 -14 348 -14 q 103 149 103 -14 q 117 265 103 201 l 201 665 l 96 665 l 109 721 q 321 916 244 721 l 385 916 l 349 745 l 517 745 l 500 665 l 332 665 l 248 269 q 231 150 231 189 q 304 74 231 74 q 418 104 361 74 m 481 851 l 563 1055 l 684 1055 l 681 1042 q 525 833 618 943 l 478 833 l 481 851 z "},"Ŧ":{"ha":851,"x_min":106,"x_max":946,"o":"m 525 524 l 758 524 l 746 456 l 510 456 l 446 153 q 440 114 440 127 q 541 58 440 58 l 572 58 l 559 0 l 127 0 l 140 58 l 172 58 q 265 81 237 58 q 306 151 293 104 l 370 456 l 139 456 l 151 524 l 385 524 l 469 922 l 336 922 q 197 808 237 922 l 178 749 l 106 749 l 164 991 l 946 991 l 901 749 l 829 749 q 836 833 836 803 q 745 922 836 920 l 610 922 l 525 524 z "},"ŧ":{"ha":511,"x_min":52,"x_max":517,"o":"m 418 104 l 441 53 q 254 -14 348 -14 q 103 149 103 -14 q 117 265 103 205 l 146 404 l 52 404 l 64 469 l 160 469 l 201 665 l 96 665 l 109 721 q 321 916 244 721 l 385 916 l 349 745 l 517 745 l 500 665 l 332 665 l 290 469 l 457 469 l 444 404 l 277 404 l 248 269 q 231 150 231 191 q 304 74 231 74 q 418 104 361 74 z "},"Ũ":{"ha":1014,"x_min":134,"x_max":1105,"o":"m 139 933 l 151 991 l 555 991 l 545 933 l 526 933 q 431 908 461 933 q 390 833 401 884 l 286 343 q 269 214 269 263 q 469 69 269 69 q 648 119 582 69 q 739 286 713 170 l 857 839 q 863 878 863 864 q 762 933 863 933 l 745 933 l 757 991 l 1105 991 l 1095 933 l 1076 933 q 981 908 1011 933 q 940 833 951 884 l 823 283 q 449 -14 760 -14 q 215 49 296 -14 q 134 227 134 111 q 149 350 134 283 l 252 839 q 257 878 257 865 q 157 933 257 933 l 139 933 m 890 1235 l 953 1235 q 772 1071 904 1071 q 658 1115 718 1071 q 572 1158 597 1158 q 489 1085 513 1158 l 427 1085 q 608 1249 475 1249 q 723 1205 664 1249 q 807 1161 782 1161 q 890 1235 867 1161 z "},"ũ":{"ha":832,"x_min":79,"x_max":810,"o":"m 92 745 l 350 745 l 258 329 q 231 161 231 203 q 298 77 231 77 q 452 179 370 77 q 559 399 534 282 l 632 745 l 766 745 l 671 298 q 650 144 650 200 q 696 74 650 74 q 785 104 735 74 l 810 64 q 633 -14 722 -14 q 549 24 581 -14 q 517 118 517 61 q 524 200 517 154 l 513 200 q 378 32 437 76 q 244 -12 319 -12 q 96 142 96 -12 q 121 294 96 186 l 175 538 q 187 621 187 593 q 90 686 187 686 l 79 686 l 92 745 m 714 1006 l 777 1006 q 596 842 728 842 q 481 886 541 842 q 396 929 421 929 q 313 856 336 929 l 250 856 q 432 1019 299 1019 q 547 976 488 1019 q 631 932 606 932 q 714 1006 691 932 z "},"Ū":{"ha":1014,"x_min":134,"x_max":1105,"o":"m 139 933 l 151 991 l 555 991 l 545 933 l 526 933 q 431 908 461 933 q 390 833 401 884 l 286 343 q 269 214 269 263 q 469 69 269 69 q 648 119 582 69 q 739 286 713 170 l 857 839 q 863 878 863 864 q 762 933 863 933 l 745 933 l 757 991 l 1105 991 l 1095 933 l 1076 933 q 981 908 1011 933 q 940 833 951 884 l 823 283 q 449 -14 760 -14 q 215 49 296 -14 q 134 227 134 111 q 149 350 134 283 l 252 839 q 257 878 257 865 q 157 933 257 933 l 139 933 m 854 1071 l 452 1071 l 469 1153 l 872 1153 l 854 1071 z "},"ū":{"ha":832,"x_min":79,"x_max":810,"o":"m 92 745 l 350 745 l 258 329 q 231 161 231 203 q 298 77 231 77 q 452 179 370 77 q 559 399 534 282 l 632 745 l 766 745 l 671 298 q 650 144 650 200 q 696 74 650 74 q 785 104 735 74 l 810 64 q 633 -14 722 -14 q 549 24 581 -14 q 517 118 517 61 q 524 200 517 154 l 513 200 q 378 32 437 76 q 244 -12 319 -12 q 96 142 96 -12 q 121 294 96 186 l 175 538 q 187 621 187 593 q 90 686 187 686 l 79 686 l 92 745 m 705 842 l 303 842 l 321 924 l 724 924 l 705 842 z "},"Ŭ":{"ha":1014,"x_min":134,"x_max":1105,"o":"m 139 933 l 151 991 l 555 991 l 545 933 l 526 933 q 431 908 461 933 q 390 833 401 884 l 286 343 q 269 214 269 263 q 469 69 269 69 q 648 119 582 69 q 739 286 713 170 l 857 839 q 863 878 863 864 q 762 933 863 933 l 745 933 l 757 991 l 1105 991 l 1095 933 l 1076 933 q 981 908 1011 933 q 940 833 951 884 l 823 283 q 449 -14 760 -14 q 215 49 296 -14 q 134 227 134 111 q 149 350 134 283 l 252 839 q 257 878 257 865 q 157 933 257 933 l 139 933 m 480 1261 l 545 1261 q 665 1166 555 1166 q 815 1261 776 1166 l 879 1261 q 797 1121 857 1172 q 655 1071 736 1071 q 480 1261 492 1071 z "},"ŭ":{"ha":832,"x_min":79,"x_max":810,"o":"m 92 745 l 350 745 l 258 329 q 231 161 231 203 q 298 77 231 77 q 452 179 370 77 q 559 399 534 282 l 632 745 l 766 745 l 671 298 q 650 144 650 200 q 696 74 650 74 q 785 104 735 74 l 810 64 q 633 -14 722 -14 q 549 24 581 -14 q 517 118 517 61 q 524 200 517 154 l 513 200 q 378 32 437 76 q 244 -12 319 -12 q 96 142 96 -12 q 121 294 96 186 l 175 538 q 187 621 187 593 q 90 686 187 686 l 79 686 l 92 745 m 328 1032 l 392 1032 q 513 937 403 937 q 663 1032 623 937 l 726 1032 q 644 892 704 943 q 503 842 584 842 q 328 1032 339 842 z "},"Ů":{"ha":1014,"x_min":134,"x_max":1105,"o":"m 139 933 l 151 991 l 555 991 l 545 933 l 526 933 q 431 908 461 933 q 390 833 401 884 l 286 343 q 269 214 269 263 q 469 69 269 69 q 648 119 582 69 q 739 286 713 170 l 857 839 q 863 878 863 864 q 762 933 863 933 l 745 933 l 757 991 l 1105 991 l 1095 933 l 1076 933 q 981 908 1011 933 q 940 833 951 884 l 823 283 q 449 -14 760 -14 q 215 49 296 -14 q 134 227 134 111 q 149 350 134 283 l 252 839 q 257 878 257 865 q 157 933 257 933 l 139 933 m 681 1057 q 561 1097 608 1057 q 514 1208 514 1137 q 561 1319 514 1279 q 681 1360 608 1360 q 801 1319 754 1360 q 848 1208 848 1279 q 801 1097 848 1137 q 681 1057 753 1057 m 681 1292 q 589 1208 589 1292 q 681 1125 589 1125 q 772 1208 772 1125 q 681 1292 772 1292 z "},"ů":{"ha":832,"x_min":79,"x_max":810,"o":"m 92 745 l 350 745 l 258 329 q 231 161 231 203 q 298 77 231 77 q 452 179 370 77 q 559 399 534 282 l 632 745 l 766 745 l 671 298 q 650 144 650 200 q 696 74 650 74 q 785 104 735 74 l 810 64 q 633 -14 722 -14 q 549 24 581 -14 q 517 118 517 61 q 524 200 517 154 l 513 200 q 378 32 437 76 q 244 -12 319 -12 q 96 142 96 -12 q 121 294 96 186 l 175 538 q 187 621 187 593 q 90 686 187 686 l 79 686 l 92 745 m 509 828 q 389 868 436 828 q 342 979 342 908 q 389 1090 342 1050 q 509 1131 435 1131 q 629 1090 582 1131 q 675 979 675 1050 q 628 868 675 908 q 509 828 581 828 m 509 1063 q 417 979 417 1063 q 509 896 417 896 q 600 979 600 896 q 509 1063 600 1063 z "},"Ű":{"ha":1014,"x_min":134,"x_max":1105,"o":"m 139 933 l 151 991 l 555 991 l 545 933 l 526 933 q 431 908 461 933 q 390 833 401 884 l 286 343 q 269 214 269 263 q 469 69 269 69 q 648 119 582 69 q 739 286 713 170 l 857 839 q 863 878 863 864 q 762 933 863 933 l 745 933 l 757 991 l 1105 991 l 1095 933 l 1076 933 q 981 908 1011 933 q 940 833 951 884 l 823 283 q 449 -14 760 -14 q 215 49 296 -14 q 134 227 134 111 q 149 350 134 283 l 252 839 q 257 878 257 865 q 157 933 257 933 l 139 933 m 454 1071 l 458 1089 q 607 1293 534 1179 l 755 1293 l 751 1279 q 515 1071 656 1171 l 454 1071 m 704 1071 l 708 1089 q 857 1293 780 1171 l 1006 1293 l 1001 1279 q 920 1197 998 1270 q 765 1071 842 1124 l 704 1071 z "},"ű":{"ha":832,"x_min":79,"x_max":846,"o":"m 92 745 l 350 745 l 258 329 q 231 161 231 203 q 298 77 231 77 q 452 179 370 77 q 559 399 534 282 l 632 745 l 766 745 l 671 298 q 650 144 650 200 q 696 74 650 74 q 785 104 735 74 l 810 64 q 633 -14 722 -14 q 549 24 581 -14 q 517 118 517 61 q 524 200 517 154 l 513 200 q 378 32 437 76 q 244 -12 319 -12 q 96 142 96 -12 q 121 294 96 186 l 175 538 q 187 621 187 593 q 90 686 187 686 l 79 686 l 92 745 m 295 842 l 299 860 q 448 1064 375 950 l 596 1064 l 592 1050 q 356 842 497 942 l 295 842 m 545 842 l 549 860 q 697 1064 621 942 l 846 1064 l 842 1050 q 761 968 839 1041 q 606 842 682 895 l 545 842 z "},"Ų":{"ha":1014,"x_min":134,"x_max":1105,"o":"m 139 933 l 151 991 l 555 991 l 545 933 l 526 933 q 431 908 461 933 q 390 833 401 884 l 286 343 q 269 214 269 263 q 469 69 269 69 q 648 119 582 69 q 739 286 713 170 l 857 839 q 863 878 863 864 q 762 933 863 933 l 745 933 l 757 991 l 1105 991 l 1095 933 l 1076 933 q 981 908 1011 933 q 940 833 951 884 l 823 283 q 449 -14 760 -14 q 215 49 296 -14 q 134 227 134 111 q 149 350 134 283 l 252 839 q 257 878 257 865 q 157 933 257 933 l 139 933 m 572 0 q 453 -71 498 -24 q 407 -172 407 -117 q 429 -227 407 -207 q 486 -248 450 -248 q 576 -236 522 -248 l 559 -311 q 449 -334 507 -334 q 286 -192 286 -334 q 340 -73 286 -123 q 493 0 394 -22 l 572 0 z "},"ų":{"ha":832,"x_min":79,"x_max":810,"o":"m 92 745 l 350 745 l 258 329 q 231 161 231 203 q 298 77 231 77 q 452 179 370 77 q 559 399 534 282 l 632 745 l 766 745 l 671 298 q 650 144 650 200 q 696 74 650 74 q 785 104 735 74 l 810 64 q 633 -14 722 -14 q 549 24 581 -14 q 517 118 517 61 q 524 200 517 154 l 513 200 q 378 32 437 76 q 244 -12 319 -12 q 96 142 96 -12 q 121 294 96 186 l 175 538 q 187 621 187 593 q 90 686 187 686 l 79 686 l 92 745 m 704 0 q 584 -71 630 -24 q 538 -172 538 -117 q 560 -227 538 -207 q 618 -248 582 -248 q 708 -236 653 -248 l 691 -311 q 581 -334 638 -334 q 418 -192 418 -334 q 472 -73 418 -123 q 625 0 526 -22 l 704 0 z "},"Ŵ":{"ha":1451,"x_min":123,"x_max":1564,"o":"m 1299 806 q 1325 884 1325 859 q 1247 933 1325 933 l 1214 933 l 1225 991 l 1564 991 l 1552 933 l 1525 933 q 1455 911 1480 933 q 1397 825 1430 890 l 987 0 l 860 0 l 798 770 l 424 0 l 297 0 l 225 860 q 205 915 222 897 q 142 933 188 933 l 123 933 l 136 991 l 514 991 l 501 933 l 469 933 q 370 863 370 933 q 372 815 370 834 l 406 371 q 415 136 415 244 q 529 386 473 273 l 821 982 l 921 982 l 966 380 q 974 136 977 244 q 1078 364 1035 278 l 1299 806 m 672 1089 q 855 1293 798 1213 l 987 1293 q 1082 1089 1007 1214 l 1078 1071 l 1029 1071 q 905 1196 964 1115 q 728 1071 804 1109 l 668 1071 l 672 1089 z "},"ŵ":{"ha":1137,"x_min":52,"x_max":1109,"o":"m 167 -12 l 157 586 q 137 661 156 635 q 65 686 119 686 l 52 686 l 71 745 l 279 745 q 283 111 283 452 l 289 111 q 599 732 470 429 l 714 737 q 743 102 743 372 l 753 102 q 940 377 866 241 q 1014 593 1014 513 q 954 676 1014 656 q 1036 758 966 758 q 1109 654 1109 758 q 761 1 1109 454 l 624 -14 l 603 587 q 310 4 540 437 l 167 -12 m 471 860 q 654 1064 597 984 l 786 1064 q 880 860 806 985 l 876 842 l 827 842 q 704 966 763 886 q 526 842 602 880 l 467 842 l 471 860 z "},"Ŷ":{"ha":868,"x_min":107,"x_max":999,"o":"m 494 991 l 482 933 l 412 933 q 355 896 355 933 q 374 815 355 869 l 436 629 q 473 463 469 530 q 578 608 487 488 l 710 785 q 761 897 761 852 q 694 933 761 933 l 643 933 l 656 991 l 999 991 l 986 933 l 960 933 q 907 912 933 933 q 833 828 881 890 l 510 404 l 456 153 q 450 114 450 127 q 550 58 450 58 l 582 58 l 570 0 l 138 0 l 150 58 l 182 58 q 279 82 252 58 q 315 151 306 106 l 370 407 l 208 860 q 177 919 193 904 q 125 933 162 933 l 107 933 l 119 991 l 494 991 m 374 1089 q 557 1293 500 1213 l 689 1293 q 783 1089 709 1214 l 779 1071 l 730 1071 q 607 1196 666 1115 q 429 1071 505 1109 l 370 1071 l 374 1089 z "},"ŷ":{"ha":733,"x_min":-225,"x_max":690,"o":"m 111 612 q 78 670 99 653 q 16 686 57 686 l 1 686 l 12 745 l 215 745 l 323 370 q 382 118 374 195 l 386 118 q 574 579 574 404 q 505 654 574 654 q 532 729 505 701 q 596 757 559 757 q 690 640 690 757 q 503 169 690 473 q 203 -234 316 -134 q -94 -334 90 -334 q -225 -309 -168 -334 l -204 -239 q -96 -254 -155 -254 q 294 -1 103 -254 l 111 612 m 230 860 q 413 1064 356 984 l 545 1064 q 640 860 565 985 l 635 842 l 587 842 q 463 966 522 886 q 286 842 361 880 l 226 842 l 230 860 z "},"Ÿ":{"ha":868,"x_min":107,"x_max":999,"o":"m 494 991 l 482 933 l 412 933 q 355 896 355 933 q 374 815 355 869 l 436 629 q 473 463 469 530 q 578 608 487 488 l 710 785 q 761 897 761 852 q 694 933 761 933 l 643 933 l 656 991 l 999 991 l 986 933 l 960 933 q 907 912 933 933 q 833 828 881 890 l 510 404 l 456 153 q 450 114 450 127 q 550 58 450 58 l 582 58 l 570 0 l 138 0 l 150 58 l 182 58 q 279 82 252 58 q 315 151 306 106 l 370 407 l 208 860 q 177 919 193 904 q 125 933 162 933 l 107 933 l 119 991 l 494 991 m 464 1107 q 395 1177 395 1107 q 469 1264 395 1264 q 539 1194 539 1264 q 464 1107 539 1107 m 728 1107 q 659 1177 659 1107 q 733 1264 659 1264 q 803 1194 803 1264 q 728 1107 803 1107 z "},"Ź":{"ha":840,"x_min":-24,"x_max":876,"o":"m 865 935 l 165 69 l 536 69 q 676 183 640 69 l 696 243 l 768 243 l 710 0 l -24 0 l -12 56 l 686 922 l 363 922 q 224 808 260 922 l 204 749 l 132 749 l 191 991 l 876 991 l 865 935 m 506 1089 q 654 1293 585 1181 l 803 1293 l 799 1279 q 557 1071 692 1155 l 502 1071 l 506 1089 z "},"ź":{"ha":710,"x_min":-1,"x_max":676,"o":"m 418 79 q 478 100 451 79 q 536 193 506 121 l 550 225 l 608 225 l 554 0 l -1 0 l 9 56 l 482 665 l 306 665 q 232 642 258 665 q 175 553 205 619 l 172 547 l 114 547 l 170 745 l 656 745 l 644 688 l 171 79 l 418 79 m 379 860 q 528 1064 458 951 l 676 1064 l 672 1050 q 431 842 566 926 l 375 842 l 379 860 z "},"Ż":{"ha":840,"x_min":-24,"x_max":876,"o":"m 865 935 l 165 69 l 536 69 q 676 183 640 69 l 696 243 l 768 243 l 710 0 l -24 0 l -12 56 l 686 922 l 363 922 q 224 808 260 922 l 204 749 l 132 749 l 191 991 l 876 991 l 865 935 m 557 1113 q 479 1189 479 1113 q 502 1260 479 1233 q 562 1286 524 1286 q 640 1210 640 1286 q 617 1138 640 1162 q 557 1113 593 1113 z "},"ż":{"ha":710,"x_min":-1,"x_max":656,"o":"m 418 79 q 478 100 451 79 q 536 193 506 121 l 550 225 l 608 225 l 554 0 l -1 0 l 9 56 l 482 665 l 306 665 q 232 642 258 665 q 175 553 205 619 l 172 547 l 114 547 l 170 745 l 656 745 l 644 688 l 171 79 l 418 79 m 450 884 q 372 960 372 884 q 395 1030 372 1004 q 456 1057 418 1057 q 534 981 534 1057 q 510 908 534 933 q 450 884 487 884 z "},"Ž":{"ha":840,"x_min":-24,"x_max":876,"o":"m 865 935 l 165 69 l 536 69 q 676 183 640 69 l 696 243 l 768 243 l 710 0 l -24 0 l -12 56 l 686 922 l 363 922 q 224 808 260 922 l 204 749 l 132 749 l 191 991 l 876 991 l 865 935 m 757 1275 q 574 1071 653 1173 l 442 1071 q 347 1275 408 1174 l 351 1293 l 401 1293 q 519 1166 466 1242 q 703 1293 607 1241 l 762 1293 l 757 1275 z "},"ž":{"ha":710,"x_min":-1,"x_max":690,"o":"m 418 79 q 478 100 451 79 q 536 193 506 121 l 550 225 l 608 225 l 554 0 l -1 0 l 9 56 l 482 665 l 306 665 q 232 642 258 665 q 175 553 205 619 l 172 547 l 114 547 l 170 745 l 656 745 l 644 688 l 171 79 l 418 79 m 685 1046 q 502 842 581 944 l 370 842 q 275 1046 336 945 l 279 1064 l 330 1064 q 448 937 394 1013 q 631 1064 535 1012 l 690 1064 l 685 1046 z "},"ſ":{"ha":416,"x_min":-195,"x_max":676,"o":"m -195 -322 l -182 -258 q -118 -268 -147 -268 q -10 -209 -49 -268 q 57 -12 28 -149 l 233 821 q 497 1069 286 1069 q 631 1041 586 1069 q 676 966 676 1013 q 561 876 676 876 q 490 1006 561 1006 q 416 969 445 1006 q 367 833 388 932 l 187 -11 q 83 -256 152 -178 q -114 -334 14 -334 q -195 -322 -153 -334 z "},"ƒ":{"ha":777,"x_min":-56,"x_max":787,"o":"m 618 553 l 436 553 l 326 -11 q 223 -256 294 -178 q 25 -334 153 -334 q -56 -323 -16 -334 l -43 -258 q 21 -268 -2 -268 q 130 -209 91 -268 q 196 -12 170 -150 l 306 553 l 165 553 l 178 618 l 318 618 l 345 757 q 608 1006 392 1006 q 742 977 697 1006 q 787 903 787 949 q 672 812 787 812 q 602 942 672 942 q 522 900 550 942 q 478 770 494 857 l 449 618 l 631 618 l 618 553 z "},"Ǻ":{"ha":979,"x_min":-78,"x_max":913,"o":"m 602 1166 q 750 1331 679 1239 l 899 1331 l 895 1320 q 653 1153 785 1217 l 597 1153 l 602 1166 m 690 833 l 812 125 q 836 73 819 87 q 895 58 852 58 l 913 58 l 901 0 l 524 0 l 534 58 l 567 58 q 639 76 612 58 q 667 122 667 93 q 664 165 667 148 l 644 292 l 269 292 l 193 174 q 167 104 167 132 q 244 58 167 58 l 277 58 l 265 0 l -78 0 l -66 58 l -40 58 q 26 78 2 58 q 89 157 50 98 l 539 840 q 456 975 456 880 q 502 1086 456 1045 q 623 1126 548 1126 q 743 1086 696 1126 q 789 975 789 1045 q 690 833 789 870 m 614 892 l 623 892 q 714 975 714 892 q 623 1059 714 1059 q 530 975 530 1059 q 614 892 530 895 m 600 578 q 575 778 579 713 q 497 644 551 727 l 318 361 l 633 361 l 600 578 z "},"ǻ":{"ha":804,"x_min":60,"x_max":798,"o":"m 507 210 l 498 210 q 239 -14 399 -14 q 107 53 154 -14 q 60 240 60 120 q 179 595 60 431 q 473 758 298 758 q 636 708 568 758 l 697 743 l 742 743 l 647 298 q 627 144 627 203 q 672 74 627 74 q 772 110 711 74 l 798 69 q 602 -14 698 -14 q 493 102 493 -14 q 507 210 493 146 m 586 646 q 481 696 554 696 q 282 545 362 696 q 201 235 201 394 q 289 74 201 74 q 434 176 358 74 q 534 400 510 279 l 586 646 m 685 962 q 636 850 685 889 q 518 811 587 811 q 400 850 449 811 q 351 962 351 889 q 400 1075 351 1036 q 518 1114 449 1114 q 636 1075 587 1114 q 685 962 685 1036 m 610 962 q 583 1026 610 1007 q 518 1046 555 1046 q 454 1026 481 1046 q 427 962 427 1007 q 454 899 427 918 q 518 879 481 879 q 583 899 555 879 q 610 962 610 918 m 490 1166 q 567 1245 526 1200 q 639 1331 607 1291 l 787 1331 l 783 1320 q 738 1280 766 1303 q 677 1235 710 1258 q 609 1190 644 1211 q 542 1153 574 1168 l 486 1153 l 490 1166 z "},"Ǽ":{"ha":1321,"x_min":-86,"x_max":1336,"o":"m -86 0 l -66 58 l -40 58 q 24 77 -3 58 q 103 167 52 96 l 656 925 l 538 933 l 550 991 l 1336 991 l 1292 749 l 1219 749 q 1226 829 1226 796 q 1128 922 1226 922 l 895 922 l 815 553 l 1150 553 l 1136 485 l 802 485 l 713 69 l 981 69 q 1137 183 1097 69 l 1160 243 l 1232 243 l 1171 0 l 427 0 l 437 58 l 456 58 q 553 82 526 58 q 590 151 581 106 l 628 332 l 314 332 l 210 186 q 172 104 172 134 q 243 58 172 58 l 275 58 l 256 0 l -86 0 m 753 922 l 726 922 q 550 657 661 808 l 366 401 l 643 401 l 753 922 m 897 1089 q 1046 1293 977 1181 l 1194 1293 l 1190 1279 q 949 1071 1084 1155 l 893 1071 l 897 1089 z "},"ǽ":{"ha":1129,"x_min":60,"x_max":1103,"o":"m 1002 174 q 1015 139 1015 164 q 950 34 1015 82 q 775 -14 884 -14 q 610 37 680 -14 q 518 186 541 88 q 269 -14 439 -14 q 117 60 174 -14 q 60 262 60 133 q 171 605 60 451 q 465 758 283 758 q 677 672 574 758 q 918 758 781 758 q 1055 716 1006 758 q 1103 599 1103 674 q 986 403 1103 486 q 700 319 869 319 l 676 319 q 652 321 664 319 q 648 262 648 304 q 802 74 648 74 q 1002 174 918 74 m 614 606 q 472 696 548 696 q 278 549 355 696 q 201 248 201 401 q 232 119 201 165 q 318 74 263 74 q 438 141 387 74 q 509 322 489 208 q 614 606 534 480 m 664 385 l 677 385 q 880 444 800 385 q 960 599 960 504 q 879 692 960 692 q 752 605 811 692 q 664 385 694 519 m 625 860 q 774 1064 705 951 l 922 1064 l 918 1050 q 677 842 812 926 l 621 842 l 625 860 z "},"Ǿ":{"ha":1031,"x_min":72,"x_max":987,"o":"m 825 956 l 897 1048 l 978 1048 l 876 917 q 987 625 987 814 q 833 186 987 387 q 436 -16 678 -16 q 240 35 324 -16 l 175 -56 l 93 -56 l 186 74 q 72 370 72 180 q 228 808 72 608 q 628 1007 384 1007 q 825 956 740 1007 m 257 170 l 766 873 q 616 932 709 932 q 333 740 443 932 q 224 330 224 547 q 257 170 224 236 m 806 817 l 297 114 q 444 61 355 61 q 726 253 617 61 q 835 663 835 444 q 806 817 835 750 m 561 1089 q 709 1293 640 1181 l 858 1293 l 854 1279 q 612 1071 747 1155 l 557 1071 l 561 1089 z "},"ǿ":{"ha":802,"x_min":7,"x_max":798,"o":"m 639 708 l 717 800 l 798 800 l 685 663 q 737 471 737 591 q 624 134 737 284 q 326 -17 511 -17 q 161 32 231 -17 l 89 -56 l 7 -56 l 117 77 q 60 273 60 151 q 174 609 60 460 q 473 758 288 758 q 639 708 574 758 m 207 186 l 568 623 q 457 685 535 685 q 274 549 344 685 q 204 245 204 412 q 207 186 204 201 m 589 549 l 229 114 q 342 52 260 52 q 524 188 456 52 q 593 492 593 325 q 589 549 593 522 m 427 860 q 575 1064 506 951 l 724 1064 l 720 1050 q 478 842 613 926 l 422 842 l 427 860 z "},"Ș":{"ha":755,"x_min":9,"x_max":768,"o":"m 117 290 q 173 119 117 184 q 328 54 229 54 q 482 102 425 54 q 539 233 539 151 q 506 345 539 299 q 364 452 473 390 q 210 584 253 516 q 167 737 167 652 q 258 931 167 857 q 504 1006 349 1006 q 696 964 625 1006 q 768 856 768 922 q 646 760 768 760 q 607 888 646 841 q 493 936 568 936 q 357 888 410 936 q 304 761 304 841 q 333 659 304 702 q 476 549 361 616 q 634 422 585 485 q 682 278 682 359 q 586 63 682 140 q 318 -14 490 -14 q 93 42 176 -14 q 9 184 9 98 q 40 261 9 233 q 117 290 70 290 m 191 -289 l 219 -223 q 273 -85 248 -155 l 393 -85 l 391 -98 q 235 -307 319 -211 l 188 -307 l 191 -289 z "},"ș":{"ha":644,"x_min":35,"x_max":607,"o":"m 503 539 q 470 651 503 609 q 378 693 437 693 q 279 660 315 693 q 243 574 243 626 q 277 495 243 528 q 385 431 312 463 q 551 215 551 356 q 473 50 551 113 q 264 -14 394 -14 q 97 29 159 -14 q 35 143 35 71 q 59 211 35 188 q 122 235 84 235 q 164 101 122 149 q 281 53 205 53 q 431 182 431 53 q 399 266 431 231 q 290 335 367 300 q 156 433 191 382 q 122 550 122 484 q 196 699 122 641 q 390 757 271 757 q 550 719 492 757 q 607 625 607 681 q 503 539 607 539 m 139 -289 l 168 -223 q 221 -85 196 -155 l 342 -85 l 339 -98 q 184 -307 267 -211 l 136 -307 l 139 -289 z "},"ˆ":{"ha":802,"x_min":254,"x_max":668,"o":"m 258 860 q 441 1064 385 984 l 574 1064 q 668 860 593 985 l 664 842 l 615 842 q 492 966 551 886 q 314 842 390 880 l 254 842 l 258 860 z "},"ˇ":{"ha":802,"x_min":326,"x_max":741,"o":"m 736 1046 q 553 842 632 944 l 421 842 q 326 1046 387 945 l 330 1064 l 380 1064 q 498 937 445 1013 q 682 1064 586 1012 l 741 1064 l 736 1046 z "},"ˉ":{"ha":694,"x_min":248,"x_max":668,"o":"m 650 842 l 248 842 l 265 924 l 668 924 l 650 842 z "},"˘":{"ha":802,"x_min":215,"x_max":614,"o":"m 215 1032 l 279 1032 q 400 937 290 937 q 550 1032 511 937 l 614 1032 q 531 892 591 943 q 390 842 471 842 q 215 1032 227 842 z "},"˙":{"ha":422,"x_min":233,"x_max":395,"o":"m 311 884 q 233 960 233 884 q 256 1030 233 1004 q 317 1057 279 1057 q 395 981 395 1057 q 371 908 395 933 q 311 884 348 884 z "},"˚":{"ha":463,"x_min":175,"x_max":509,"o":"m 342 828 q 222 868 269 828 q 175 979 175 908 q 222 1090 175 1050 q 342 1131 269 1131 q 462 1090 415 1131 q 509 979 509 1050 q 461 868 509 908 q 342 828 414 828 m 342 1063 q 250 979 250 1063 q 342 896 250 896 q 433 979 433 896 q 342 1063 433 1063 z "},"˛":{"ha":694,"x_min":231,"x_max":521,"o":"m 517 0 q 397 -71 443 -24 q 351 -172 351 -117 q 373 -227 351 -207 q 431 -248 395 -248 q 521 -236 466 -248 l 504 -311 q 393 -334 451 -334 q 231 -192 231 -334 q 284 -73 231 -123 q 437 0 338 -22 l 517 0 z "},"˜":{"ha":802,"x_min":233,"x_max":760,"o":"m 697 1006 l 760 1006 q 579 842 711 842 q 465 886 524 842 q 379 929 404 929 q 296 856 319 929 l 233 856 q 415 1019 282 1019 q 530 976 471 1019 q 614 932 589 932 q 697 1006 674 932 z "},"˝":{"ha":802,"x_min":131,"x_max":682,"o":"m 131 842 l 135 860 q 283 1064 211 950 l 432 1064 l 428 1050 q 192 842 333 942 l 131 842 m 380 842 l 385 860 q 533 1064 456 942 l 682 1064 l 677 1050 q 596 968 675 1041 q 441 842 518 895 l 380 842 z "},"΄":{"ha":802,"x_min":319,"x_max":545,"o":"m 322 860 q 419 1064 390 973 l 545 1064 l 542 1050 q 486 971 540 1038 q 366 842 433 904 l 319 842 l 322 860 z "},"΅":{"ha":802,"x_min":192,"x_max":614,"o":"m 351 960 q 449 1164 416 1068 l 574 1164 l 571 1150 q 516 1072 568 1137 q 395 942 464 1006 l 349 942 l 351 960 m 254 875 q 192 937 192 875 q 258 1015 192 1015 q 321 953 321 1015 q 254 875 321 875 m 547 875 q 485 937 485 875 q 551 1015 485 1015 q 614 953 614 1015 q 547 875 614 875 z "},"Ά":{"ha":979,"x_min":-78,"x_max":913,"o":"m 277 332 l 193 186 q 167 109 167 140 q 244 58 167 58 l 277 58 l 265 0 l -78 0 l -66 58 l -40 58 q 22 78 -3 58 q 89 167 47 97 l 572 991 l 681 991 l 812 132 q 836 74 819 89 q 895 58 853 58 l 913 58 l 901 0 l 524 0 l 534 58 l 567 58 q 667 129 667 58 q 664 176 667 157 l 642 332 l 277 332 m 597 644 q 575 864 576 792 q 467 657 543 789 l 318 401 l 632 401 l 597 644 m 161 789 q 258 993 229 902 l 384 993 l 381 979 q 326 900 379 966 q 205 770 272 833 l 159 770 l 161 789 z "},"·":{"ha":397,"x_min":127,"x_max":305,"o":"m 214 399 q 127 484 127 399 q 152 561 127 532 q 219 590 177 590 q 305 505 305 590 q 280 427 305 456 q 214 399 256 399 z "},"Έ":{"ha":978,"x_min":38,"x_max":993,"o":"m 370 69 l 637 69 q 795 183 755 69 l 817 243 l 889 243 l 828 0 l 83 0 l 94 58 l 113 58 q 211 83 183 58 q 248 151 238 108 l 392 833 q 396 867 396 852 q 377 916 396 899 q 298 933 358 933 l 281 933 l 293 991 l 993 991 l 949 749 l 876 749 l 880 791 q 884 829 884 824 q 785 922 884 922 l 551 922 l 472 553 l 807 553 l 793 485 l 458 485 l 370 69 m 41 789 q 138 993 109 902 l 263 993 l 260 979 q 205 900 258 966 q 84 770 151 833 l 38 770 l 41 789 z "},"Ή":{"ha":1211,"x_min":35,"x_max":1286,"o":"m 672 0 l 684 58 l 701 58 q 798 83 768 58 q 838 158 827 108 l 906 484 l 454 484 l 385 153 q 379 114 379 123 q 479 58 379 58 l 497 58 l 485 0 l 81 0 l 92 58 l 110 58 q 206 84 177 58 q 246 158 235 109 l 391 839 q 396 878 396 865 q 296 933 396 933 l 278 933 l 290 991 l 694 991 l 682 933 l 664 933 q 568 908 597 933 q 529 833 539 883 l 469 553 l 921 553 l 982 839 q 987 878 987 865 q 888 933 987 933 l 869 933 l 882 991 l 1286 991 l 1274 933 l 1256 933 q 1160 908 1190 933 q 1121 833 1131 882 l 977 153 q 971 114 971 127 q 1071 58 971 58 l 1089 58 l 1076 0 l 672 0 m 38 789 q 135 993 106 902 l 260 993 l 258 979 q 202 900 256 966 q 81 770 149 833 l 35 770 l 38 789 z "},"Ί":{"ha":619,"x_min":35,"x_max":694,"o":"m 694 991 l 682 933 l 664 933 q 568 908 597 933 q 529 833 539 883 l 385 153 q 379 114 379 123 q 479 58 379 58 l 497 58 l 485 0 l 81 0 l 92 58 l 110 58 q 246 158 225 58 l 391 839 q 396 878 396 865 q 296 933 396 933 l 278 933 l 290 991 l 694 991 m 38 789 q 135 993 106 902 l 260 993 l 258 979 q 202 900 256 966 q 81 770 149 833 l 35 770 l 38 789 z "},"Ό":{"ha":1031,"x_min":6,"x_max":987,"o":"m 628 1007 q 888 907 789 1007 q 987 625 987 806 q 833 186 987 387 q 436 -16 678 -16 q 172 89 271 -16 q 72 370 72 193 q 228 808 72 608 q 628 1007 384 1007 m 444 61 q 726 253 617 61 q 835 663 835 444 q 778 862 835 792 q 616 932 720 932 q 333 740 443 932 q 224 330 224 547 q 283 131 224 200 q 444 61 342 61 m 9 789 q 106 993 77 902 l 231 993 l 229 979 q 173 900 227 966 q 52 770 119 833 l 6 770 l 9 789 z "},"Ύ":{"ha":1038,"x_min":37,"x_max":1168,"o":"m 664 991 l 652 933 l 582 933 q 525 896 525 933 q 543 815 525 869 l 606 629 q 643 463 639 530 q 747 608 656 488 l 880 785 q 930 897 930 852 q 864 933 930 933 l 812 933 l 825 991 l 1168 991 l 1156 933 l 1129 933 q 1077 912 1103 933 q 1003 828 1050 890 l 680 404 l 625 153 q 620 114 620 127 q 720 58 620 58 l 751 58 l 739 0 l 307 0 l 319 58 l 351 58 q 448 82 421 58 q 485 151 475 106 l 539 407 l 378 860 q 347 919 362 904 q 294 933 332 933 l 277 933 l 289 991 l 664 991 m 39 789 q 136 993 107 902 l 262 993 l 259 979 q 203 900 257 966 q 83 770 150 833 l 37 770 l 39 789 z "},"Ώ":{"ha":1046,"x_min":-22,"x_max":1000,"o":"m 465 0 l 528 290 q 777 439 705 311 q 848 696 848 568 q 787 871 848 810 q 610 932 726 932 q 341 801 423 932 q 258 514 258 670 q 304 361 258 422 q 433 290 350 300 l 380 0 l -8 0 l 11 243 l 83 243 l 83 197 q 109 129 83 147 q 196 111 134 111 l 328 111 l 351 233 q 171 341 237 258 q 106 545 106 425 q 242 870 106 733 q 627 1007 378 1007 q 900 923 800 1007 q 1000 690 1000 838 q 899 391 1000 513 q 595 233 797 269 l 566 111 l 697 111 q 793 130 760 111 q 848 197 827 148 l 868 243 l 940 243 l 878 0 l 465 0 m -19 789 q 78 993 49 902 l 203 993 l 201 979 q 145 900 199 966 q 24 770 92 833 l -22 770 l -19 789 z "},"ΐ":{"ha":464,"x_min":103,"x_max":553,"o":"m 349 745 l 248 269 q 231 150 231 189 q 304 74 231 74 q 408 102 353 74 l 432 50 q 243 -14 342 -14 q 103 149 103 -14 q 117 265 103 201 l 218 745 l 349 745 m 291 960 q 389 1164 355 1068 l 513 1164 l 511 1150 q 456 1072 508 1137 q 334 942 404 1006 l 288 942 l 291 960 m 194 875 q 132 937 132 875 q 198 1015 132 1015 q 260 953 260 1015 q 194 875 260 875 m 487 875 q 425 937 425 875 q 491 1015 425 1015 q 553 953 553 1015 q 487 875 553 875 z "},"Α":{"ha":979,"x_min":-78,"x_max":913,"o":"m 277 332 l 193 186 q 167 109 167 140 q 244 58 167 58 l 277 58 l 265 0 l -78 0 l -66 58 l -40 58 q 22 78 -3 58 q 89 167 47 97 l 572 991 l 681 991 l 812 132 q 836 74 819 89 q 895 58 853 58 l 913 58 l 901 0 l 524 0 l 534 58 l 567 58 q 667 129 667 58 q 664 176 667 157 l 642 332 l 277 332 m 597 644 q 575 864 576 792 q 467 657 543 789 l 318 401 l 632 401 l 597 644 z "},"Β":{"ha":908,"x_min":-29,"x_max":865,"o":"m -18 58 l 0 58 q 136 158 115 58 l 281 839 q 286 878 286 865 q 186 933 286 933 l 168 933 l 180 991 l 541 991 q 865 783 865 991 q 639 525 865 578 l 637 519 q 807 317 807 486 q 705 82 807 164 q 407 0 602 0 l -29 0 l -18 58 m 359 554 l 467 554 q 714 765 714 554 q 522 922 714 922 l 439 922 l 359 554 m 257 69 l 392 69 q 657 326 657 69 q 463 485 657 485 l 346 485 l 257 69 z "},"Γ":{"ha":779,"x_min":-28,"x_max":871,"o":"m 403 0 l -28 0 l -16 58 l 1 58 q 136 158 115 58 l 279 833 q 286 878 286 865 q 186 933 286 933 l 168 933 l 180 991 l 871 991 l 828 749 l 755 749 q 762 829 762 808 q 734 903 762 883 q 648 922 707 922 l 439 922 l 275 153 q 269 114 269 124 q 370 58 269 58 l 415 58 l 403 0 z "},"Δ":{"ha":844,"x_min":-50,"x_max":724,"o":"m 707 0 l -50 0 l -35 74 l 484 991 l 604 991 l 724 83 l 707 0 m 578 93 l 514 637 q 493 864 493 814 q 383 650 460 785 l 69 93 l 578 93 z "},"Ε":{"ha":865,"x_min":-29,"x_max":880,"o":"m 257 69 l 525 69 q 682 183 642 69 l 704 243 l 777 243 l 715 0 l -29 0 l -18 58 l 0 58 q 98 83 71 58 q 135 151 125 108 l 279 833 q 283 867 283 852 q 264 916 283 899 q 186 933 245 933 l 168 933 l 180 991 l 880 991 l 836 749 l 764 749 l 768 791 q 771 829 771 824 q 672 922 771 922 l 439 922 l 359 553 l 694 553 l 681 485 l 346 485 l 257 69 z "},"Ζ":{"ha":840,"x_min":-24,"x_max":876,"o":"m 865 935 l 165 69 l 536 69 q 676 183 640 69 l 696 243 l 768 243 l 710 0 l -24 0 l -12 56 l 686 922 l 363 922 q 224 808 260 922 l 204 749 l 132 749 l 191 991 l 876 991 l 865 935 z "},"Η":{"ha":1101,"x_min":-29,"x_max":1177,"o":"m 562 0 l 574 58 l 591 58 q 688 83 658 58 q 728 158 718 108 l 796 484 l 345 484 l 275 153 q 269 114 269 123 q 370 58 269 58 l 387 58 l 375 0 l -29 0 l -18 58 l 0 58 q 96 84 67 58 q 136 158 125 109 l 281 839 q 286 878 286 865 q 186 933 286 933 l 168 933 l 180 991 l 585 991 l 572 933 l 554 933 q 458 908 488 933 q 419 833 429 883 l 359 553 l 811 553 l 872 839 q 878 878 878 865 q 778 933 878 933 l 760 933 l 772 991 l 1177 991 l 1164 933 l 1146 933 q 1050 908 1080 933 q 1011 833 1021 882 l 867 153 q 861 114 861 127 q 961 58 861 58 l 979 58 l 966 0 l 562 0 z "},"Θ":{"ha":1031,"x_min":72,"x_max":987,"o":"m 628 1007 q 888 907 789 1007 q 987 625 987 806 q 833 186 987 387 q 436 -16 678 -16 q 172 89 271 -16 q 72 370 72 193 q 228 808 72 608 q 628 1007 384 1007 m 444 61 q 726 253 617 61 q 835 663 835 444 q 778 862 835 792 q 616 932 720 932 q 333 740 443 932 q 224 330 224 547 q 283 131 224 200 q 444 61 342 61 m 415 631 l 416 604 q 447 551 418 562 q 518 541 475 541 l 553 541 q 685 604 655 541 l 697 631 l 755 631 l 701 380 l 643 380 l 642 407 q 538 471 639 465 l 503 471 q 418 456 444 471 q 374 407 392 441 l 361 380 l 302 380 l 357 631 l 415 631 z "},"Ι":{"ha":510,"x_min":-29,"x_max":585,"o":"m 585 991 l 572 933 l 554 933 q 458 908 488 933 q 419 833 429 883 l 275 153 q 269 114 269 123 q 370 58 269 58 l 387 58 l 375 0 l -29 0 l -18 58 l 0 58 q 136 158 115 58 l 281 839 q 286 878 286 865 q 186 933 286 933 l 168 933 l 180 991 l 585 991 z "},"Κ":{"ha":972,"x_min":-29,"x_max":1054,"o":"m -18 58 l 0 58 q 96 84 67 58 q 136 158 125 109 l 281 839 q 286 878 286 865 q 186 933 286 933 l 168 933 l 180 991 l 585 991 l 572 933 l 554 933 q 458 908 488 933 q 419 833 429 883 l 359 553 l 335 450 l 693 779 q 798 904 798 875 q 736 935 798 935 l 747 991 l 1054 991 l 1043 935 q 963 910 1007 935 q 829 804 919 886 l 576 575 l 745 170 q 876 58 791 58 l 880 58 l 868 0 l 848 0 q 685 23 739 0 q 599 129 631 45 l 464 472 l 321 372 l 275 153 q 269 114 269 123 q 370 58 269 58 l 387 58 l 375 0 l -29 0 l -18 58 z "},"Λ":{"ha":937,"x_min":-78,"x_max":871,"o":"m 652 991 l 770 132 q 790 77 774 96 q 852 58 806 58 l 871 58 l 859 0 l 476 0 l 489 58 l 521 58 q 621 134 621 58 q 618 176 621 160 l 561 632 q 547 856 547 741 q 435 632 506 759 l 187 186 q 161 110 161 139 q 240 58 161 58 l 272 58 l 260 0 l -78 0 l -65 58 l -39 58 q 25 78 2 58 q 87 167 49 98 l 550 991 l 652 991 z "},"Μ":{"ha":1303,"x_min":-28,"x_max":1378,"o":"m 799 0 l 811 58 l 815 58 q 898 80 874 58 q 933 146 922 102 l 1092 888 l 585 0 l 510 0 l 375 888 l 220 153 q 214 114 214 123 q 314 58 214 58 l 332 58 l 319 0 l -28 0 l -16 58 l 3 58 q 99 83 72 58 q 135 151 125 107 l 281 839 q 286 878 286 865 q 186 933 286 933 l 168 933 l 180 991 l 496 991 l 614 200 l 1068 991 l 1378 991 l 1365 933 l 1348 933 q 1252 908 1281 933 q 1213 833 1223 882 l 1068 153 q 1063 114 1063 127 q 1162 58 1063 58 l 1181 58 l 1168 0 l 799 0 z "},"Ν":{"ha":1060,"x_min":-28,"x_max":1149,"o":"m 900 839 q 905 878 905 865 q 806 933 905 933 l 787 933 l 800 991 l 1149 991 l 1136 933 l 1118 933 q 1023 908 1052 933 q 983 833 994 882 l 807 0 l 717 0 l 359 814 l 220 153 q 214 114 214 123 q 314 58 214 58 l 332 58 l 319 0 l -28 0 l -16 58 l 3 58 q 96 84 68 58 q 136 158 125 109 l 281 839 q 286 878 286 865 q 186 933 286 933 l 168 933 l 180 991 l 433 991 l 770 225 l 900 839 z "},"Ξ":{"ha":863,"x_min":-16,"x_max":884,"o":"m 836 734 l 764 734 q 768 800 768 787 q 672 880 768 880 l 399 880 q 260 777 296 880 l 245 734 l 174 734 l 235 991 l 884 991 l 836 734 m 323 643 l 325 616 q 350 567 327 581 q 427 553 373 553 l 503 553 q 635 616 605 553 l 647 643 l 705 643 l 650 379 l 591 379 l 590 406 q 485 469 587 463 l 408 469 q 322 454 348 469 q 281 406 297 439 l 268 379 l 210 379 l 265 643 l 323 643 m 715 0 l -16 0 l 33 273 l 106 273 q 103 212 103 238 q 197 127 103 127 l 554 127 q 693 232 659 127 l 707 273 l 779 273 l 715 0 z "},"Ο":{"ha":1031,"x_min":72,"x_max":987,"o":"m 628 1007 q 888 907 789 1007 q 987 625 987 806 q 833 186 987 387 q 436 -16 678 -16 q 172 89 271 -16 q 72 370 72 193 q 228 808 72 608 q 628 1007 384 1007 m 444 61 q 726 253 617 61 q 835 663 835 444 q 778 862 835 792 q 616 932 720 932 q 333 740 443 932 q 224 330 224 547 q 283 131 224 200 q 444 61 342 61 z "},"Π":{"ha":1060,"x_min":-29,"x_max":1135,"o":"m 521 0 l 533 58 l 551 58 q 646 83 617 58 q 686 158 675 109 l 848 922 l 439 922 l 275 153 q 269 114 269 124 q 370 58 269 58 l 387 58 l 375 0 l -29 0 l -18 58 l 0 58 q 96 84 67 58 q 136 158 125 109 l 281 839 q 286 878 286 865 q 186 933 286 933 l 168 933 l 180 991 l 1135 991 l 1122 933 l 1104 933 q 1009 909 1038 933 q 970 833 981 884 l 825 153 q 819 114 819 124 q 920 58 819 58 l 937 58 l 925 0 l 521 0 z "},"Ρ":{"ha":861,"x_min":-28,"x_max":852,"o":"m -28 0 l -16 58 l 3 58 q 97 83 68 58 q 136 158 126 109 l 281 839 q 286 878 286 865 q 186 933 286 933 l 168 933 l 180 991 l 536 991 q 770 922 687 991 q 852 724 852 852 q 746 476 852 566 q 428 386 640 386 l 325 386 l 275 153 q 269 114 269 124 q 370 58 269 58 l 415 58 l 403 0 l -28 0 m 339 452 l 412 452 q 705 722 705 452 q 503 925 705 925 l 439 925 l 339 452 z "},"Σ":{"ha":840,"x_min":-49,"x_max":842,"o":"m 518 127 q 676 260 629 127 l 692 301 l 764 301 l 693 0 l -49 0 l -40 45 l 350 493 l 182 951 l 191 991 l 842 991 l 798 749 l 725 749 l 729 790 q 732 829 732 818 q 633 921 732 921 l 347 921 l 481 551 l 471 528 l 123 127 l 518 127 z "},"Τ":{"ha":851,"x_min":106,"x_max":946,"o":"m 446 153 q 440 114 440 127 q 541 58 440 58 l 572 58 l 559 0 l 127 0 l 140 58 l 172 58 q 269 82 242 58 q 306 151 296 106 l 469 922 l 336 922 q 197 808 237 922 l 178 749 l 106 749 l 164 991 l 946 991 l 901 749 l 829 749 q 836 833 836 803 q 745 922 836 922 l 610 922 l 446 153 z "},"Υ":{"ha":868,"x_min":107,"x_max":999,"o":"m 494 991 l 482 933 l 412 933 q 355 896 355 933 q 374 815 355 869 l 436 629 q 473 463 469 530 q 578 608 487 488 l 710 785 q 761 897 761 852 q 694 933 761 933 l 643 933 l 656 991 l 999 991 l 986 933 l 960 933 q 907 912 933 933 q 833 828 881 890 l 510 404 l 456 153 q 450 114 450 127 q 550 58 450 58 l 582 58 l 570 0 l 138 0 l 150 58 l 182 58 q 279 82 252 58 q 315 151 306 106 l 370 407 l 208 860 q 177 919 193 904 q 125 933 162 933 l 107 933 l 119 991 l 494 991 z "},"Φ":{"ha":1063,"x_min":50,"x_max":1039,"o":"m 549 839 q 554 878 554 865 q 452 933 554 933 l 433 933 l 446 991 l 847 991 l 835 933 l 819 933 q 721 908 750 933 q 682 833 692 884 l 676 806 l 720 806 q 955 735 871 806 q 1039 538 1039 665 q 930 290 1039 380 q 611 200 822 200 l 547 200 l 538 153 q 532 114 532 122 q 635 58 532 58 l 650 58 l 637 0 l 237 0 l 250 58 l 268 58 q 404 158 383 58 l 412 200 l 367 200 q 133 270 216 200 q 50 468 50 340 q 156 716 50 626 q 475 806 262 806 l 542 806 l 549 839 m 528 741 l 490 741 q 197 469 197 741 q 400 267 197 267 l 428 267 l 528 741 m 561 265 l 596 265 q 892 536 892 265 q 686 739 892 739 l 661 739 l 561 265 z "},"Χ":{"ha":917,"x_min":-68,"x_max":1002,"o":"m 989 933 l 977 933 q 908 913 939 933 q 819 829 878 892 l 557 539 l 724 132 q 819 58 754 58 l 838 58 l 825 0 l 450 0 l 463 58 l 478 58 q 543 72 519 58 q 567 107 567 86 q 541 203 567 136 l 450 424 l 243 193 q 187 96 187 132 q 269 58 187 58 l 273 58 l 261 0 l -68 0 l -56 58 l -50 58 q 31 82 -5 58 q 114 158 66 106 l 421 493 l 272 863 q 164 933 243 933 l 146 933 l 158 991 l 534 991 l 522 933 l 490 933 q 425 895 425 933 q 450 811 425 875 l 529 608 l 703 808 q 755 899 755 869 q 689 933 755 933 l 685 933 l 697 991 l 1002 991 l 989 933 z "},"Ψ":{"ha":1150,"x_min":126,"x_max":1274,"o":"m 914 991 l 901 933 l 884 933 q 789 909 819 933 q 749 833 760 884 l 659 411 l 692 411 q 862 461 804 411 q 953 664 920 511 l 1022 991 l 1274 991 l 1261 933 q 1166 908 1196 933 q 1126 833 1137 884 l 1090 661 q 957 421 1056 496 q 692 346 858 346 l 644 346 l 604 153 q 599 114 599 126 q 699 58 599 58 l 717 58 l 704 0 l 309 0 l 319 58 l 338 58 q 433 83 404 58 q 473 158 463 108 l 513 346 l 467 346 q 189 557 189 346 q 201 661 189 600 l 239 839 q 244 878 244 865 q 144 933 244 933 l 126 933 l 139 991 l 408 991 l 339 664 q 323 547 323 590 q 505 411 323 411 l 526 411 l 618 839 q 624 878 624 867 q 524 933 624 933 l 505 933 l 518 991 l 914 991 z "},"Ω":{"ha":1046,"x_min":-8,"x_max":1000,"o":"m 465 0 l 528 290 q 777 439 705 311 q 848 696 848 568 q 787 871 848 810 q 610 932 726 932 q 341 801 423 932 q 258 514 258 670 q 304 361 258 422 q 433 290 350 300 l 380 0 l -8 0 l 11 243 l 83 243 l 83 197 q 109 129 83 147 q 196 111 134 111 l 328 111 l 351 233 q 171 341 237 258 q 106 545 106 425 q 242 870 106 733 q 627 1007 378 1007 q 900 923 800 1007 q 1000 690 1000 838 q 899 391 1000 513 q 595 233 797 269 l 566 111 l 697 111 q 793 130 760 111 q 848 197 827 148 l 868 243 l 940 243 l 878 0 l 465 0 z "},"Ϊ":{"ha":510,"x_min":-29,"x_max":613,"o":"m 585 991 l 572 933 l 554 933 q 458 908 488 933 q 419 833 429 883 l 275 153 q 269 114 269 123 q 370 58 269 58 l 387 58 l 375 0 l -29 0 l -18 58 l 0 58 q 136 158 115 58 l 281 839 q 286 878 286 865 q 186 933 286 933 l 168 933 l 180 991 l 585 991 m 274 1107 q 205 1177 205 1107 q 279 1264 205 1264 q 349 1194 349 1264 q 274 1107 349 1107 m 538 1107 q 469 1177 469 1107 q 543 1264 469 1264 q 613 1194 613 1264 q 538 1107 613 1107 z "},"Ϋ":{"ha":868,"x_min":107,"x_max":999,"o":"m 494 991 l 482 933 l 412 933 q 355 896 355 933 q 374 815 355 869 l 436 629 q 473 463 469 530 q 578 608 487 488 l 710 785 q 761 897 761 852 q 694 933 761 933 l 643 933 l 656 991 l 999 991 l 986 933 l 960 933 q 907 912 933 933 q 833 828 881 890 l 510 404 l 456 153 q 450 114 450 127 q 550 58 450 58 l 582 58 l 570 0 l 138 0 l 150 58 l 182 58 q 279 82 252 58 q 315 151 306 106 l 370 407 l 208 860 q 177 919 193 904 q 125 933 162 933 l 107 933 l 119 991 l 494 991 m 464 1107 q 395 1177 395 1107 q 469 1264 395 1264 q 539 1194 539 1264 q 464 1107 539 1107 m 728 1107 q 659 1177 659 1107 q 733 1264 659 1264 q 803 1194 803 1264 q 728 1107 803 1107 z "},"ά":{"ha":833,"x_min":57,"x_max":815,"o":"m 501 140 l 496 140 q 261 -14 397 -14 q 112 56 168 -14 q 57 243 57 125 q 166 610 57 462 q 428 758 275 758 q 604 612 575 758 l 612 612 q 715 745 663 707 l 815 745 q 689 471 736 644 l 648 318 q 627 163 627 237 q 690 83 627 83 q 761 111 718 83 l 786 66 q 628 -7 707 -7 q 501 140 514 -7 m 542 400 l 564 488 q 559 553 566 498 q 522 640 551 608 q 441 672 493 672 q 269 544 340 672 q 197 248 197 415 q 311 75 197 75 q 542 400 456 75 m 446 860 q 543 1064 513 973 l 668 1064 l 665 1050 q 610 971 663 1038 q 489 842 556 904 l 443 842 l 446 860 z "},"έ":{"ha":689,"x_min":41,"x_max":673,"o":"m 240 387 l 241 395 q 140 545 140 437 q 223 701 140 646 q 449 757 305 757 q 615 725 557 757 q 673 637 673 692 q 554 543 673 543 q 433 693 554 693 q 313 648 355 693 q 271 533 271 603 q 298 451 271 477 q 364 424 326 424 q 391 430 365 424 q 475 444 450 444 q 528 407 528 444 q 441 340 528 340 q 330 361 390 340 q 221 300 264 346 q 178 192 178 255 q 332 74 178 74 q 579 176 469 74 q 595 142 595 166 q 518 33 595 79 q 314 -14 442 -14 q 41 180 41 -14 q 240 387 41 328 m 420 860 q 517 1064 488 973 l 643 1064 l 640 1050 q 585 971 638 1038 q 464 842 531 904 l 418 842 l 420 860 z "},"ή":{"ha":822,"x_min":60,"x_max":728,"o":"m 160 471 q 182 703 182 572 l 182 726 q 180 745 182 736 l 260 745 q 288 607 281 718 l 296 607 q 539 758 406 758 q 728 579 728 758 q 717 486 728 538 l 593 -97 q 571 -256 571 -200 q 576 -334 571 -314 l 443 -334 q 437 -281 437 -316 q 465 -81 437 -208 l 587 493 q 596 557 596 534 q 489 669 596 669 q 275 404 331 669 l 191 0 l 60 0 l 160 471 m 472 860 q 569 1064 540 973 l 694 1064 l 692 1050 q 636 971 690 1038 q 515 842 583 904 l 469 842 l 472 860 z "},"ί":{"ha":464,"x_min":103,"x_max":484,"o":"m 349 745 l 248 269 q 231 150 231 189 q 304 74 231 74 q 408 102 353 74 l 432 50 q 243 -14 342 -14 q 103 149 103 -14 q 117 265 103 201 l 218 745 l 349 745 m 262 860 q 359 1064 330 973 l 484 1064 l 481 1050 q 426 971 479 1038 q 305 842 372 904 l 259 842 l 262 860 z "},"ΰ":{"ha":823,"x_min":79,"x_max":765,"o":"m 254 310 q 243 222 243 258 q 385 75 243 75 q 587 210 507 75 q 667 519 667 344 q 570 664 667 650 q 659 760 583 760 q 736 711 708 760 q 765 579 765 662 q 651 166 765 346 q 354 -14 537 -14 q 174 45 237 -14 q 111 208 111 104 q 121 294 111 254 l 175 538 q 187 621 187 593 q 90 686 187 686 l 79 686 l 92 745 l 350 745 l 254 310 m 485 960 q 583 1164 549 1068 l 707 1164 l 705 1150 q 650 1072 702 1137 q 528 942 597 1006 l 482 942 l 485 960 m 388 875 q 326 937 326 875 q 392 1015 326 1015 q 454 953 454 1015 q 388 875 454 875 m 681 875 q 618 937 618 875 q 685 1015 618 1015 q 747 953 747 1015 q 681 875 747 875 z "},"α":{"ha":833,"x_min":57,"x_max":815,"o":"m 501 140 l 496 140 q 261 -14 397 -14 q 112 56 168 -14 q 57 243 57 125 q 166 610 57 462 q 428 758 275 758 q 604 612 575 758 l 612 612 q 715 745 663 707 l 815 745 q 689 471 736 644 l 648 318 q 627 163 627 237 q 690 83 627 83 q 761 111 718 83 l 786 66 q 628 -7 707 -7 q 501 140 514 -7 m 542 400 l 564 488 q 559 553 566 498 q 522 640 551 608 q 441 672 493 672 q 269 544 340 672 q 197 248 197 415 q 311 75 197 75 q 542 400 456 75 z "},"β":{"ha":829,"x_min":-11,"x_max":815,"o":"m -11 -335 l 228 790 q 555 1060 285 1060 q 746 1006 677 1060 q 815 856 815 952 q 585 595 815 660 l 585 589 q 745 361 745 524 q 651 90 745 193 q 403 -14 557 -14 q 201 49 274 -14 l 119 -335 l -11 -335 m 503 551 q 415 532 451 532 q 367 571 367 532 q 452 628 367 628 q 530 616 496 628 q 642 703 600 640 q 684 847 684 766 q 647 956 684 916 q 549 997 610 997 q 427 950 472 997 q 358 785 382 904 l 220 134 q 397 58 300 58 q 556 139 499 58 q 612 361 612 220 q 503 551 612 509 z "},"γ":{"ha":751,"x_min":33,"x_max":724,"o":"m 347 123 q 531 361 457 214 q 606 599 606 508 q 554 675 606 661 q 647 758 572 758 q 724 673 724 758 q 604 347 724 545 q 347 41 484 149 q 271 -232 324 -130 q 155 -334 218 -334 q 110 -281 110 -334 q 229 7 110 -162 q 187 526 213 390 q 113 661 161 661 q 53 643 87 661 l 33 685 q 191 749 120 749 q 306 607 276 749 q 347 123 336 466 z "},"δ":{"ha":802,"x_min":56,"x_max":796,"o":"m 410 635 q 296 833 296 724 q 372 1001 296 939 q 568 1063 449 1063 q 734 1025 673 1063 q 796 936 796 988 q 764 859 796 888 q 679 831 732 831 q 553 999 679 999 q 452 960 491 999 q 414 861 414 921 q 550 676 414 778 q 724 396 724 550 q 612 101 724 216 q 336 -14 500 -14 q 131 57 207 -14 q 56 249 56 127 q 410 635 56 537 m 458 597 q 258 469 330 561 q 187 252 187 378 q 230 109 187 159 q 349 58 273 58 q 522 144 455 58 q 589 370 589 230 q 458 597 589 507 z "},"ε":{"ha":689,"x_min":41,"x_max":673,"o":"m 240 387 l 241 395 q 140 545 140 437 q 223 701 140 646 q 449 757 305 757 q 615 725 557 757 q 673 637 673 692 q 554 543 673 543 q 433 693 554 693 q 313 648 355 693 q 271 533 271 603 q 298 451 271 477 q 364 424 326 424 q 391 430 365 424 q 475 444 450 444 q 528 407 528 444 q 441 340 528 340 q 330 361 390 340 q 221 300 264 346 q 178 192 178 255 q 332 74 178 74 q 579 176 469 74 q 595 142 595 166 q 518 33 595 79 q 314 -14 442 -14 q 41 180 41 -14 q 240 387 41 328 z "},"ζ":{"ha":642,"x_min":65,"x_max":791,"o":"m 504 916 q 283 1028 373 936 l 332 1078 q 566 970 429 982 q 734 1032 664 1032 q 791 991 791 1032 q 568 903 791 903 q 304 569 408 758 q 200 237 200 380 q 231 156 200 186 q 374 98 261 126 q 489 48 453 79 q 525 -36 525 18 q 464 -184 525 -117 q 293 -279 404 -250 l 272 -212 q 404 -89 404 -176 q 374 -33 404 -52 q 261 4 344 -15 q 65 200 65 48 q 175 541 65 336 q 504 916 285 747 z "},"η":{"ha":822,"x_min":60,"x_max":728,"o":"m 160 471 q 182 703 182 572 l 182 726 q 180 745 182 736 l 260 745 q 288 607 281 718 l 296 607 q 539 758 406 758 q 728 579 728 758 q 717 486 728 538 l 593 -97 q 571 -256 571 -200 q 576 -334 571 -314 l 443 -334 q 437 -281 437 -316 q 465 -81 437 -208 l 587 493 q 596 557 596 534 q 489 669 596 669 q 275 404 331 669 l 191 0 l 60 0 l 160 471 z "},"θ":{"ha":777,"x_min":77,"x_max":755,"o":"m 77 345 q 195 838 77 614 q 505 1061 313 1061 q 692 970 629 1061 q 755 710 755 880 q 634 221 755 455 q 315 -14 513 -14 q 139 79 201 -14 q 77 345 77 172 m 240 568 l 600 568 q 624 793 624 700 q 500 990 624 990 q 240 568 338 990 m 587 503 l 227 503 q 199 262 199 367 q 232 110 199 163 q 319 57 265 57 q 587 503 490 57 z "},"ι":{"ha":464,"x_min":103,"x_max":432,"o":"m 349 745 l 248 269 q 231 150 231 189 q 304 74 231 74 q 408 102 353 74 l 432 50 q 243 -14 342 -14 q 103 149 103 -14 q 117 265 103 201 l 218 745 l 349 745 z "},"κ":{"ha":804,"x_min":61,"x_max":800,"o":"m 693 575 q 635 661 693 661 q 555 619 601 661 q 424 456 510 576 l 590 160 q 659 70 629 91 q 728 49 689 49 l 743 49 l 729 -9 l 715 -9 q 565 12 617 -9 q 458 131 512 33 l 338 349 l 248 269 l 191 0 l 61 0 l 176 547 q 189 621 189 608 q 92 686 189 686 l 81 686 l 93 745 l 349 745 l 292 481 q 254 338 275 402 l 379 509 q 554 712 496 667 q 684 757 613 757 q 769 731 738 757 q 800 665 800 706 q 693 575 800 575 z "},"λ":{"ha":743,"x_min":-39,"x_max":688,"o":"m 441 721 q 412 909 436 840 q 325 978 387 978 q 215 918 263 978 q 200 970 200 930 q 231 1042 200 1015 q 321 1069 262 1069 q 456 1008 411 1069 q 513 814 501 946 l 550 328 q 596 129 559 199 q 681 58 632 58 l 688 58 l 677 0 l 646 0 q 518 41 554 0 q 469 246 482 81 q 456 575 456 410 l 452 575 q 335 353 415 479 l 107 0 l -39 0 l 441 721 z "},"μ":{"ha":839,"x_min":-3,"x_max":782,"o":"m 151 68 q 129 -100 129 -47 q 205 -212 129 -201 q 87 -334 193 -334 q -3 -233 -3 -334 q 39 -23 -3 -172 q 123 313 98 190 l 215 745 l 346 745 l 254 310 q 239 182 239 236 q 340 75 239 75 q 468 136 412 75 q 545 300 524 197 l 639 745 l 770 745 l 659 225 q 642 118 642 146 q 682 74 642 74 q 758 97 712 74 l 782 50 q 621 -14 690 -14 q 517 119 522 -14 l 510 119 q 309 -14 420 -14 q 151 68 194 -14 z "},"ν":{"ha":768,"x_min":33,"x_max":741,"o":"m 351 123 q 544 363 463 219 q 625 595 625 508 q 571 675 625 661 q 664 758 585 758 q 741 668 741 758 q 608 330 741 536 q 310 0 475 123 l 236 0 q 172 548 199 434 q 102 661 145 661 q 52 647 77 661 l 33 690 q 184 749 111 749 q 288 647 258 749 q 351 123 317 546 z "},"ξ":{"ha":653,"x_min":57,"x_max":717,"o":"m 397 593 l 399 600 q 207 753 207 649 q 408 947 207 852 q 207 1028 279 964 l 254 1078 q 475 997 339 1011 q 665 1059 577 1059 q 717 1025 717 1059 q 471 935 717 935 q 335 758 335 850 q 471 636 335 671 q 599 673 544 673 q 650 637 650 673 q 521 566 650 566 q 457 572 489 566 q 280 440 361 538 q 199 250 199 343 q 238 163 199 197 q 400 98 277 129 q 523 46 489 78 q 557 -36 557 15 q 496 -182 557 -116 q 325 -278 436 -249 l 304 -211 q 436 -89 436 -174 q 402 -30 436 -48 q 292 4 368 -11 q 57 208 57 51 q 148 429 57 324 q 397 593 239 534 z "},"ο":{"ha":798,"x_min":60,"x_max":737,"o":"m 473 758 q 667 684 596 758 q 737 471 737 610 q 624 136 737 286 q 326 -14 511 -14 q 130 62 201 -14 q 60 273 60 138 q 174 609 60 460 q 473 758 288 758 m 342 54 q 525 190 456 54 q 593 492 593 326 q 457 685 593 685 q 274 549 344 685 q 204 245 204 412 q 342 54 204 54 z "},"π":{"ha":869,"x_min":-16,"x_max":901,"o":"m 876 629 l 728 629 q 654 355 687 511 q 621 138 621 199 q 677 74 621 74 q 750 94 705 74 l 772 52 q 616 -11 691 -11 q 507 107 507 -11 q 552 340 507 180 q 648 629 596 501 l 383 629 l 281 235 q 192 33 239 72 q 74 -7 146 -7 q -16 17 22 -7 l 1 74 q 109 121 69 74 q 183 269 149 168 l 304 629 l 245 629 q 126 542 157 629 l 68 542 q 137 700 91 655 q 268 745 184 745 l 901 745 l 876 629 z "},"ρ":{"ha":847,"x_min":-12,"x_max":785,"o":"m 196 52 q 188 1 193 33 q 175 -68 183 -31 l 118 -334 l -12 -334 l 146 407 q 273 673 184 588 q 511 758 362 758 q 712 684 640 758 q 785 469 785 609 q 681 119 785 252 q 424 -14 576 -14 q 196 52 284 -14 m 216 126 q 415 58 304 58 q 584 173 516 58 q 652 469 652 287 q 504 685 652 685 q 363 621 416 685 q 277 407 309 557 l 216 126 z "},"ς":{"ha":657,"x_min":60,"x_max":676,"o":"m 293 -278 l 272 -211 q 404 -87 404 -175 q 371 -25 404 -47 q 261 14 338 -4 q 60 273 60 63 q 177 607 60 455 q 473 758 294 758 q 623 720 570 758 q 676 625 676 682 q 643 555 676 583 q 553 528 609 528 q 524 647 553 602 q 446 692 496 692 q 277 551 349 692 q 204 279 204 410 q 238 174 204 212 q 371 109 273 136 q 492 51 459 84 q 525 -35 525 17 q 464 -182 525 -116 q 293 -278 404 -249 z "},"σ":{"ha":839,"x_min":60,"x_max":901,"o":"m 901 745 l 878 629 l 656 629 q 739 385 739 516 q 637 93 739 203 q 359 -17 535 -17 q 140 66 221 -17 q 60 292 60 149 q 198 628 60 512 q 562 745 336 745 l 901 745 m 576 629 l 554 629 q 290 540 389 629 q 191 275 191 450 q 240 112 191 172 q 375 53 290 53 q 547 153 488 53 q 607 439 607 253 q 576 629 607 555 z "},"τ":{"ha":686,"x_min":64,"x_max":728,"o":"m 387 629 l 264 629 q 122 511 151 629 l 64 511 q 292 745 112 745 l 728 745 l 704 629 l 458 629 q 339 150 339 284 q 412 74 339 74 q 517 102 462 74 l 541 50 q 351 -14 454 -14 q 211 118 211 -14 q 387 629 211 267 z "},"υ":{"ha":823,"x_min":79,"x_max":765,"o":"m 254 310 q 243 222 243 258 q 385 75 243 75 q 587 210 507 75 q 667 519 667 344 q 570 664 667 650 q 659 760 583 760 q 736 711 708 760 q 765 579 765 662 q 651 166 765 346 q 354 -14 537 -14 q 174 45 237 -14 q 111 208 111 104 q 121 294 111 254 l 175 538 q 187 621 187 593 q 90 686 187 686 l 79 686 l 92 745 l 350 745 l 254 310 z "},"φ":{"ha":936,"x_min":60,"x_max":872,"o":"m 505 757 l 570 1055 l 653 1055 l 589 757 q 799 663 725 745 q 872 443 872 582 q 758 132 872 267 q 424 -16 643 -3 l 357 -334 l 273 -334 l 342 -14 q 134 82 208 -1 q 60 301 60 166 q 176 611 60 479 q 505 757 292 744 m 572 682 l 439 54 q 655 184 581 70 q 730 464 730 298 q 572 682 730 659 m 355 54 l 489 682 q 276 551 350 665 q 201 273 201 438 q 355 54 201 81 z "},"χ":{"ha":733,"x_min":-163,"x_max":772,"o":"m 3 -334 l -163 -334 l 283 257 l 236 543 q 158 668 215 668 q 82 650 117 668 l 65 694 q 212 749 140 749 q 288 718 263 749 q 323 585 312 686 l 353 347 l 619 745 l 772 745 l 379 200 l 432 -123 q 465 -230 446 -208 q 507 -253 484 -253 q 583 -235 544 -253 l 597 -279 q 453 -334 523 -334 q 380 -299 404 -334 q 345 -165 357 -264 l 310 109 l 3 -334 z "},"ψ":{"ha":983,"x_min":79,"x_max":911,"o":"m 79 686 l 92 745 l 346 745 l 250 289 q 243 224 243 254 q 408 75 243 87 l 618 1055 l 701 1055 l 493 79 q 728 220 643 100 q 814 513 814 340 q 737 669 814 627 q 821 753 755 753 q 911 597 911 753 q 795 186 911 361 q 473 -11 680 11 l 406 -334 l 322 -334 l 390 -12 q 184 51 256 -7 q 111 208 111 109 q 121 294 111 250 l 172 541 q 187 621 187 612 q 90 686 187 686 l 79 686 z "},"ω":{"ha":1061,"x_min":60,"x_max":1002,"o":"m 500 129 l 494 129 q 272 -14 418 -14 q 118 55 176 -14 q 60 243 60 124 q 133 530 60 396 q 342 758 206 664 l 390 713 q 195 237 195 481 q 223 107 195 153 q 298 61 252 61 q 476 231 417 61 q 469 338 469 280 q 496 471 469 423 q 566 519 524 519 q 615 452 615 519 q 541 222 615 358 q 582 104 549 147 q 667 61 616 61 q 823 201 773 61 q 872 481 872 342 q 832 713 872 606 l 900 758 q 1002 436 1002 630 q 918 122 1002 258 q 672 -14 834 -14 q 500 129 532 -14 z "},"ϊ":{"ha":464,"x_min":103,"x_max":547,"o":"m 349 745 l 248 269 q 231 150 231 189 q 304 74 231 74 q 408 102 353 74 l 432 50 q 243 -14 342 -14 q 103 149 103 -14 q 117 265 103 201 l 218 745 l 349 745 m 208 878 q 138 947 138 878 q 213 1035 138 1035 q 283 965 283 1035 q 208 878 283 878 m 471 878 q 402 947 402 878 q 477 1035 402 1035 q 547 965 547 1035 q 471 878 547 878 z "},"ϋ":{"ha":823,"x_min":79,"x_max":765,"o":"m 254 310 q 243 222 243 258 q 385 75 243 75 q 587 210 507 75 q 667 519 667 344 q 570 664 667 650 q 659 760 583 760 q 736 711 708 760 q 765 579 765 662 q 651 166 765 346 q 354 -14 537 -14 q 174 45 237 -14 q 111 208 111 104 q 121 294 111 254 l 175 538 q 187 621 187 593 q 90 686 187 686 l 79 686 l 92 745 l 350 745 l 254 310 m 403 878 q 334 947 334 878 q 408 1035 334 1035 q 478 965 478 1035 q 403 878 478 878 m 667 878 q 597 947 597 878 q 672 1035 597 1035 q 742 965 742 1035 q 667 878 742 878 z "},"ό":{"ha":798,"x_min":60,"x_max":737,"o":"m 473 758 q 667 684 596 758 q 737 471 737 610 q 624 136 737 286 q 326 -14 511 -14 q 130 62 201 -14 q 60 273 60 138 q 174 609 60 460 q 473 758 288 758 m 342 54 q 525 190 456 54 q 593 492 593 326 q 457 685 593 685 q 274 549 344 685 q 204 245 204 412 q 342 54 204 54 m 467 860 q 564 1064 534 973 l 689 1064 l 686 1050 q 631 971 684 1038 q 510 842 577 904 l 464 842 l 467 860 z "},"ύ":{"ha":823,"x_min":79,"x_max":765,"o":"m 254 310 q 243 222 243 258 q 385 75 243 75 q 587 210 507 75 q 667 519 667 344 q 570 664 667 650 q 659 760 583 760 q 736 711 708 760 q 765 579 765 662 q 651 166 765 346 q 354 -14 537 -14 q 174 45 237 -14 q 111 208 111 104 q 121 294 111 254 l 175 538 q 187 621 187 593 q 90 686 187 686 l 79 686 l 92 745 l 350 745 l 254 310 m 460 860 q 557 1064 528 973 l 682 1064 l 680 1050 q 624 971 677 1038 q 503 842 570 904 l 457 842 l 460 860 z "},"ώ":{"ha":1061,"x_min":60,"x_max":1002,"o":"m 500 129 l 494 129 q 272 -14 418 -14 q 118 55 176 -14 q 60 243 60 124 q 133 530 60 396 q 342 758 206 664 l 390 713 q 195 237 195 481 q 223 107 195 153 q 298 61 252 61 q 476 231 417 61 q 469 338 469 280 q 496 471 469 423 q 566 519 524 519 q 615 452 615 519 q 541 222 615 358 q 582 104 549 147 q 667 61 616 61 q 823 201 773 61 q 872 481 872 342 q 832 713 872 606 l 900 758 q 1002 436 1002 630 q 918 122 1002 258 q 672 -14 834 -14 q 500 129 532 -14 m 572 860 q 669 1064 640 973 l 795 1064 l 792 1050 q 736 971 790 1038 q 616 842 683 904 l 570 842 l 572 860 z "},"Ё":{"ha":865,"x_min":-29,"x_max":880,"o":"m 257 69 l 525 69 q 682 183 642 69 l 704 243 l 777 243 l 715 0 l -29 0 l -18 58 l 0 58 q 98 83 71 58 q 135 151 125 108 l 279 833 q 283 867 283 852 q 264 916 283 899 q 186 933 245 933 l 168 933 l 180 991 l 880 991 l 836 749 l 764 749 l 768 791 q 771 829 771 824 q 672 922 771 922 l 439 922 l 359 553 l 694 553 l 681 485 l 346 485 l 257 69 m 436 1107 q 367 1177 367 1107 q 441 1264 367 1264 q 511 1194 511 1264 q 436 1107 511 1107 m 700 1107 q 631 1177 631 1107 q 705 1264 631 1264 q 775 1194 775 1264 q 700 1107 775 1107 z "},"Ђ":{"ha":1061,"x_min":100,"x_max":989,"o":"m 505 567 q 725 608 627 608 q 989 387 989 608 q 934 124 989 256 q 692 -7 879 -7 q 582 8 620 -7 l 600 71 q 677 58 637 58 q 781 104 749 58 q 830 240 814 150 q 847 383 847 330 q 692 525 847 525 q 490 490 594 525 l 418 153 q 412 114 412 127 q 513 58 412 58 l 530 58 l 518 0 l 100 0 l 113 58 l 144 58 q 241 82 214 58 q 278 151 269 106 l 441 922 l 336 922 q 197 808 237 922 l 178 749 l 106 749 l 164 991 l 890 991 l 846 749 l 774 749 q 781 833 781 803 q 689 922 781 922 l 582 922 l 505 567 z "},"Ѓ":{"ha":779,"x_min":-28,"x_max":871,"o":"m 403 0 l -28 0 l -16 58 l 1 58 q 136 158 115 58 l 279 833 q 286 878 286 865 q 186 933 286 933 l 168 933 l 180 991 l 871 991 l 828 749 l 755 749 q 762 829 762 808 q 734 903 762 883 q 648 922 707 922 l 439 922 l 275 153 q 269 114 269 124 q 370 58 269 58 l 415 58 l 403 0 m 486 1089 q 635 1293 566 1181 l 783 1293 l 779 1279 q 538 1071 673 1155 l 482 1071 l 486 1089 z "},"Є":{"ha":852,"x_min":72,"x_max":901,"o":"m 728 203 q 746 157 746 190 q 669 38 746 90 q 456 -14 591 -14 q 173 83 275 -14 q 72 358 72 180 q 236 813 72 621 q 644 1006 400 1006 q 833 964 766 1006 q 901 851 901 922 q 864 772 901 802 q 765 743 827 743 q 627 932 765 932 q 400 826 500 932 q 250 534 299 720 l 637 534 l 624 467 l 235 467 q 224 336 224 400 q 471 77 224 77 q 728 203 631 77 z "},"Ѕ":{"ha":755,"x_min":9,"x_max":768,"o":"m 117 290 q 173 119 117 184 q 328 54 229 54 q 482 102 425 54 q 539 233 539 151 q 506 345 539 299 q 364 452 473 390 q 210 584 253 516 q 167 737 167 652 q 258 931 167 857 q 504 1006 349 1006 q 696 964 625 1006 q 768 856 768 922 q 646 760 768 760 q 607 888 646 841 q 493 936 568 936 q 357 888 410 936 q 304 761 304 841 q 333 659 304 702 q 476 549 361 616 q 634 422 585 485 q 682 278 682 359 q 586 63 682 140 q 318 -14 490 -14 q 93 42 176 -14 q 9 184 9 98 q 40 261 9 233 q 117 290 70 290 z "},"І":{"ha":510,"x_min":-29,"x_max":585,"o":"m 585 991 l 572 933 l 554 933 q 458 908 488 933 q 419 833 429 883 l 275 153 q 269 114 269 123 q 370 58 269 58 l 387 58 l 375 0 l -29 0 l -18 58 l 0 58 q 136 158 115 58 l 281 839 q 286 878 286 865 q 186 933 286 933 l 168 933 l 180 991 l 585 991 z "},"Ї":{"ha":510,"x_min":-29,"x_max":613,"o":"m 585 991 l 572 933 l 554 933 q 458 908 488 933 q 419 833 429 883 l 275 153 q 269 114 269 123 q 370 58 269 58 l 387 58 l 375 0 l -29 0 l -18 58 l 0 58 q 136 158 115 58 l 281 839 q 286 878 286 865 q 186 933 286 933 l 168 933 l 180 991 l 585 991 m 274 1107 q 205 1177 205 1107 q 279 1264 205 1264 q 349 1194 349 1264 q 274 1107 349 1107 m 538 1107 q 469 1177 469 1107 q 543 1264 469 1264 q 613 1194 613 1264 q 538 1107 613 1107 z "},"Ј":{"ha":496,"x_min":-215,"x_max":578,"o":"m 578 991 l 566 933 l 547 933 q 452 908 481 933 q 412 833 422 883 l 232 -11 q 116 -257 195 -181 q -102 -334 36 -334 q -215 -318 -163 -334 l -196 -256 q -106 -268 -161 -268 q 20 -208 -25 -268 q 93 -12 64 -147 l 273 839 q 279 878 279 867 q 179 933 279 933 l 161 933 l 174 991 l 578 991 z "},"Љ":{"ha":1235,"x_min":-65,"x_max":1161,"o":"m 536 922 q 426 550 498 772 q 286 196 355 329 q 164 27 217 63 q 45 -9 111 -9 q -36 17 -7 -9 q -65 83 -65 43 q -42 149 -65 125 q 17 172 -19 172 q 69 107 17 107 q 322 477 195 107 q 449 896 449 848 q 347 933 449 933 l 326 933 l 339 991 l 1008 991 l 996 933 l 978 933 q 882 908 911 933 q 843 833 853 882 l 782 549 l 819 549 q 1161 317 1161 549 q 1059 82 1161 164 q 761 0 956 0 l 395 0 l 406 58 l 424 58 q 519 83 490 58 q 559 158 549 108 l 722 922 l 536 922 m 681 69 l 746 69 q 1011 306 1011 69 q 963 442 1011 400 q 815 484 914 484 l 768 484 l 681 69 z "},"Њ":{"ha":1348,"x_min":-29,"x_max":1274,"o":"m 1121 991 l 1108 933 l 1090 933 q 995 908 1024 933 q 956 833 966 883 l 895 549 l 932 549 q 1274 317 1274 549 q 1171 82 1274 164 q 873 0 1069 0 l 507 0 l 518 58 l 536 58 q 632 83 602 58 q 672 158 662 108 l 741 484 l 345 484 l 275 153 q 269 114 269 123 q 370 58 269 58 l 387 58 l 375 0 l -29 0 l -18 58 l 0 58 q 96 84 67 58 q 136 158 125 109 l 281 839 q 286 878 286 865 q 186 933 286 933 l 168 933 l 180 991 l 585 991 l 572 933 l 554 933 q 458 908 488 933 q 419 833 429 883 l 359 553 l 755 553 l 817 839 q 822 878 822 865 q 722 933 822 933 l 704 933 l 717 991 l 1121 991 m 793 69 l 859 69 q 1124 306 1124 69 q 1076 442 1124 400 q 928 484 1028 484 l 880 484 l 793 69 z "},"Ћ":{"ha":1154,"x_min":100,"x_max":1063,"o":"m 1063 58 l 1050 0 l 646 0 l 657 58 l 675 58 q 811 158 790 58 l 829 245 q 847 393 847 330 q 692 525 847 525 q 490 490 594 525 l 418 153 q 412 114 412 127 q 513 58 412 58 l 530 58 l 518 0 l 100 0 l 113 58 l 144 58 q 241 82 214 58 q 278 151 269 106 l 441 922 l 336 922 q 197 808 237 922 l 178 749 l 106 749 l 164 991 l 890 991 l 846 749 l 774 749 q 781 833 781 803 q 689 922 781 922 l 582 922 l 505 567 q 725 608 627 608 q 990 403 990 608 q 971 253 990 338 l 950 153 q 945 114 945 127 q 1044 58 945 58 l 1063 58 z "},"Ќ":{"ha":972,"x_min":-29,"x_max":1031,"o":"m -29 0 l -18 58 l 0 58 q 96 84 66 58 q 136 158 125 109 l 281 839 q 286 878 286 865 q 186 933 286 933 l 168 933 l 180 991 l 585 991 l 572 933 l 554 933 q 458 908 488 933 q 419 833 429 882 l 355 530 q 493 564 450 530 q 632 774 535 598 q 762 947 699 894 q 918 1000 824 1000 q 1031 917 1031 1000 q 943 819 1031 826 q 875 897 943 897 q 690 733 779 897 q 539 525 589 552 q 657 404 620 520 l 737 170 q 878 58 775 58 l 882 58 l 869 0 l 850 0 q 679 20 730 0 q 600 131 628 41 l 525 372 q 482 446 508 426 q 342 467 456 467 l 275 153 q 269 114 269 123 q 370 58 269 58 l 387 58 l 375 0 l -29 0 m 593 1089 q 742 1293 673 1181 l 890 1293 l 886 1279 q 645 1071 780 1155 l 589 1071 l 593 1089 z "},"Ў":{"ha":930,"x_min":58,"x_max":1065,"o":"m 1065 991 l 1053 933 l 1026 933 q 965 915 987 933 q 899 825 943 896 l 543 254 q 373 34 431 74 q 160 -7 315 -7 l 58 -7 l 72 58 l 149 58 q 392 210 298 58 l 216 860 q 189 918 205 903 q 134 933 173 933 l 115 933 l 127 991 l 513 991 l 501 933 l 464 933 q 370 865 370 933 q 380 789 370 834 l 458 485 q 497 297 488 372 q 597 481 534 378 l 799 806 q 825 884 825 848 q 747 933 825 933 l 715 933 l 726 991 l 1065 991 m 435 1247 l 559 1279 q 549 1218 549 1249 q 635 1145 549 1145 q 901 1316 793 1145 l 952 1283 q 614 1071 821 1071 q 428 1200 428 1071 q 435 1247 428 1225 z "},"Џ":{"ha":1060,"x_min":-26,"x_max":1137,"o":"m 827 153 q 821 114 821 124 q 921 58 821 58 l 939 58 l 926 0 l 637 0 q 419 -292 483 0 l 355 -292 q 372 -161 372 -218 q 249 0 372 0 l -26 0 l -14 58 l 3 58 q 98 83 69 58 q 136 153 126 108 l 283 839 q 289 878 289 864 q 189 933 289 933 l 171 933 l 183 991 l 587 991 l 575 933 l 557 933 q 462 909 492 933 q 421 833 432 884 l 260 69 l 669 69 l 833 839 q 839 878 839 865 q 739 933 839 933 l 721 933 l 733 991 l 1137 991 l 1125 933 l 1107 933 q 1013 910 1042 933 q 974 840 985 888 l 827 153 z "},"А":{"ha":979,"x_min":-78,"x_max":913,"o":"m 277 332 l 193 186 q 167 109 167 140 q 244 58 167 58 l 277 58 l 265 0 l -78 0 l -66 58 l -40 58 q 22 78 -3 58 q 89 167 47 97 l 572 991 l 681 991 l 812 132 q 836 74 819 89 q 895 58 853 58 l 913 58 l 901 0 l 524 0 l 534 58 l 567 58 q 667 129 667 58 q 664 176 667 157 l 642 332 l 277 332 m 597 644 q 575 864 576 792 q 467 657 543 789 l 318 401 l 632 401 l 597 644 z "},"Б":{"ha":839,"x_min":-29,"x_max":831,"o":"m 831 991 l 786 749 l 714 749 q 721 833 721 803 q 629 922 721 922 l 439 922 l 358 549 l 437 549 q 779 317 779 549 q 677 82 779 164 q 379 0 574 0 l -29 0 l -18 58 l 0 58 q 136 158 115 58 l 281 839 q 286 878 286 865 q 186 933 286 933 l 168 933 l 180 991 l 831 991 m 257 69 l 364 69 q 629 306 629 69 q 582 442 629 400 q 433 484 534 484 l 345 484 l 257 69 z "},"В":{"ha":908,"x_min":-29,"x_max":865,"o":"m -18 58 l 0 58 q 136 158 115 58 l 281 839 q 286 878 286 865 q 186 933 286 933 l 168 933 l 180 991 l 541 991 q 865 783 865 991 q 639 525 865 578 l 637 519 q 807 317 807 486 q 705 82 807 164 q 407 0 602 0 l -29 0 l -18 58 m 359 554 l 467 554 q 714 765 714 554 q 522 922 714 922 l 439 922 l 359 554 m 257 69 l 392 69 q 657 326 657 69 q 463 485 657 485 l 346 485 l 257 69 z "},"Г":{"ha":779,"x_min":-28,"x_max":871,"o":"m 403 0 l -28 0 l -16 58 l 1 58 q 136 158 115 58 l 279 833 q 286 878 286 865 q 186 933 286 933 l 168 933 l 180 991 l 871 991 l 828 749 l 755 749 q 762 829 762 808 q 734 903 762 883 q 648 922 707 922 l 439 922 l 275 153 q 269 114 269 124 q 370 58 269 58 l 415 58 l 403 0 z "},"Д":{"ha":947,"x_min":-126,"x_max":1004,"o":"m 35 69 q 366 607 264 380 q 468 893 468 833 q 449 923 468 912 q 357 933 431 933 l 353 933 l 366 991 l 1004 991 l 991 933 l 974 933 q 892 910 918 933 q 857 840 867 886 l 714 170 q 710 135 710 151 q 807 69 710 69 l 835 69 l 757 -292 l 693 -292 q 708 -172 708 -222 q 550 0 708 0 l 204 0 q -62 -292 -1 0 l -126 -292 l -49 69 l 35 69 m 558 922 q 131 69 481 577 l 554 69 l 734 922 l 558 922 z "},"Е":{"ha":865,"x_min":-29,"x_max":880,"o":"m 257 69 l 525 69 q 682 183 642 69 l 704 243 l 777 243 l 715 0 l -29 0 l -18 58 l 0 58 q 98 83 71 58 q 135 151 125 108 l 279 833 q 283 867 283 852 q 264 916 283 899 q 186 933 245 933 l 168 933 l 180 991 l 880 991 l 836 749 l 764 749 l 768 791 q 771 829 771 824 q 672 922 771 922 l 439 922 l 359 553 l 694 553 l 681 485 l 346 485 l 257 69 z "},"Ж":{"ha":1360,"x_min":-75,"x_max":1428,"o":"m 389 0 l 400 58 l 418 58 q 513 83 484 58 q 554 158 543 107 l 619 467 q 462 450 507 467 q 383 372 417 433 l 244 131 q 153 25 198 51 q -31 0 107 0 l -75 0 l -62 58 l -58 58 q 119 170 52 58 l 257 404 q 490 526 326 521 q 385 733 435 572 q 325 872 349 848 q 272 897 302 897 q 179 819 210 897 q 129 900 129 840 q 253 1000 129 1000 q 370 953 330 1000 q 447 774 410 905 q 533 574 494 617 q 633 530 572 530 l 699 839 q 704 878 704 865 q 604 933 704 933 l 586 933 l 599 991 l 991 991 l 979 933 l 961 933 q 866 908 895 933 q 827 833 837 884 l 762 530 q 919 568 869 530 q 1050 774 968 606 q 1171 947 1109 895 q 1321 1000 1233 1000 q 1428 920 1428 1000 q 1340 819 1428 826 q 1275 897 1340 897 q 1192 862 1227 897 q 1109 733 1158 827 q 956 525 1021 557 q 1054 404 1021 502 l 1135 170 q 1275 58 1173 58 l 1279 58 l 1267 0 l 1247 0 q 1078 24 1134 0 q 997 131 1022 48 l 922 372 q 870 450 903 433 q 749 467 838 467 l 682 153 q 676 114 676 123 q 777 58 676 58 l 794 58 l 782 0 l 389 0 z "},"З":{"ha":838,"x_min":18,"x_max":799,"o":"m 123 267 q 183 123 123 186 q 340 61 242 61 q 571 298 571 61 q 516 427 571 380 q 359 473 461 473 l 252 473 l 267 545 l 385 545 q 577 610 500 545 q 654 779 654 675 q 611 895 654 853 q 489 936 568 936 q 292 729 334 936 q 184 817 184 729 q 271 952 184 899 q 490 1006 357 1006 q 713 946 627 1006 q 799 787 799 887 q 721 600 799 675 q 514 510 643 526 q 668 440 610 497 q 726 300 726 384 q 622 66 726 149 q 325 -16 517 -16 q 98 33 178 -16 q 18 165 18 81 q 48 240 18 213 q 123 267 78 267 z "},"И":{"ha":1116,"x_min":-29,"x_max":1190,"o":"m 1178 933 l 1160 933 q 1064 908 1093 933 q 1025 833 1035 883 l 880 153 q 875 114 875 127 q 975 58 875 58 l 993 58 l 981 0 l 576 0 l 587 58 l 606 58 q 742 158 721 58 l 852 690 l 282 189 l 275 153 q 269 114 269 119 q 370 58 269 58 l 387 58 l 375 0 l -29 0 l -18 58 l 0 58 q 96 84 67 58 q 136 158 125 109 l 281 839 q 286 878 286 865 q 186 933 286 933 l 168 933 l 180 991 l 585 991 l 572 933 l 554 933 q 458 908 488 933 q 419 833 429 883 l 309 302 l 878 802 l 886 839 q 892 878 892 862 q 791 933 892 933 l 774 933 l 786 991 l 1190 991 l 1178 933 z "},"Й":{"ha":1116,"x_min":-29,"x_max":1190,"o":"m 1178 933 l 1160 933 q 1064 908 1093 933 q 1025 833 1035 883 l 880 153 q 875 114 875 127 q 975 58 875 58 l 993 58 l 981 0 l 576 0 l 587 58 l 606 58 q 742 158 721 58 l 852 690 l 282 189 l 275 153 q 269 114 269 119 q 370 58 269 58 l 387 58 l 375 0 l -29 0 l -18 58 l 0 58 q 96 84 67 58 q 136 158 125 109 l 281 839 q 286 878 286 865 q 186 933 286 933 l 168 933 l 180 991 l 585 991 l 572 933 l 554 933 q 458 908 488 933 q 419 833 429 883 l 309 302 l 878 802 l 886 839 q 892 878 892 862 q 791 933 892 933 l 774 933 l 786 991 l 1190 991 l 1178 933 m 505 1247 l 628 1279 q 618 1218 618 1249 q 705 1145 618 1145 q 970 1316 862 1145 l 1021 1283 q 684 1071 890 1071 q 497 1200 497 1071 q 505 1247 497 1225 z "},"К":{"ha":972,"x_min":-29,"x_max":1031,"o":"m -29 0 l -18 58 l 0 58 q 96 84 66 58 q 136 158 125 109 l 281 839 q 286 878 286 865 q 186 933 286 933 l 168 933 l 180 991 l 585 991 l 572 933 l 554 933 q 458 908 488 933 q 419 833 429 882 l 355 530 q 493 564 450 530 q 632 774 535 598 q 762 947 699 894 q 918 1000 824 1000 q 1031 917 1031 1000 q 943 819 1031 826 q 875 897 943 897 q 690 733 779 897 q 539 525 589 552 q 657 404 620 520 l 737 170 q 878 58 775 58 l 882 58 l 869 0 l 850 0 q 679 20 730 0 q 600 131 628 41 l 525 372 q 482 446 508 426 q 342 467 456 467 l 275 153 q 269 114 269 123 q 370 58 269 58 l 387 58 l 375 0 l -29 0 z "},"Л":{"ha":975,"x_min":-65,"x_max":1050,"o":"m 17 172 q 69 107 17 107 q 322 477 195 107 q 449 896 449 848 q 347 933 449 933 l 326 933 l 339 991 l 1050 991 l 1038 933 l 1019 933 q 924 908 954 933 q 885 833 895 884 l 741 153 q 734 114 734 124 q 835 58 734 58 l 852 58 l 840 0 l 436 0 l 447 58 l 465 58 q 602 158 581 58 l 762 922 l 536 922 q 426 549 497 771 q 286 196 354 328 q 163 27 217 64 q 45 -9 110 -9 q -36 17 -7 -9 q -65 83 -65 43 q -42 149 -65 125 q 17 172 -19 172 z "}}}
